<svg width="56" height="84" viewBox="0 0 56 84" fill="none" xmlns="http://www.w3.org/2000/svg">
<g clip-path="url(#clip0)">
<path d="M38.971 0H38.9507C35.6535 0 32.9807 2.67284 32.9807 5.96995V27.4251C32.9807 30.7222 35.6535 33.395 38.9507 33.395H38.971C42.2681 33.395 44.941 30.7222 44.941 27.4251V5.96995C44.941 2.67284 42.2681 0 38.971 0Z" fill="#E7EDF4"/>
<path d="M22.2633 16.7077C22.2607 15.922 22.4131 15.1435 22.7119 14.4169C23.0107 13.6902 23.45 13.0297 24.0047 12.4732C24.5593 11.9166 25.2183 11.4751 25.944 11.1738C26.6696 10.8725 27.4476 10.7174 28.2333 10.7174H49.6884C50.4741 10.7174 51.2521 10.8725 51.9777 11.1738C52.7034 11.4751 53.3624 11.9166 53.917 12.4732C54.4717 13.0297 54.911 13.6902 55.2098 14.4169C55.5086 15.1435 55.6611 15.922 55.6584 16.7077C55.6584 18.2911 55.0294 19.8095 53.9098 20.9291C52.7902 22.0487 51.2718 22.6777 49.6884 22.6777H28.2333C26.65 22.6777 25.1315 22.0487 24.0119 20.9291C22.8923 19.8095 22.2633 18.2911 22.2633 16.7077Z" fill="#E7EDF4"/>
</g>
<g clip-path="url(#clip1)">
<path d="M11.1384 61.7302H11.1249C8.92679 61.7302 7.1449 63.5121 7.1449 65.7101V80.0136C7.1449 82.2116 8.92679 83.9935 11.1249 83.9935H11.1384C13.3365 83.9935 15.1184 82.2116 15.1184 80.0136V65.7101C15.1184 63.5121 13.3365 61.7302 11.1384 61.7302Z" fill="#E7EDF4"/>
<path d="M2.31821e-05 72.8687C-0.00176454 72.3449 0.099861 71.8259 0.299072 71.3414C0.498284 70.857 0.791163 70.4166 1.16091 70.0456C1.53067 69.6746 1.97002 69.3802 2.45378 69.1794C2.93754 68.9785 3.45619 68.8751 3.97999 68.8751H18.2834C18.8072 68.8751 19.3259 68.9785 19.8096 69.1794C20.2934 69.3802 20.7327 69.6746 21.1025 70.0456C21.4722 70.4166 21.7651 70.857 21.9643 71.3414C22.1635 71.8259 22.2652 72.3449 22.2634 72.8687C22.2634 73.9242 21.8441 74.9365 21.0977 75.6829C20.3513 76.4293 19.339 76.8486 18.2834 76.8486H3.97999C2.92444 76.8486 1.91212 76.4293 1.16573 75.6829C0.41934 74.9365 2.31821e-05 73.9242 2.31821e-05 72.8687Z" fill="#E7EDF4"/>
</g>
<defs>
<clipPath id="clip0">
<rect x="22.2633" width="33.395" height="33.395" fill="white"/>
</clipPath>
<clipPath id="clip1">
<rect y="61.7302" width="22.2634" height="22.2634" fill="white"/>
</clipPath>
</defs>
</svg>