<svg width="165" height="116" viewBox="0 0 165 116" fill="none" xmlns="http://www.w3.org/2000/svg">
<style>.icon-fill {opacity: 0.24; fill: #AAAAAA; transition: 0.3s all;} .icon-fill.hovered {opacity: 1; fill: #C0001F;}</style>
<g clip-path="url(#clip0)">
<path d="M112.415 64.8466H106.618C106.21 64.8493 105.804 64.9066 105.411 65.0168V53.5301C105.307 48.852 103.369 44.3998 100.012 41.1244C96.6539 37.8489 92.1425 36.0098 87.4408 35.9999H76.2082C73.9193 35.9749 71.648 36.3988 69.5238 37.2476C67.3997 38.0963 65.4643 39.3531 63.8282 40.9463C62.1921 42.5395 60.8874 44.4378 59.9885 46.5328C59.0896 48.6279 58.6142 50.8786 58.5894 53.1566C58.5894 53.2842 58.5894 53.4119 58.5894 53.5349V65.0026C58.1943 64.897 57.7868 64.8445 57.3777 64.8466H51.5856C50.9837 64.8466 50.3878 64.9645 49.8318 65.1938C49.2758 65.423 48.7705 65.7589 48.345 66.1825C47.9194 66.606 47.5818 67.1088 47.3515 67.6622C47.1212 68.2156 47.0027 68.8087 47.0027 69.4077C47.0027 70.0066 47.1212 70.5997 47.3515 71.1531C47.5818 71.7065 47.9194 72.2093 48.345 72.6328C48.7705 73.0564 49.2758 73.3923 49.8318 73.6216C50.3878 73.8508 50.9837 73.9688 51.5856 73.9688H52.7972V82.5849C52.8035 83.7356 53.2655 84.8374 54.0831 85.6511C54.9006 86.4648 56.0077 86.9247 57.1639 86.9309H58.8507C59.1422 87.9162 59.682 88.811 60.4189 89.5303C61.1557 90.2495 62.0651 90.7693 63.0606 91.0403L64.6238 91.2531L73.3287 91.2248C73.374 92.3063 73.8372 93.3286 74.6216 94.0784C75.406 94.8282 76.451 95.2476 77.5386 95.2491H77.6526V102.901H68.102C66.831 102.908 65.5951 103.316 64.571 104.065C63.5469 104.814 62.787 105.867 62.4001 107.072C61.3656 107.356 60.4647 107.994 59.8552 108.873C59.2457 109.752 58.9665 110.817 59.0666 111.881C59.1667 112.944 59.6396 113.939 60.4025 114.69C61.1654 115.441 62.1696 115.902 63.2392 115.99C64.3088 116.079 65.3756 115.79 66.2526 115.174C67.1297 114.558 67.761 113.655 68.0361 112.622C68.3111 111.59 68.2123 110.494 67.757 109.526C67.3016 108.559 66.5188 107.782 65.5457 107.332C65.8094 106.888 66.1849 106.521 66.6349 106.267C67.0849 106.012 67.5939 105.879 68.1115 105.88H80.7982V107.157C79.7783 107.509 78.9168 108.209 78.3665 109.133C77.8162 110.058 77.6128 111.146 77.7922 112.205C77.9716 113.265 78.5223 114.227 79.3466 114.92C80.1709 115.614 81.2154 115.995 82.2949 115.995C83.3744 115.995 84.4189 115.614 85.2432 114.92C86.0675 114.227 86.6182 113.265 86.7976 112.205C86.9771 111.146 86.7736 110.058 86.2233 109.133C85.673 108.209 84.8115 107.509 83.7916 107.157V105.88H96.4878C97.0055 105.879 97.5144 106.012 97.9644 106.267C98.4144 106.521 98.7899 106.888 99.0537 107.332C98.0818 107.782 97.3002 108.558 96.8457 109.525C96.3911 110.491 96.2927 111.586 96.5676 112.617C96.8426 113.648 97.4733 114.55 98.3493 115.165C99.2254 115.78 100.291 116.069 101.359 115.98C102.428 115.892 103.431 115.432 104.193 114.682C104.955 113.932 105.427 112.938 105.527 111.876C105.628 110.814 105.349 109.75 104.741 108.872C104.132 107.993 103.232 107.356 102.199 107.072C101.812 105.867 101.052 104.814 100.028 104.065C99.0042 103.316 97.7683 102.908 96.4973 102.901H86.9372V95.2444H87.0512C88.1492 95.2436 89.2036 94.8169 89.9905 94.0549C90.7774 93.2929 91.2349 92.2556 91.2659 91.1633L100.522 91.1349C101.606 90.9202 102.61 90.4145 103.425 89.6726C104.241 88.9308 104.838 87.981 105.15 86.9261H106.837C107.993 86.9199 109.1 86.4601 109.918 85.6464C110.735 84.8327 111.197 83.7309 111.203 82.5802V73.9546H112.415C113.017 73.9546 113.613 73.8366 114.169 73.6074C114.725 73.3782 115.23 73.0422 115.656 72.6187C116.081 72.1951 116.419 71.6923 116.649 71.1389C116.879 70.5856 116.998 69.9924 116.998 69.3935C116.998 68.7945 116.879 68.2014 116.649 67.648C116.419 67.0946 116.081 66.5918 115.656 66.1683C115.23 65.7448 114.725 65.4088 114.169 65.1796C113.613 64.9504 113.017 64.8324 112.415 64.8324V64.8466ZM106.841 83.5733H105.416V73.7843C105.81 73.8949 106.218 73.9521 106.628 73.9546H107.82V82.5849C107.82 82.8446 107.718 83.0939 107.534 83.2788C107.351 83.4638 107.102 83.5696 106.841 83.5733ZM105.416 69.3864C105.416 69.0666 105.544 68.7598 105.771 68.5337C105.998 68.3075 106.306 68.1805 106.628 68.1805H112.42C112.741 68.1805 113.049 68.3075 113.277 68.5337C113.504 68.7598 113.631 69.0666 113.631 69.3864C113.631 69.7062 113.504 70.0129 113.277 70.2391C113.049 70.4652 112.741 70.5923 112.42 70.5923H106.623C106.303 70.5923 105.996 70.4665 105.769 70.2424C105.543 70.0183 105.414 69.714 105.411 69.3958L105.416 69.3864ZM83.8677 111.451C83.8677 111.76 83.7754 112.063 83.6026 112.32C83.4298 112.578 83.1842 112.778 82.8968 112.897C82.6094 113.015 82.2932 113.046 81.9881 112.986C81.683 112.925 81.4027 112.776 81.1828 112.557C80.9628 112.338 80.813 112.06 80.7524 111.756C80.6917 111.452 80.7228 111.138 80.8419 110.852C80.9609 110.566 81.1625 110.321 81.4211 110.149C81.6798 109.977 81.9838 109.885 82.2949 109.885C82.7116 109.887 83.111 110.052 83.4056 110.345C83.7003 110.638 83.8664 111.036 83.8677 111.451ZM83.9437 95.2444V102.896H80.6461V95.2444H83.9437ZM65.6597 87.8956C64.7629 87.9066 63.8928 87.5918 63.2124 87.0104C62.5319 86.4289 62.0877 85.6205 61.963 84.7366C62.0815 84.1272 62.4126 83.579 62.8977 83.1888C63.3828 82.7986 63.9907 82.5914 64.6143 82.6039H99.3815C100.006 82.5886 100.615 82.7947 101.101 83.1854C101.587 83.5761 101.917 84.1259 102.033 84.7366C101.91 85.6222 101.466 86.4324 100.784 87.0144C100.102 87.5963 99.2296 87.9098 98.3314 87.8956H65.6597ZM102.042 79.8894C101.218 79.4706 100.307 79.2503 99.3815 79.2463H64.6191C63.6954 79.251 62.7856 79.4713 61.963 79.8894V53.5349C61.9249 49.818 63.3699 46.2379 65.9808 43.58C68.5917 40.9222 72.1553 39.4036 75.8898 39.3574H87.132C90.9943 39.2875 94.728 40.7392 97.5199 43.3964C100.312 46.0536 101.936 49.7011 102.038 53.5443L102.042 79.8894ZM87.056 92.2746H77.5528C77.2576 92.2738 76.9726 92.1665 76.7507 91.9726C76.5288 91.7787 76.385 91.5113 76.3459 91.22L88.2866 91.1822C88.2558 91.4844 88.1123 91.7642 87.8845 91.9664C87.6568 92.1686 87.3612 92.2785 87.056 92.2746ZM58.5894 69.3958C58.5894 69.7157 58.4617 70.0224 58.2345 70.2485C58.0073 70.4747 57.6991 70.6017 57.3777 70.6017H51.5856C51.2642 70.6017 50.956 70.4747 50.7288 70.2485C50.5016 70.0224 50.3739 69.7157 50.3739 69.3958C50.3739 69.076 50.5016 68.7693 50.7288 68.5432C50.956 68.317 51.2642 68.19 51.5856 68.19H57.3777C57.6991 68.19 58.0073 68.317 58.2345 68.5432C58.4617 68.7693 58.5894 69.076 58.5894 69.3958ZM58.5894 73.7843V83.5733H57.1639C56.9005 83.5733 56.6479 83.4692 56.4617 83.2838C56.2754 83.0985 56.1708 82.8471 56.1708 82.5849V73.9546H57.3825C57.7906 73.9517 58.1965 73.8944 58.5894 73.7843ZM65.1845 111.451C65.1845 111.761 65.0918 112.064 64.9181 112.322C64.7444 112.58 64.4977 112.781 64.2092 112.898C63.9207 113.016 63.6035 113.046 63.2979 112.984C62.9923 112.922 62.7121 112.771 62.4929 112.551C62.2737 112.33 62.1255 112.049 62.0669 111.744C62.0084 111.439 62.0423 111.124 62.1642 110.838C62.2862 110.553 62.4907 110.31 62.7519 110.14C63.013 109.97 63.3189 109.882 63.6308 109.885C64.0442 109.891 64.4387 110.059 64.7293 110.352C65.0198 110.644 65.1833 111.039 65.1845 111.451ZM99.3958 111.451C99.3958 111.141 99.488 110.838 99.6608 110.581C99.8336 110.324 100.079 110.123 100.367 110.004C100.654 109.886 100.97 109.855 101.275 109.915C101.58 109.976 101.861 110.125 102.081 110.344C102.301 110.563 102.45 110.842 102.511 111.145C102.572 111.449 102.541 111.764 102.422 112.05C102.303 112.336 102.101 112.58 101.842 112.752C101.584 112.924 101.28 113.016 100.969 113.016C100.553 113.012 100.157 112.846 99.8639 112.553C99.5713 112.26 99.4065 111.864 99.4053 111.451H99.3958Z" fill="#263568"/>
</g>
<path class="icon-fill" d="M43.9842 28.5162L47.814 26.9623V33.5695C47.8431 34.112 48.0792 34.6227 48.4735 34.9964C48.8679 35.3701 49.3905 35.5784 49.9338 35.5784C50.4771 35.5784 50.9997 35.3701 51.394 34.9964C51.7884 34.6227 52.0244 34.112 52.0536 33.5695V23.781C52.0529 23.4338 51.967 23.0921 51.8035 22.7859C51.6401 22.4796 51.404 22.2181 51.1159 22.0243C50.8279 21.8304 50.4967 21.7102 50.1515 21.6741C49.8062 21.638 49.4573 21.6871 49.1354 21.8172L45.3057 23.3711V16.7945C45.3211 16.5065 45.2778 16.2185 45.1783 15.9478C45.0787 15.6772 44.9251 15.4296 44.7267 15.2203C44.5283 15.011 44.2894 14.8443 44.0245 14.7304C43.7596 14.6165 43.4742 14.5577 43.1859 14.5577C42.8975 14.5577 42.6121 14.6165 42.3472 14.7304C42.0823 14.8443 41.8434 15.011 41.645 15.2203C41.4466 15.4296 41.293 15.6772 41.1935 15.9478C41.0939 16.2185 41.0506 16.5065 41.066 16.7945V26.583C41.0717 26.9275 41.1612 27.2655 41.3267 27.5678C41.4923 27.87 41.7289 28.1275 42.0162 28.3178C42.3035 28.5081 42.6328 28.6256 42.9757 28.6602C43.3186 28.6948 43.6647 28.6453 43.9842 28.5162Z"/>
<path class="icon-fill" d="M34.8688 45.958C35.1163 46.2033 35.4204 46.384 35.7542 46.4839C36.0881 46.5839 36.4414 46.6001 36.783 46.5312C37.1247 46.4623 37.4441 46.3103 37.713 46.0887C37.982 45.8671 38.1923 45.5827 38.3253 45.2606L39.9343 41.4553L44.6083 46.1293C44.8009 46.3442 45.0352 46.5175 45.2971 46.6388C45.5589 46.76 45.8427 46.8266 46.1311 46.8345C46.4195 46.8424 46.7066 46.7914 46.9746 46.6846C47.2427 46.5778 47.4862 46.4175 47.6902 46.2135C47.8942 46.0095 48.0545 45.766 48.1613 45.4979C48.2681 45.2299 48.3191 44.9429 48.3112 44.6544C48.3033 44.366 48.2367 44.0822 48.1154 43.8204C47.9942 43.5585 47.8209 43.3242 47.606 43.1316L40.699 36.2491C40.4531 36.0044 40.151 35.8237 39.8192 35.7228C39.4873 35.622 39.1357 35.6039 38.7953 35.6703C38.4548 35.7367 38.1358 35.8855 37.8662 36.1037C37.5966 36.322 37.3845 36.6029 37.2486 36.922L35.6396 40.7334L30.9717 36.0839C30.7819 35.8628 30.5485 35.6832 30.2862 35.5562C30.0239 35.4293 29.7383 35.3577 29.4471 35.3459C29.156 35.3341 28.8655 35.3824 28.5938 35.4877C28.3221 35.5931 28.075 35.7533 27.8679 35.9583C27.6608 36.1633 27.4981 36.4087 27.3899 36.6793C27.2818 36.9499 27.2306 37.2399 27.2394 37.5312C27.2482 37.8225 27.3169 38.1088 27.4412 38.3724C27.5654 38.636 27.7427 38.8712 27.9618 39.0633L34.8688 45.958Z"/>
<path class="icon-fill" d="M124.568 26.5524V16.7639C124.583 16.476 124.54 16.1879 124.44 15.9172C124.341 15.6466 124.187 15.399 123.989 15.1897C123.79 14.9804 123.551 14.8137 123.287 14.6998C123.022 14.5859 122.736 14.5271 122.448 14.5271C122.16 14.5271 121.874 14.5859 121.609 14.6998C121.344 14.8137 121.105 14.9804 120.907 15.1897C120.709 15.399 120.555 15.6466 120.456 15.9172C120.356 16.1879 120.313 16.476 120.328 16.7639V23.3711L116.498 21.8172C116.177 21.6871 115.828 21.638 115.482 21.6741C115.137 21.7102 114.806 21.8304 114.518 22.0243C114.23 22.2181 113.994 22.4796 113.83 22.7859C113.667 23.0922 113.581 23.4338 113.58 23.781V33.5695C113.565 33.8574 113.608 34.1455 113.708 34.4162C113.807 34.6868 113.961 34.9343 114.159 35.1437C114.358 35.353 114.596 35.5197 114.861 35.6336C115.126 35.7475 115.412 35.8063 115.7 35.8063C115.988 35.8063 116.274 35.7475 116.539 35.6336C116.804 35.5197 117.043 35.353 117.241 35.1437C117.439 34.9343 117.593 34.6868 117.692 34.4162C117.792 34.1455 117.835 33.8574 117.82 33.5695V26.9561L121.65 28.5101C121.971 28.6399 122.319 28.6891 122.664 28.6533C123.009 28.6175 123.34 28.4979 123.628 28.3047C123.915 28.1116 124.152 27.8509 124.316 27.5455C124.479 27.24 124.566 26.899 124.568 26.5524Z"/>
<path class="icon-fill" d="M137.66 39.0632C138.022 38.6589 138.216 38.1311 138.201 37.5884C138.186 37.0456 137.964 36.5292 137.58 36.1452C137.196 35.7613 136.68 35.5391 136.137 35.5243C135.594 35.5094 135.066 35.7031 134.662 36.0655L129.988 40.7395L128.379 36.9342C128.243 36.6151 128.031 36.3342 127.761 36.1159C127.492 35.8977 127.173 35.7489 126.832 35.6825C126.492 35.6161 126.14 35.6342 125.808 35.735C125.477 35.8359 125.175 36.0166 124.929 36.2613L118.028 43.1499C117.813 43.3425 117.64 43.5769 117.518 43.8387C117.397 44.1005 117.33 44.3843 117.323 44.6728C117.315 44.9612 117.366 45.2482 117.472 45.5163C117.579 45.7843 117.74 46.0278 117.944 46.2318C118.148 46.4359 118.391 46.5962 118.659 46.7029C118.927 46.8097 119.214 46.8607 119.503 46.8528C119.791 46.8449 120.075 46.7783 120.337 46.6571C120.599 46.5358 120.833 46.3625 121.025 46.1476L125.699 41.4736L127.308 45.2605C127.444 45.5797 127.656 45.8606 127.926 46.0788C128.196 46.2971 128.515 46.4459 128.855 46.5123C129.196 46.5787 129.547 46.5606 129.879 46.4597C130.211 46.3588 130.513 46.1782 130.759 45.9335L137.66 39.0632Z"/>
<defs>
<clipPath id="clip0">
<rect x="47" y="36" width="70" height="80" fill="white"/>
</clipPath>
</defs>
</svg>