<svg width="112" height="96" viewBox="0 0 112 96" fill="none" xmlns="http://www.w3.org/2000/svg">
<style>.icon-fill {opacity: 0.24; fill: #AAAAAA; transition: 0.3s all;} .icon-fill.hovered {opacity: 1; fill: #C0001F;}</style>
<g clip-path="url(#clip0)">
<path d="M45.5322 59.2972C42.3908 59.2972 39.3199 60.2293 36.7079 61.9755C34.0959 63.7217 32.0601 66.2037 30.8579 69.1076C29.6557 72.0115 29.3412 75.2068 29.954 78.2895C30.5669 81.3722 32.0796 84.2039 34.301 86.4264C36.5223 88.649 39.3525 90.1625 42.4335 90.7757C45.5146 91.3889 48.7082 91.0742 51.6105 89.8714C54.5129 88.6685 56.9935 86.6316 58.7388 84.0182C60.4841 81.4048 61.4156 78.3323 61.4156 75.1892C61.4106 70.9759 59.7356 66.9367 56.7579 63.9574C53.7803 60.9782 49.7432 59.3023 45.5322 59.2972ZM45.5322 88.8142C42.8398 88.8142 40.2079 88.0154 37.9693 86.5188C35.7306 85.0221 33.9858 82.8949 32.9555 80.4062C31.9251 77.9174 31.6556 75.1788 32.1808 72.5367C32.7061 69.8946 34.0026 67.4677 35.9064 65.5629C37.8102 63.6581 40.2358 62.3609 42.8765 61.8353C45.5171 61.3098 48.2542 61.5795 50.7417 62.6104C53.2291 63.6413 55.3552 65.387 56.851 67.6269C58.3468 69.8667 59.1452 72.5001 59.1452 75.1939C59.1402 78.8047 57.7043 82.2661 55.1525 84.8193C52.6007 87.3726 49.1411 88.8092 45.5322 88.8142ZM45.5322 66.1121C43.7366 66.1112 41.981 66.6432 40.4876 67.6407C38.9942 68.6383 37.83 70.0566 37.1424 71.7163C36.4548 73.3759 36.2747 75.2024 36.6248 76.9645C36.9748 78.7266 37.8394 80.3453 39.1091 81.6157C40.3789 82.8861 41.9966 83.7511 43.7578 84.1014C45.519 84.4517 47.3445 84.2714 49.0033 83.5835C50.662 82.8955 52.0796 81.7307 53.0766 80.2365C54.0737 78.7423 54.6053 76.9858 54.6044 75.1892C54.6019 72.7821 53.6454 70.4743 51.9447 68.7718C50.244 67.0693 47.938 66.1112 45.5322 66.1074V66.1121ZM45.5322 82.004C44.186 82.004 42.8701 81.6046 41.7507 80.8563C40.6314 80.108 39.759 79.0444 39.2439 77.8C38.7287 76.5556 38.5939 75.1864 38.8565 73.8653C39.1192 72.5443 39.7674 71.3308 40.7193 70.3784C41.6712 69.426 42.884 68.7774 44.2044 68.5146C45.5247 68.2519 46.8932 68.3867 48.137 68.9022C49.3807 69.4176 50.4437 70.2905 51.1916 71.4104C51.9395 72.5303 52.3387 73.847 52.3387 75.1939C52.335 76.9985 51.6165 78.728 50.3407 80.0036C49.0649 81.2791 47.3358 81.9968 45.5322 81.9993V82.004ZM91.368 74.0533L93.1681 72.2522C93.5279 71.8925 93.8133 71.4654 94.008 70.9953C94.2027 70.5252 94.3029 70.0213 94.3029 69.5125C94.3029 69.0036 94.2027 68.4997 94.008 68.0296C93.8133 67.5595 93.5279 67.1324 93.1681 66.7727L91.368 64.9621L92.0329 64.2967C92.3927 63.937 92.6781 63.5099 92.8728 63.0398C93.0675 62.5697 93.1677 62.0659 93.1677 61.557C93.1677 61.0481 93.0675 60.5442 92.8728 60.0741C92.6781 59.604 92.3927 59.1769 92.0329 58.8173L89.0976 55.8803C88.3598 55.1758 87.3791 54.7827 86.3593 54.7827C85.3394 54.7827 84.3588 55.1758 83.621 55.8803L78.3962 61.1079L59.6154 42.2695L64.8402 37.0419C65.2 36.6822 65.4854 36.2551 65.6801 35.785C65.8748 35.3149 65.975 34.811 65.975 34.3022C65.975 33.7933 65.8748 33.2894 65.6801 32.8193C65.4854 32.3492 65.2 31.9221 64.8402 31.5624L61.8859 28.6492C61.1481 27.9447 60.1674 27.5517 59.1476 27.5517C58.1277 27.5517 57.1471 27.9447 56.4093 28.6492L55.7443 29.3193L53.9442 27.5134C53.2064 26.8089 52.2257 26.4158 51.2059 26.4158C50.186 26.4158 49.2054 26.8089 48.4676 27.5134L46.6627 29.3193L43.7321 26.3776C42.9943 25.6731 42.0136 25.28 40.9938 25.28C39.9739 25.28 38.9933 25.6731 38.2555 26.3776L33.0307 31.6052C32.671 31.9649 32.3856 32.392 32.1908 32.8621C31.9961 33.3322 31.8959 33.8361 31.8959 34.3449C31.8959 34.8538 31.9961 35.3577 32.1908 35.8278C32.3856 36.2979 32.671 36.725 33.0307 37.0847L35.9661 40.0216L34.1659 41.8228C33.8062 42.1825 33.5208 42.6096 33.326 43.0797C33.1313 43.5498 33.0311 44.0537 33.0311 44.5625C33.0311 45.0714 33.1313 45.5753 33.326 46.0454C33.5208 46.5155 33.8062 46.9426 34.1659 47.3023L35.9661 49.1034L35.3201 49.7545C34.9604 50.1142 34.675 50.5413 34.4803 51.0114C34.2855 51.4815 34.1853 51.9854 34.1853 52.4942C34.1853 53.0031 34.2855 53.507 34.4803 53.9771C34.675 54.4472 34.9604 54.8743 35.3201 55.234L36.8258 56.7405C33.8538 58.1317 31.2605 60.2188 29.2654 62.8253C27.2704 65.4318 25.9324 68.4808 25.3646 71.7143C24.7969 74.9478 25.0161 78.2705 26.0038 81.4012C26.9915 84.532 28.7185 87.3785 31.0387 89.7C33.3589 92.0214 36.2039 93.7494 39.333 94.7376C42.462 95.7258 45.783 95.9451 49.0147 95.3771C52.2465 94.809 55.2939 93.4703 57.8989 91.4742C60.504 89.4781 62.5901 86.8834 63.9805 83.9097L65.4815 85.3972C66.2069 86.1199 67.1889 86.5255 68.2126 86.5255C69.2363 86.5255 70.2183 86.1199 70.9438 85.3972L71.6087 84.7319L73.4089 86.5331C73.7684 86.893 74.1953 87.1786 74.6651 87.3734C75.135 87.5682 75.6386 87.6685 76.1472 87.6685C76.6558 87.6685 77.1594 87.5682 77.6292 87.3734C78.0991 87.1786 78.5259 86.893 78.8854 86.5331L80.6856 84.7319L83.621 87.6689C83.9805 88.0288 84.4074 88.3144 84.8772 88.5092C85.3471 88.704 85.8507 88.8043 86.3593 88.8043C86.8679 88.8043 87.3715 88.704 87.8413 88.5092C88.3112 88.3144 88.7381 88.0288 89.0976 87.6689L94.3224 82.4413C94.6821 82.0816 94.9675 81.6545 95.1622 81.1844C95.3569 80.7143 95.4572 80.2104 95.4572 79.7015C95.4572 79.1927 95.3569 78.6888 95.1622 78.2187C94.9675 77.7486 94.6821 77.3215 94.3224 76.9618L91.368 74.0533ZM76.8288 62.7047L69.3573 70.1897L60.3042 61.1222C60.0714 60.8798 59.8292 60.6469 59.5917 60.4093L50.5195 51.3513L58.01 43.8758L76.8288 62.7047ZM65.8757 73.6636C65.7647 72.092 65.4714 70.5387 65.0017 69.0348L67.7519 71.7865L65.8757 73.6636ZM48.9331 52.9576L51.6832 55.7092C50.1802 55.2395 48.6277 54.946 47.0569 54.8348L48.9331 52.9576ZM34.6551 35.4594C34.3541 35.1581 34.1849 34.7496 34.1849 34.3236C34.1849 33.8975 34.3541 33.489 34.6551 33.1877L39.8799 27.9601C40.1879 27.6722 40.5937 27.512 41.0152 27.512C41.4367 27.512 41.8424 27.6722 42.1504 27.9601L45.0858 30.8971L37.5858 38.3963L34.6551 35.4594ZM35.7951 45.677C35.494 45.3757 35.3249 44.9672 35.3249 44.5411C35.3249 44.1151 35.494 43.7066 35.7951 43.4053L50.0683 29.1197C50.3762 28.8317 50.782 28.6715 51.2035 28.6715C51.625 28.6715 52.0308 28.8317 52.3387 29.1197L54.1389 30.9209L37.5858 47.4781L35.7951 45.677ZM36.9303 53.6229C36.6292 53.3217 36.4601 52.9131 36.4601 52.4871C36.4601 52.0611 36.6292 51.6525 36.9303 51.3513L58.01 30.2698C58.3179 29.9818 58.7237 29.8216 59.1452 29.8216C59.5667 29.8216 59.9725 29.9818 60.2804 30.2698L63.2158 33.2068C63.5169 33.508 63.686 33.9166 63.686 34.3426C63.686 34.7686 63.5169 35.1771 63.2158 35.4784L43.8413 54.8443C42.2257 54.9698 40.631 55.2889 39.0915 55.7947L36.9303 53.6229ZM45.537 93.3527C42.5723 93.3565 39.6518 92.6339 37.0307 91.2478C34.4096 89.8618 32.1677 87.8546 30.5008 85.4016C28.8339 82.9486 27.7929 80.1244 27.4686 77.176C27.1443 74.2275 27.5467 71.2445 28.6405 68.4875C29.7343 65.7306 31.4864 63.2836 33.7435 61.3604C36.0007 59.4373 38.6942 58.0965 41.5887 57.4552C44.4833 56.8139 47.4908 56.8917 50.3483 57.6817C53.2059 58.4717 55.8267 59.9499 57.9815 61.9871L58.713 62.7189C61.1599 65.2928 62.7974 68.5289 63.4223 72.0257C64.0472 75.5225 63.632 79.1259 62.2282 82.3886C60.8243 85.6513 58.4937 88.4297 55.5255 90.3789C52.5574 92.328 49.0825 93.3621 45.5322 93.3527H45.537ZM67.0917 83.8004L64.9067 81.6144C65.4124 80.074 65.7314 78.4785 65.8567 76.862L85.2407 57.4961C85.5486 57.2081 85.9544 57.0479 86.3759 57.0479C86.7974 57.0479 87.2032 57.2081 87.5111 57.4961L90.4465 60.4331C90.7476 60.7343 90.9167 61.1429 90.9167 61.5689C90.9167 61.9949 90.7476 62.4035 90.4465 62.7047L69.3573 83.8052C69.0494 84.0932 68.6436 84.2534 68.2221 84.2534C67.8006 84.2534 67.3948 84.0932 67.0869 83.8052L67.0917 83.8004ZM77.3038 84.9363C76.9958 85.2242 76.5901 85.3844 76.1686 85.3844C75.747 85.3844 75.3413 85.2242 75.0333 84.9363L73.2332 83.1351L89.7768 66.5779L91.577 68.379C91.878 68.6803 92.0472 69.0888 92.0472 69.5148C92.0472 69.9408 91.878 70.3494 91.577 70.6506L77.3038 84.9363ZM92.7169 80.8635L87.4921 86.0911C87.1842 86.3791 86.7784 86.5393 86.3569 86.5393C85.9354 86.5393 85.5296 86.3791 85.2217 86.0911L82.2863 83.1541L89.7578 75.6786L92.6932 78.6156C92.9942 78.9169 93.1634 79.3254 93.1634 79.7514C93.1634 80.1774 92.9942 80.586 92.6932 80.8872L92.7169 80.8635Z" fill="#263568"/>
<path d="M45.5332 95.852C40.8712 95.8523 36.3463 94.2736 32.6953 91.373C29.0443 88.4724 26.4822 84.4206 25.426 79.8774C24.3698 75.3341 24.8818 70.5669 26.8786 66.3519C28.8754 62.1369 32.2395 58.7223 36.4231 56.664L35.1549 55.3951C34.7729 55.0134 34.4698 54.56 34.263 54.0609C34.0562 53.5619 33.9498 53.0269 33.9498 52.4867C33.9498 51.9465 34.0562 51.4115 34.263 50.9125C34.4698 50.4134 34.7729 49.96 35.1549 49.5783L35.6299 49.103L34.0007 47.4682C33.6186 47.0864 33.3156 46.633 33.1088 46.134C32.902 45.6349 32.7956 45.1 32.7956 44.5598C32.7956 44.0195 32.902 43.4846 33.1088 42.9855C33.3156 42.4865 33.6186 42.0331 34.0007 41.6513L35.6299 40.0212L32.8655 37.2554C32.4834 36.8736 32.1804 36.4202 31.9736 35.9211C31.7668 35.4221 31.6604 34.8872 31.6604 34.3469C31.6604 33.8067 31.7668 33.2717 31.9736 32.7727C32.1804 32.2736 32.4834 31.8203 32.8655 31.4385L38.0903 26.2109C38.8727 25.4614 39.914 25.0431 40.9971 25.0431C42.0803 25.0431 43.1216 25.4614 43.904 26.2109L46.6684 28.9767L48.3024 27.3467C49.0848 26.5973 50.1261 26.1789 51.2093 26.1789C52.2924 26.1789 53.3337 26.5973 54.1161 27.3467L55.7453 28.9767L56.2203 28.5015C57.0027 27.7521 58.0441 27.3338 59.1272 27.3338C60.2103 27.3338 61.2517 27.7521 62.0341 28.5015L64.9695 31.4385C65.3515 31.8203 65.6546 32.2736 65.8613 32.7727C66.0681 33.2717 66.1745 33.8067 66.1745 34.3469C66.1745 34.8872 66.0681 35.4221 65.8613 35.9211C65.6546 36.4202 65.3515 36.8736 64.9695 37.2554L59.9347 42.2929L78.4162 60.7843L83.451 55.7468C84.2334 54.9974 85.2747 54.5791 86.3579 54.5791C87.441 54.5791 88.4824 54.9974 89.2648 55.7468L92.2002 58.6838C92.5822 59.0656 92.8852 59.519 93.092 60.018C93.2988 60.5171 93.4052 61.052 93.4052 61.5922C93.4052 62.1325 93.2988 62.6674 93.092 63.1665C92.8852 63.6655 92.5822 64.1189 92.2002 64.5007L91.7252 64.9759L93.3544 66.606C93.7364 66.9878 94.0395 67.4411 94.2462 67.9402C94.453 68.4393 94.5594 68.9742 94.5594 69.5144C94.5594 70.0547 94.453 70.5896 94.2462 71.0887C94.0395 71.5877 93.7364 72.0411 93.3544 72.4229L91.7252 74.0577L94.4896 76.8236C94.8716 77.2054 95.1747 77.6587 95.3814 78.1578C95.5882 78.6568 95.6946 79.1918 95.6946 79.732C95.6946 80.2723 95.5882 80.8072 95.3814 81.3062C95.1747 81.8053 94.8716 82.2587 94.4896 82.6405L89.2648 87.8681C88.8832 88.2503 88.4301 88.5535 87.9313 88.7604C87.4325 88.9673 86.8978 89.0738 86.3579 89.0738C85.8179 89.0738 85.2833 88.9673 84.7845 88.7604C84.2857 88.5535 83.8326 88.2503 83.451 87.8681L80.6866 85.1022L79.0574 86.7323C78.6758 87.1145 78.2227 87.4177 77.7239 87.6246C77.2251 87.8315 76.6905 87.938 76.1505 87.938C75.6106 87.938 75.0759 87.8315 74.5772 87.6246C74.0784 87.4177 73.6252 87.1145 73.2437 86.7323L71.6097 85.1022L71.1347 85.5774C70.7532 85.9597 70.3 86.2629 69.8012 86.4698C69.3024 86.6766 68.7678 86.7831 68.2278 86.7831C67.6879 86.7831 67.1532 86.6766 66.6545 86.4698C66.1557 86.2629 65.7025 85.9597 65.321 85.5774L64.0528 84.3085C62.3403 87.7624 59.701 90.6714 56.4304 92.71C53.1597 94.7487 49.3866 95.8366 45.5332 95.852ZM40.9924 25.517C40.0343 25.5078 39.111 25.8766 38.4227 26.5435L33.1979 31.7711C32.8597 32.1088 32.5914 32.5099 32.4083 32.9515C32.2252 33.3931 32.131 33.8665 32.131 34.3445C32.131 34.8226 32.2252 35.296 32.4083 35.7376C32.5914 36.1791 32.8597 36.5803 33.1979 36.9179L36.2996 40.0212L34.3712 41.9697C34.0329 42.3074 33.7646 42.7085 33.5815 43.1501C33.3985 43.5917 33.3042 44.0651 33.3042 44.5431C33.3042 45.0212 33.3985 45.4946 33.5815 45.9361C33.7646 46.3777 34.0329 46.7788 34.3712 47.1165L36.3376 49.084L35.5064 49.9157C35.1681 50.2534 34.8998 50.6545 34.7167 51.0961C34.5337 51.5376 34.4394 52.011 34.4394 52.4891C34.4394 52.9671 34.5337 53.4405 34.7167 53.8821C34.8998 54.3237 35.1681 54.7248 35.5064 55.0625L37.221 56.8018L36.9171 56.9444C33.9892 58.3233 31.4359 60.3869 29.4729 62.961C27.5099 65.535 26.1948 68.5438 25.6386 71.7334C25.0825 74.923 25.3016 78.1996 26.2774 81.2867C27.2533 84.3737 28.9573 87.1804 31.2455 89.4699C33.5337 91.7593 36.339 93.4642 39.4243 94.4406C42.5097 95.417 45.7846 95.6362 48.9725 95.0798C52.1603 94.5233 55.1676 93.2075 57.7402 91.2434C60.3128 89.2794 62.3753 86.7247 63.7535 83.7953L63.896 83.4911L65.6392 85.2353C65.9767 85.5737 66.3776 85.8421 66.819 86.0253C67.2603 86.2085 67.7334 86.3028 68.2112 86.3028C68.689 86.3028 69.1622 86.2085 69.6035 86.0253C70.0448 85.8421 70.4457 85.5737 70.7832 85.2353L71.6145 84.4036L73.5809 86.3711C73.9184 86.7095 74.3193 86.9779 74.7606 87.1611C75.202 87.3443 75.6751 87.4386 76.1529 87.4386C76.6307 87.4386 77.1038 87.3443 77.5452 87.1611C77.9865 86.9779 78.3874 86.7095 78.7249 86.3711L80.6914 84.4036L83.793 87.5069C84.1305 87.8453 84.5314 88.1138 84.9728 88.2969C85.4141 88.4801 85.8872 88.5744 86.365 88.5744C86.8428 88.5744 87.3159 88.4801 87.7573 88.2969C88.1986 88.1138 88.5995 87.8453 88.937 87.5069L94.1618 82.2793C94.5001 81.9416 94.7684 81.5405 94.9515 81.0989C95.1345 80.6573 95.2288 80.1839 95.2288 79.7059C95.2288 79.2278 95.1345 78.7544 94.9515 78.3129C94.7684 77.8713 94.5001 77.4702 94.1618 77.1325L91.0602 74.0292L93.0171 72.0902C93.3554 71.7525 93.6237 71.3514 93.8068 70.9098C93.9898 70.4682 94.0841 69.9949 94.0841 69.5168C94.0841 69.0387 93.9898 68.5654 93.8068 68.1238C93.6237 67.6822 93.3554 67.2811 93.0171 66.9434L91.046 64.9617L91.8772 64.13C92.2154 63.7923 92.4837 63.3912 92.6668 62.9496C92.8499 62.508 92.9441 62.0347 92.9441 61.5566C92.9441 61.0785 92.8499 60.6052 92.6668 60.1636C92.4837 59.722 92.2154 59.3209 91.8772 58.9832L88.9418 56.0462C88.2484 55.3852 87.3275 55.0165 86.3698 55.0165C85.4121 55.0165 84.4911 55.3852 83.7977 56.0462L78.4352 61.4354L59.2792 42.2691L64.6512 36.8942C64.9894 36.5565 65.2578 36.1554 65.4409 35.7138C65.6239 35.2722 65.7182 34.7988 65.7182 34.3208C65.7182 33.8427 65.6239 33.3693 65.4409 32.9278C65.2578 32.4862 64.9894 32.0851 64.6512 31.7474L61.7158 28.8152C61.0225 28.1542 60.1015 27.7855 59.1438 27.7855C58.1861 27.7855 57.2652 28.1542 56.5718 28.8152L55.7453 29.6468L53.7742 27.6793C53.0803 27.0156 52.1573 26.6451 51.1974 26.6451C50.2374 26.6451 49.3144 27.0156 48.6206 27.6793L46.6637 29.6468L43.562 26.5435C42.8737 25.8766 41.9505 25.5078 40.9924 25.517ZM45.5332 93.5899C42.5273 93.5999 39.5647 92.8725 36.9048 91.4714C34.2449 90.0703 31.9688 88.0382 30.2757 85.5531C28.5827 83.0679 27.5242 80.2054 27.193 77.2161C26.8619 74.2268 27.2681 71.2019 28.3761 68.4061C29.4841 65.6102 31.2602 63.1288 33.5489 61.1789C35.8375 59.229 38.5689 57.8701 41.5041 57.2211C44.4393 56.5722 47.4887 56.653 50.3854 57.4564C53.2822 58.2599 55.9379 59.7615 58.1202 61.8299L58.8802 62.5855C61.3549 65.1931 63.0104 68.47 63.6415 72.0101C64.2726 75.5501 63.8516 79.1976 62.4306 82.5005C61.0096 85.8034 58.6512 88.6164 55.6475 90.591C52.6439 92.5657 49.1272 93.615 45.5332 93.6089V93.5899ZM45.5332 57.2628C41.3932 57.2479 37.3748 58.6631 34.1569 61.2694C30.939 63.8756 28.7187 67.5133 27.8711 71.5679C27.0236 75.6224 27.6006 79.8454 29.5048 83.5236C31.4089 87.2018 34.5236 90.1097 38.3226 91.7562C42.1216 93.4026 46.3721 93.6868 50.3562 92.5606C54.3404 91.4343 57.8139 88.9668 60.1902 85.5748C62.5665 82.1827 63.6999 78.0741 63.3989 73.9427C63.0979 69.8114 61.381 65.9105 58.5382 62.8991L57.8115 62.172C54.4991 59.0213 50.1036 57.2639 45.5332 57.2628ZM45.5332 91.3183C42.3448 91.3183 39.228 90.3723 36.5769 88.6C33.9259 86.8276 31.8596 84.3085 30.6395 81.3613C29.4193 78.414 29.1001 75.1709 29.7221 72.042C30.3441 68.9132 31.8795 66.0392 34.134 63.7835C36.3886 61.5277 39.2611 59.9915 42.3882 59.3691C45.5153 58.7468 48.7567 59.0662 51.7024 60.287C54.6481 61.5078 57.1659 63.5752 58.9372 66.2277C60.7086 68.8802 61.6541 71.9986 61.6541 75.1888C61.6466 79.4643 59.9457 83.5625 56.9241 86.5857C53.9025 89.609 49.8064 91.3107 45.5332 91.3183ZM45.5332 59.5345C42.4388 59.5345 39.4138 60.4526 36.8408 62.1727C34.2679 63.8928 32.2625 66.3377 31.0783 69.1981C29.8941 72.0586 29.5843 75.2061 30.188 78.2428C30.7917 81.2794 32.2818 84.0687 34.4699 86.258C36.658 88.4473 39.4459 89.9382 42.4809 90.5423C45.5159 91.1463 48.6617 90.8363 51.5206 89.6514C54.3796 88.4666 56.8231 86.4602 58.5423 83.8858C60.2615 81.3115 61.1791 78.2849 61.1791 75.1888C61.1716 71.0393 59.5208 67.0619 56.5882 64.1278C53.6557 61.1937 49.6805 59.542 45.5332 59.5345ZM45.5332 89.0466C42.7939 89.0466 40.116 88.2339 37.8383 86.7112C35.5606 85.1884 33.7854 83.0241 32.7371 80.4919C31.6888 77.9597 31.4145 75.1734 31.9489 72.4852C32.4833 69.797 33.8024 67.3278 35.7395 65.3897C37.6765 63.4517 40.1444 62.1318 42.8311 61.5971C45.5179 61.0624 48.3027 61.3369 50.8336 62.3857C53.3644 63.4346 55.5276 65.2108 57.0495 67.4897C58.5714 69.7686 59.3837 72.4479 59.3837 75.1888C59.3799 78.8634 57.9196 82.3865 55.3231 84.9853C52.7266 87.5841 49.2059 89.0464 45.5332 89.0514V89.0466ZM45.5332 61.8013C42.8878 61.8013 40.3018 62.5862 38.1022 64.0567C35.9026 65.5272 34.1882 67.6173 33.1759 70.0627C32.1635 72.508 31.8986 75.1988 32.4147 77.7948C32.9308 80.3908 34.2047 82.7754 36.0753 84.647C37.9459 86.5186 40.3292 87.7931 42.9238 88.3095C45.5184 88.8259 48.2078 88.5609 50.6518 87.548C53.0958 86.5351 55.1848 84.8198 56.6545 82.619C58.1242 80.4182 58.9087 77.8308 58.9087 75.184C58.9024 71.6371 57.4911 68.2373 54.9839 65.7297C52.4767 63.222 49.0783 61.8111 45.5332 61.8061V61.8013ZM86.3816 86.756C85.8958 86.7607 85.4279 86.5727 85.0802 86.2332L81.9786 83.13L89.7873 75.3171L92.8889 78.4204C93.2335 78.766 93.427 79.2343 93.427 79.7225C93.427 80.2107 93.2335 80.679 92.8889 81.0247L87.6641 86.2523C87.3176 86.5831 86.8558 86.7655 86.3769 86.7608L86.3816 86.756ZM82.6483 83.13L85.4127 85.8958C85.6759 86.139 86.021 86.274 86.3793 86.274C86.7375 86.274 87.0826 86.139 87.3459 85.8958L92.5707 80.6682C92.8268 80.4116 92.9706 80.0638 92.9706 79.7011C92.9706 79.3385 92.8268 78.9906 92.5707 78.734L89.8063 75.9681L82.6483 83.13ZM76.1695 85.625C75.6837 85.6296 75.2158 85.4417 74.8681 85.1022L72.9017 83.1347L89.7778 66.2448L91.7442 68.2123C92.0888 68.5579 92.2823 69.0262 92.2823 69.5144C92.2823 70.0026 92.0888 70.4709 91.7442 70.8166L77.4662 85.1022C77.1197 85.4405 76.6537 85.6284 76.1695 85.625ZM73.5714 83.1347L75.2006 84.7695C75.4638 85.0127 75.8089 85.1477 76.1672 85.1477C76.5254 85.1477 76.8705 85.0127 77.1338 84.7695L91.4117 70.4839C91.6678 70.2273 91.8117 69.8795 91.8117 69.5168C91.8117 69.1541 91.6678 68.8063 91.4117 68.5497L89.7825 66.9149L73.5714 83.1347ZM45.5475 84.5081C43.7045 84.5119 41.9017 83.9685 40.3675 82.9468C38.8333 81.9251 37.6365 80.4709 36.9286 78.7683C36.2207 77.0658 36.0335 75.1913 36.3907 73.3823C36.748 71.5733 37.6336 69.9109 38.9355 68.6057C40.2374 67.3005 41.897 66.411 43.7043 66.0499C45.5117 65.6887 47.3854 65.8722 49.0885 66.577C50.7916 67.2818 52.2475 68.4762 53.2718 70.0092C54.2961 71.5422 54.8429 73.3447 54.8429 75.1888C54.8404 77.6588 53.8589 80.0271 52.1136 81.7741C50.3684 83.5211 48.002 84.5044 45.5332 84.5081H45.5475ZM45.5475 66.3446C43.7984 66.3408 42.0875 66.8563 40.6314 67.8259C39.1753 68.7954 38.0393 70.1753 37.3674 71.791C36.6954 73.4068 36.5177 75.1856 36.8566 76.9025C37.1955 78.6193 38.0359 80.197 39.2713 81.4358C40.5068 82.6745 42.0818 83.5188 43.797 83.8616C45.5122 84.2044 47.2905 84.0303 48.9068 83.3615C50.5231 82.6927 51.9047 81.5591 52.8768 80.1043C53.849 78.6494 54.3679 76.9388 54.3679 75.1888C54.3654 72.8447 53.4339 70.5974 51.7778 68.9394C50.1216 67.2815 47.876 66.3484 45.5332 66.3446H45.5475ZM68.2373 84.4891C67.7515 84.4938 67.2836 84.3059 66.9359 83.9664L64.6465 81.6757L64.694 81.5379C65.1959 80.021 65.5149 78.4495 65.6439 76.8568V76.7713L85.0802 57.3246C85.4326 56.9931 85.898 56.8086 86.3816 56.8086C86.8653 56.8086 87.3307 56.9931 87.6831 57.3246L90.6185 60.2616C90.9631 60.6072 91.1566 61.0755 91.1566 61.5637C91.1566 62.0519 90.9631 62.5202 90.6185 62.8659L69.5198 83.9711C69.1725 84.3077 68.7066 84.4938 68.2231 84.4891H68.2373ZM67.2874 83.6337C67.5506 83.8769 67.8957 84.0119 68.254 84.0119C68.6122 84.0119 68.9573 83.8769 69.2206 83.6337L90.3097 62.5332C90.5659 62.2766 90.7097 61.9288 90.7097 61.5661C90.7097 61.2034 90.5659 60.8556 90.3097 60.599L87.3744 57.662C87.1111 57.4189 86.766 57.2839 86.4078 57.2839C86.0495 57.2839 85.7044 57.4189 85.4412 57.662L66.0952 76.9851C65.9618 78.5359 65.6526 80.0665 65.1737 81.5474L67.2874 83.6337ZM45.5332 82.2365C44.1401 82.2365 42.7782 81.8232 41.6198 81.0488C40.4614 80.2743 39.5586 79.1736 39.0254 77.8858C38.4923 76.598 38.3528 75.1809 38.6246 73.8138C38.8964 72.4467 39.5673 71.1909 40.5524 70.2052C41.5375 69.2196 42.7926 68.5484 44.159 68.2764C45.5254 68.0045 46.9417 68.144 48.2288 68.6775C49.516 69.2109 50.6161 70.1142 51.3901 71.2732C52.1641 72.4322 52.5772 73.7948 52.5772 75.1888C52.5747 77.0572 51.8317 78.8483 50.5113 80.1695C49.1908 81.4907 47.4006 82.234 45.5332 82.2365ZM45.5332 68.6162C44.234 68.6162 42.9639 69.0017 41.8837 69.7239C40.8034 70.4461 39.9615 71.4726 39.4643 72.6736C38.9671 73.8745 38.837 75.196 39.0904 76.471C39.3439 77.7459 39.9696 78.917 40.8882 79.8362C41.8069 80.7554 42.9774 81.3814 44.2517 81.635C45.5259 81.8886 46.8467 81.7584 48.0471 81.261C49.2474 80.7635 50.2733 79.9211 50.9951 78.8403C51.717 77.7594 52.1022 76.4887 52.1022 75.1888C52.0997 73.4464 51.4068 71.7761 50.1754 70.5441C48.944 69.312 47.2747 68.6187 45.5332 68.6162ZM65.6819 74.1955L65.6439 73.6775C65.5303 72.1249 65.237 70.5907 64.77 69.1057L64.4755 68.1553L68.0854 71.7671L65.6819 74.1955ZM65.492 69.8518C65.7739 70.9275 65.9693 72.0241 66.0762 73.131L67.4251 71.7813L65.492 69.8518ZM69.3631 70.5124L60.1389 61.2881C59.9062 61.041 59.6639 60.8128 59.4312 60.58L50.2023 51.3509L58.011 43.538L77.167 62.7043L69.3631 70.5124ZM50.8768 51.3509L59.7589 60.2426C60.0012 60.4754 60.2339 60.7178 60.4761 60.9602L69.3583 69.8471L76.483 62.7185L58.011 44.2128L50.8768 51.3509ZM52.544 56.2268L51.594 55.9322C50.1078 55.4681 48.5729 55.1778 47.0199 55.0672L46.5022 55.0292L48.9341 52.6055L52.544 56.2268ZM47.5851 54.6395C48.6915 54.7463 49.7874 54.9418 50.8625 55.2241L48.9341 53.2899L47.5851 54.6395ZM39.0355 56.0652L36.7461 53.7888C36.5747 53.6176 36.4388 53.4142 36.3461 53.1904C36.2533 52.9666 36.2056 52.7266 36.2056 52.4843C36.2056 52.242 36.2533 52.0021 36.3461 51.7782C36.4388 51.5544 36.5747 51.351 36.7461 51.1798L57.8352 30.0793C58.1876 29.7478 58.653 29.5633 59.1367 29.5633C59.6203 29.5633 60.0858 29.7478 60.4381 30.0793L63.3735 33.0163C63.7181 33.3619 63.9116 33.8302 63.9116 34.3184C63.9116 34.8066 63.7181 35.2749 63.3735 35.6206L43.9468 55.072H43.8708C42.279 55.2013 40.7084 55.5204 39.1922 56.0225L39.0355 56.0652ZM37.0833 53.4419L39.1637 55.5235C40.6438 55.0443 42.1736 54.735 43.7235 54.6015L63.0458 35.2926C63.3019 35.036 63.4458 34.6882 63.4458 34.3255C63.4458 33.9629 63.3019 33.615 63.0458 33.3584L60.1104 30.4215C59.842 30.189 59.4988 30.0611 59.1438 30.0611C58.7888 30.0611 58.4457 30.189 58.1772 30.4215L37.088 51.522C36.8319 51.7786 36.6881 52.1264 36.6881 52.4891C36.6881 52.8517 36.8319 53.1996 37.088 53.4562L37.0833 53.4419ZM37.5583 47.8009L35.5919 45.8334C35.2473 45.4877 35.0538 45.0194 35.0538 44.5312C35.0538 44.043 35.2473 43.5748 35.5919 43.2291L49.9031 28.9482C50.2554 28.6168 50.7209 28.4322 51.2045 28.4322C51.6882 28.4322 52.1536 28.6168 52.506 28.9482L54.4724 30.9157L37.5583 47.8009ZM35.9243 45.496L37.5583 47.126L53.8027 30.9205L52.1687 29.2856C51.9003 29.0532 51.5571 28.9253 51.2021 28.9253C50.8471 28.9253 50.504 29.0532 50.2355 29.2856L35.9576 43.576C35.7015 43.8326 35.5576 44.1805 35.5576 44.5431C35.5576 44.9058 35.7015 45.2536 35.9576 45.5102L35.9243 45.496ZM37.5915 38.7286L34.4899 35.6253C34.1453 35.2796 33.9518 34.8114 33.9518 34.3232C33.9518 33.8349 34.1453 33.3667 34.4899 33.021L39.7147 27.7934C40.0671 27.4619 40.5325 27.2774 41.0161 27.2774C41.4998 27.2774 41.9652 27.4619 42.3176 27.7934L45.4192 30.8967L37.5915 38.7286ZM34.8461 35.2926L37.6105 38.0585L44.7353 30.93L41.9709 28.1498C41.7024 27.9174 41.3593 27.7895 41.0043 27.7895C40.6493 27.7895 40.3061 27.9174 40.0377 28.1498L34.8129 33.3774C34.5568 33.6341 34.4129 33.9819 34.4129 34.3445C34.4129 34.7072 34.5568 35.055 34.8129 35.3116L34.8461 35.2926Z" fill="#263568"/>
</g>
<path class="icon-fill" d="M17.1015 14.5162L20.9312 12.9623V19.5695C20.9604 20.112 21.1964 20.6227 21.5908 20.9964C21.9851 21.3701 22.5077 21.5784 23.051 21.5784C23.5943 21.5784 24.1169 21.3701 24.5113 20.9964C24.9056 20.6227 25.1417 20.112 25.1708 19.5695V9.78101C25.1701 9.43384 25.0842 9.09214 24.9208 8.78587C24.7573 8.47959 24.5212 8.21808 24.2332 8.02426C23.9452 7.83043 23.614 7.7102 23.2687 7.6741C22.9234 7.638 22.5745 7.68714 22.2527 7.8172L18.4229 9.37112V2.7945C18.4384 2.50654 18.395 2.21845 18.2955 1.9478C18.196 1.67716 18.0423 1.42963 17.844 1.22032C17.6456 1.01101 17.4067 0.844305 17.1417 0.730383C16.8768 0.616462 16.5915 0.557709 16.3031 0.557709C16.0147 0.557709 15.7294 0.616462 15.4645 0.730383C15.1996 0.844305 14.9606 1.01101 14.7623 1.22032C14.5639 1.42963 14.4103 1.67716 14.3107 1.9478C14.2112 2.21845 14.1678 2.50654 14.1833 2.7945V12.583C14.189 12.9275 14.2784 13.2655 14.444 13.5678C14.6095 13.87 14.8462 14.1275 15.1335 14.3178C15.4208 14.5081 15.7501 14.6256 16.093 14.6602C16.4358 14.6948 16.782 14.6453 17.1015 14.5162Z"/>
<path class="icon-fill" d="M7.98598 31.958C8.2335 32.2033 8.53761 32.384 8.87147 32.4839C9.20532 32.5839 9.55865 32.6001 9.90027 32.5312C10.2419 32.4623 10.5613 32.3103 10.8302 32.0887C11.0992 31.8671 11.3095 31.5827 11.4425 31.2606L13.0515 27.4553L17.7255 32.1293C17.9181 32.3442 18.1524 32.5175 18.4143 32.6388C18.6761 32.76 18.9599 32.8266 19.2483 32.8345C19.5368 32.8424 19.8238 32.7914 20.0918 32.6846C20.3599 32.5778 20.6034 32.4175 20.8074 32.2135C21.0114 32.0095 21.1717 31.766 21.2785 31.4979C21.3853 31.2299 21.4363 30.9429 21.4284 30.6544C21.4205 30.366 21.3539 30.0822 21.2327 29.8204C21.1114 29.5585 20.9381 29.3242 20.7232 29.1316L13.8162 22.2491C13.5703 22.0044 13.2683 21.8237 12.9364 21.7228C12.6045 21.622 12.253 21.6039 11.9125 21.6703C11.5721 21.7367 11.2531 21.8855 10.9834 22.1037C10.7138 22.322 10.5017 22.6029 10.3658 22.922L8.75682 26.7334L4.08895 22.0839C3.89909 21.8628 3.66574 21.6832 3.40345 21.5562C3.14115 21.4293 2.85552 21.3577 2.56435 21.3459C2.27317 21.3341 1.98269 21.3824 1.71099 21.4877C1.43929 21.5931 1.19219 21.7533 0.985082 21.9583C0.777973 22.1633 0.615289 22.4087 0.507162 22.6793C0.399035 22.9499 0.347781 23.2399 0.356592 23.5312C0.365403 23.8225 0.43409 24.1088 0.558375 24.3724C0.68266 24.636 0.859882 24.8712 1.079 25.0633L7.98598 31.958Z"/>
<path class="icon-fill" d="M97.6849 12.5524V2.76392C97.7004 2.47596 97.6571 2.18787 97.5575 1.91723C97.458 1.64658 97.3043 1.39905 97.106 1.18974C96.9076 0.980427 96.6687 0.813726 96.4038 0.699805C96.1388 0.585883 95.8535 0.52713 95.5651 0.52713C95.2768 0.52713 94.9914 0.585883 94.7265 0.699805C94.4616 0.813726 94.2226 0.980427 94.0243 1.18974C93.8259 1.39905 93.6723 1.64658 93.5727 1.91723C93.4732 2.18787 93.4298 2.47596 93.4453 2.76392V9.37113L89.6156 7.81721C89.2937 7.68715 88.9448 7.63801 88.5995 7.67411C88.2542 7.71021 87.9231 7.83044 87.635 8.02427C87.347 8.21809 87.1109 8.4796 86.9475 8.78588C86.784 9.09215 86.6981 9.43385 86.6974 9.78102V19.5695C86.6819 19.8574 86.7253 20.1455 86.8248 20.4162C86.9244 20.6868 87.078 20.9343 87.2764 21.1437C87.4747 21.353 87.7137 21.5197 87.9786 21.6336C88.2435 21.7475 88.5288 21.8063 88.8172 21.8063C89.1056 21.8063 89.3909 21.7475 89.6559 21.6336C89.9208 21.5197 90.1597 21.353 90.3581 21.1437C90.5564 20.9343 90.7101 20.6868 90.8096 20.4162C90.9091 20.1455 90.9525 19.8574 90.937 19.5695V12.9561L94.7668 14.5101C95.0882 14.6399 95.4365 14.6891 95.7813 14.6533C96.1261 14.6175 96.4569 14.4979 96.7448 14.3047C97.0326 14.1116 97.2688 13.8509 97.4327 13.5455C97.5966 13.24 97.6832 12.899 97.6849 12.5524Z"/>
<path class="icon-fill" d="M110.777 25.0633C111.139 24.6589 111.333 24.1311 111.318 23.5884C111.303 23.0456 111.081 22.5292 110.697 22.1453C110.313 21.7613 109.797 21.5391 109.254 21.5243C108.711 21.5095 108.184 21.7032 107.779 22.0655L103.105 26.7395L101.496 22.9343C101.36 22.6151 101.148 22.3342 100.879 22.116C100.609 21.8978 100.29 21.7489 99.9496 21.6825C99.6091 21.6161 99.2576 21.6342 98.9257 21.7351C98.5938 21.836 98.2917 22.0167 98.0459 22.2613L91.145 29.1499C90.9301 29.3425 90.7568 29.5769 90.6355 29.8387C90.5143 30.1006 90.4477 30.3844 90.4398 30.6728C90.4319 30.9612 90.4829 31.2482 90.5897 31.5163C90.6965 31.7844 90.8568 32.0278 91.0608 32.2319C91.2648 32.4359 91.5083 32.5962 91.7764 32.703C92.0444 32.8097 92.3314 32.8607 92.6199 32.8528C92.9083 32.845 93.1921 32.7784 93.4539 32.6571C93.7158 32.5359 93.9501 32.3625 94.1427 32.1477L98.8167 27.4737L100.426 31.2606C100.562 31.5797 100.774 31.8607 101.043 32.0789C101.313 32.2971 101.632 32.4459 101.972 32.5123C102.313 32.5787 102.664 32.5607 102.996 32.4598C103.328 32.3589 103.63 32.1782 103.876 31.9335L110.777 25.0633Z"/>
<defs>
<clipPath id="clip0">
<rect x="24.8701" y="25.0417" width="70.8198" height="70.8198" fill="white"/>
</clipPath>
</defs>
</svg>