<svg width="112" height="105" viewBox="0 0 112 105" fill="none" xmlns="http://www.w3.org/2000/svg">
<style>.icon-fill {opacity: 0.24; fill: #AAAAAA; transition: 0.3s all;} .icon-fill.hovered {opacity: 1; fill: #C0001F;}</style>
<g clip-path="url(#clip0)">
<path d="M63.3619 81.8548C65.9402 81.2747 68.288 79.9452 70.1083 78.0344C71.9287 76.1237 73.1398 73.7177 73.5885 71.1206C73.6106 70.9364 73.6942 70.765 73.8257 70.6339C73.9573 70.5028 74.1291 70.4195 74.3138 70.3973C75.5513 70.34 76.7484 69.9408 77.7715 69.2443C78.7945 68.5477 79.6032 67.5813 80.1071 66.4529C80.5973 65.3471 80.7841 64.1313 80.6483 62.9299C80.5124 61.7286 80.0589 60.5847 79.334 59.6155V52.8067C79.3277 48.8036 78.278 44.8708 76.2877 41.3941C74.2975 37.9175 71.4351 35.0163 67.9813 32.9751C67.2009 30.114 65.4981 27.5885 63.1355 25.7879C60.773 23.9873 57.8819 23.0118 54.9082 23.0118C51.9345 23.0118 49.0434 23.9873 46.6808 25.7879C44.3183 27.5885 42.6155 30.114 41.8351 32.9751C38.3739 35.0112 35.5036 37.9102 33.5064 41.3873C31.5093 44.8644 30.4539 48.7998 30.4442 52.8067V59.6155C29.7193 60.5847 29.2658 61.7286 29.1299 62.9299C28.9941 64.1313 29.1809 65.3471 29.6711 66.4529C30.1801 67.5911 30.999 68.5641 32.0349 69.2614C33.0708 69.9587 34.2822 70.3522 35.5312 70.3973C35.7063 70.43 35.8663 70.5179 35.9875 70.6481C36.1086 70.7783 36.1846 70.944 36.2041 71.1206C36.6528 73.7177 37.8639 76.1237 39.6842 78.0344C41.5046 79.9452 43.8523 81.2747 46.4306 81.8548C46.7239 81.9135 46.9959 82.0499 47.218 82.2497C47.4151 82.4595 47.6238 82.658 47.8431 82.8444C47.696 83.2226 47.5255 83.5912 47.3325 83.9483H42.6893C39.4451 83.9458 36.3326 85.228 34.0363 87.5131C31.7401 89.7982 30.448 92.899 30.4442 96.1337V100.197C30.4442 101.275 30.8735 102.308 31.6378 103.07C32.4021 103.832 33.4387 104.261 34.5195 104.261H75.2587C76.3395 104.261 77.3761 103.832 78.1404 103.07C78.9047 102.308 79.334 101.275 79.334 100.197V96.1337C79.3302 92.9031 78.0414 89.8059 75.7503 87.5215C73.4592 85.2371 70.3529 83.9521 67.1128 83.9483H62.4552C62.2623 83.5912 62.0918 83.2226 61.9446 82.8444C62.1655 82.6597 62.3758 82.4627 62.5745 82.2544C62.796 82.0528 63.0681 81.9147 63.3619 81.8548ZM54.8867 25.7286C56.8112 25.7386 58.6989 26.2551 60.3589 27.2259C62.0188 28.1968 63.3923 29.5875 64.3402 31.2574C61.746 30.2873 58.9983 29.7893 56.2277 29.7872H53.5315C50.7608 29.7893 48.0131 30.2873 45.4189 31.2574C46.3681 29.5854 47.7437 28.1933 49.4065 27.2224C51.0692 26.2514 52.9598 25.736 54.8867 25.7286ZM33.1452 52.8067C33.1427 50.1374 33.6684 47.4938 34.6921 45.0273C35.7159 42.5609 37.2177 40.32 39.1114 38.4332C41.0052 36.5464 43.2536 35.0506 45.7281 34.0315C48.2025 33.0124 50.8543 32.4902 53.5315 32.4945H56.2468C58.9219 32.4927 61.5713 33.0166 64.0432 34.0365C66.5151 35.0564 68.7611 36.5522 70.6527 38.4383C72.5444 40.3244 74.0445 42.5638 75.0674 45.0284C76.0903 47.4931 76.6158 50.1346 76.6139 52.802V57.4363C75.7579 57.0617 74.8335 56.8673 73.8986 56.8654V52.7544C73.9252 50.6991 73.4282 48.6706 72.4542 46.859C71.4802 45.0474 70.061 43.5118 68.3296 42.3961C66.4147 41.1952 64.1911 40.5749 61.9292 40.6103C59.6672 40.6458 57.4643 41.3356 55.5882 42.5959L55.4594 42.6816C55.2896 42.7939 55.0904 42.8538 54.8867 42.8538C54.683 42.8538 54.4838 42.7939 54.3141 42.6816C52.5443 41.4732 50.4772 40.7695 48.3358 40.6463C46.1945 40.523 44.0599 40.985 42.1625 41.9824C40.265 42.9797 38.6767 44.4746 37.5686 46.3058C36.4606 48.137 35.8749 50.2351 35.8748 52.3738V56.8701C34.935 56.8693 34.0054 57.0637 33.1452 57.4411V52.8067ZM42.6893 101.548V94.7777C42.6688 94.4326 42.5168 94.1083 42.2644 93.8711C42.0121 93.634 41.6784 93.5019 41.3317 93.5019C40.9849 93.5019 40.6512 93.634 40.3989 93.8711C40.1465 94.1083 39.9945 94.4326 39.974 94.7777V101.548H34.5195C34.3397 101.55 34.1613 101.517 33.9947 101.449C33.828 101.382 33.6764 101.282 33.5486 101.156C33.4208 101.03 33.3193 100.88 33.2501 100.715C33.1808 100.549 33.1452 100.372 33.1452 100.192V96.129C33.147 94.8819 33.3955 93.6473 33.8763 92.496C34.3572 91.3447 35.0609 90.2992 35.9474 89.4194C36.8338 88.5395 37.8855 87.8425 39.0424 87.3683C40.1992 86.8941 41.4385 86.6519 42.6893 86.6557H46.7933C46.903 89.6009 47.428 96.6476 49.814 101.548H42.6893ZM49.4656 85.6279C49.722 85.2 49.9546 84.7585 50.1624 84.3052C51.6517 84.9629 53.2626 85.3027 54.8915 85.3027C56.5204 85.3027 58.1313 84.9629 59.6206 84.3052C59.8284 84.7585 60.061 85.2 60.3173 85.6279C60.3173 86.1323 60.2744 87.2219 60.1646 88.6493C56.7137 89.5986 53.0693 89.5986 49.6184 88.6493C49.5086 87.2219 49.4752 86.1323 49.4656 85.6279ZM56.8719 101.548H52.9015C51.2275 98.447 50.2077 95.0369 49.9047 91.5279C53.1853 92.2464 56.5833 92.2464 59.864 91.5279C59.5625 95.0366 58.5442 98.4467 56.8719 101.548ZM63.004 86.6557H67.108C69.6283 86.6582 72.0448 87.6576 73.8269 89.4345C75.6091 91.2115 76.6114 93.6208 76.6139 96.1337V100.197C76.6139 100.557 76.4707 100.902 76.2156 101.156C75.9605 101.41 75.6146 101.553 75.2539 101.553H69.8233V94.7777C69.8028 94.4326 69.6508 94.1083 69.3984 93.8711C69.1461 93.634 68.8124 93.5019 68.4656 93.5019C68.1189 93.5019 67.7852 93.634 67.5329 93.8711C67.2805 94.1083 67.1285 94.4326 67.108 94.7777V101.548H59.9833C62.3693 96.6619 62.8942 89.6009 63.004 86.6557ZM60.5798 80.4131C59.8262 81.1388 58.9337 81.7058 57.9556 82.0802C56.9775 82.4546 55.9338 82.6288 54.8867 82.5923C53.8393 82.6281 52.7954 82.4532 51.8173 82.078C50.8391 81.7028 49.9468 81.1349 49.1936 80.4083C48.629 79.8272 47.9082 79.4208 47.1178 79.2378C45.0389 78.7837 43.1434 77.7209 41.6742 76.1857C40.205 74.6505 39.2292 72.7128 38.8717 70.621C38.7431 69.8401 38.3535 69.1255 37.7661 68.5934C37.1787 68.0613 36.4281 67.7429 35.6362 67.69C34.9059 67.6656 34.1968 67.4391 33.5883 67.0357C32.9798 66.6323 32.4959 66.0681 32.1908 65.4061C31.854 64.6821 31.7356 63.8761 31.85 63.0863C31.9644 62.2964 32.3066 61.5567 32.835 60.9573C33.2162 60.5251 33.6853 60.1786 34.211 59.9407C34.7367 59.7028 35.307 59.579 35.8843 59.5775L38.5949 54.1818V52.3738C38.595 50.7248 39.0475 49.1073 39.9034 47.6964C40.7592 46.2854 41.9858 45.1347 43.4504 44.3688C44.9149 43.6029 46.5617 43.2509 48.2124 43.3511C49.8632 43.4512 51.455 43.9996 52.8156 44.9369C53.4301 45.344 54.1514 45.5612 54.8891 45.5612C55.6268 45.5612 56.3481 45.344 56.9626 44.9369L57.0962 44.8512C58.5412 43.8831 60.2368 43.3539 61.9776 43.3277C63.7183 43.3015 65.4292 43.7795 66.9028 44.7037C68.2429 45.573 69.3399 46.7672 70.091 48.1744C70.8422 49.5815 71.2229 51.1558 71.1976 52.7496V54.1771L73.8986 59.5775C74.4759 59.579 75.0463 59.7028 75.572 59.9407C76.0977 60.1786 76.5667 60.5251 76.948 60.9573C77.4766 61.5565 77.8194 62.2959 77.9346 63.0857C78.0498 63.8754 77.9325 64.6816 77.597 65.4061C77.2869 66.0749 76.7955 66.6441 76.1783 67.0493C75.5611 67.4545 74.8426 67.6797 74.1038 67.6995C73.3189 67.7588 72.5767 68.0796 71.9968 68.6103C71.4168 69.1411 71.0328 69.851 70.9066 70.6257C70.5487 72.7197 69.5709 74.659 68.0989 76.1946C66.6269 77.7301 64.7279 78.7916 62.6461 79.2426C61.8593 79.4277 61.1422 79.834 60.5798 80.4131Z" fill="#263568"/>
<path d="M75.2581 104.492H34.5189C33.3799 104.492 32.2875 104.041 31.482 103.238C30.6766 102.435 30.2241 101.346 30.2241 100.21V96.1464C30.2291 92.8509 31.5437 89.6917 33.8799 87.3606C36.2161 85.0295 39.3836 83.7163 42.6887 83.7088H47.1936C47.3272 83.4519 47.4513 83.1854 47.5658 82.9142C47.3844 82.7572 47.2126 82.5859 47.0504 82.4098C46.8615 82.246 46.6328 82.1345 46.3871 82.0863C43.7557 81.5025 41.3589 80.1493 39.5031 78.1999C37.6474 76.2504 36.4171 73.7932 35.9697 71.1427C35.9585 71.0149 35.9059 70.8943 35.8198 70.799C35.7337 70.7036 35.6188 70.6389 35.4924 70.6146C34.2053 70.5699 32.9567 70.1651 31.8893 69.4466C30.8219 68.7281 29.9786 67.7248 29.4558 66.5512C28.9532 65.4184 28.7578 64.1739 28.8893 62.9422C29.0208 61.7105 29.4745 60.5349 30.205 59.533V52.8051C30.2235 48.7777 31.2827 44.823 33.2804 41.3226C35.2782 37.8221 38.1471 34.8942 41.6102 32.8212C42.42 29.9307 44.1562 27.3839 46.5538 25.5695C48.9513 23.7552 51.8786 22.773 54.8885 22.773C57.8985 22.773 60.8257 23.7552 63.2233 25.5695C65.6209 27.3839 67.3571 29.9307 68.1668 32.8212C71.6297 34.8945 74.4983 37.8226 76.496 41.3229C78.4937 44.8232 79.5531 48.7778 79.572 52.8051V59.533C80.3025 60.5349 80.7562 61.7105 80.8877 62.9422C81.0192 64.1739 80.8239 65.4184 80.3213 66.5512C79.8036 67.7224 78.9673 68.7255 77.9071 69.4471C76.8469 70.1686 75.6052 70.5797 74.3228 70.6336C74.1986 70.6572 74.0853 70.7198 73.9994 70.8123C73.9135 70.9048 73.8596 71.0222 73.8456 71.1475C73.3982 73.7965 72.1691 76.2524 70.3153 78.2017C68.4614 80.1509 66.067 81.505 63.4377 82.091C63.1855 82.1409 62.9514 82.2576 62.76 82.4289C62.6073 82.5906 62.4355 82.7572 62.259 82.9047C62.3687 83.1759 62.4928 83.4423 62.6312 83.6993H67.1408C70.4427 83.7081 73.6068 85.0198 75.9415 87.3477C78.2763 89.6756 79.5919 92.8304 79.6007 96.1226V100.186C79.6039 100.754 79.4936 101.318 79.2762 101.843C79.0588 102.369 78.7386 102.846 78.3344 103.246C77.9302 103.647 77.45 103.964 76.9219 104.178C76.3937 104.391 75.8281 104.498 75.2581 104.492ZM42.6887 84.1846C39.5093 84.1871 36.4605 85.4459 34.21 87.6853C31.9596 89.9246 30.691 92.962 30.6822 96.1321V100.196C30.6822 101.205 31.0844 102.173 31.8004 102.887C32.5163 103.601 33.4874 104.002 34.4999 104.002H75.2581C76.2706 104.002 77.2416 103.601 77.9576 102.887C78.6735 102.173 79.0757 101.205 79.0757 100.196V96.1321C79.0669 92.9661 77.8016 89.9324 75.5564 87.6937C73.3111 85.455 70.2684 84.1934 67.0931 84.1846H62.321L62.2542 84.0609C62.0563 83.696 61.881 83.3195 61.7293 82.9332L61.6672 82.7762L61.7961 82.6668C62.0102 82.4863 62.2141 82.2941 62.4069 82.091C62.6627 81.8515 62.9797 81.6869 63.3231 81.6152C65.8545 81.0479 68.1592 79.7422 69.9438 77.8645C71.7284 75.9869 72.9123 73.6221 73.3445 71.0714C73.3748 70.8368 73.4828 70.619 73.6514 70.4526C73.82 70.2863 74.0395 70.1808 74.275 70.153C75.4724 70.1043 76.6321 69.7217 77.6224 69.0489C78.6127 68.3761 79.3939 67.4399 79.8774 66.3466C80.3499 65.2792 80.53 64.106 80.3992 62.9466C80.2684 61.7872 79.8315 60.6832 79.133 59.7471L79.0853 59.6853V52.8051C79.0679 48.8441 78.023 44.9549 76.0521 41.5156C74.0811 38.0764 71.2512 35.2041 67.8375 33.1781L67.7564 33.1305L67.7325 33.0353C66.9651 30.2257 65.2922 27.7457 62.9715 25.9777C60.6509 24.2097 57.8114 23.2519 54.8909 23.2519C51.9704 23.2519 49.1309 24.2097 46.8103 25.9777C44.4896 27.7457 42.8167 30.2257 42.0493 33.0353L42.0254 33.1305L41.9443 33.1781C38.5276 35.202 35.6946 38.0734 33.721 41.5129C31.7475 44.9523 30.7006 48.8426 30.6822 52.8051V59.69L30.6345 59.7519C29.9351 60.6884 29.4977 61.7933 29.3669 62.9537C29.2361 64.114 29.4166 65.2881 29.89 66.3561C30.3762 67.4533 31.1619 68.392 32.1577 69.0651C33.1534 69.7382 34.3189 70.1185 35.5211 70.1626C35.7553 70.1995 35.9706 70.313 36.133 70.4853C36.2954 70.6576 36.3957 70.8788 36.4182 71.1142C36.8533 73.6617 38.0385 76.0226 39.8229 77.8968C41.6074 79.7709 43.9106 81.0735 46.4396 81.639C46.7738 81.7071 47.0835 81.8632 47.3367 82.091C47.5325 82.2989 47.7396 82.4958 47.9571 82.681L48.0859 82.7905L48.0239 82.9475C47.8722 83.3337 47.6969 83.7103 47.499 84.0752L47.4322 84.1989L42.6887 84.1846ZM75.2772 101.789H69.5841V94.7761C69.5655 94.4927 69.4396 94.2271 69.2317 94.033C69.0239 93.8388 68.7498 93.7308 68.465 93.7308C68.1803 93.7308 67.9062 93.8388 67.6984 94.033C67.4905 94.2271 67.3646 94.4927 67.346 94.7761V101.761H59.6009L59.768 101.418C62.154 96.5366 62.6598 89.4423 62.7648 86.6207V86.3923H67.0979C69.6799 86.3999 72.1541 87.4259 73.98 89.2464C75.8058 91.0669 76.8349 93.5338 76.8424 96.1083V100.172C76.8412 100.591 76.6742 100.993 76.3776 101.291C76.081 101.588 75.6788 101.757 75.2581 101.761L75.2772 101.789ZM70.0852 101.314H75.2581C75.5555 101.314 75.8408 101.196 76.0511 100.986C76.2614 100.776 76.3795 100.492 76.3795 100.196V96.1321C76.3732 93.6834 75.3948 91.3368 73.6582 89.6053C71.9216 87.8738 69.5681 86.8982 67.1122 86.8919H63.2325C63.1084 89.8134 62.5835 96.4937 60.3692 101.309H66.8688V94.7761C66.8911 94.369 67.069 93.9859 67.3659 93.7057C67.6628 93.4254 68.0562 93.2692 68.465 93.2692C68.8739 93.2692 69.2673 93.4254 69.5642 93.7057C69.8611 93.9859 70.039 94.369 70.0613 94.7761L70.0852 101.314ZM57.0049 101.761H52.7626L52.6958 101.637C51.0039 98.5092 49.9756 95.0675 49.675 91.5263L49.6464 91.2028L49.9614 91.2741C53.208 91.98 56.5691 91.98 59.8157 91.2741L60.1306 91.2028L60.102 91.5263C59.8014 95.0675 58.7732 98.5092 57.0813 101.637L57.0049 101.761ZM53.0393 101.285H56.7186C58.2877 98.3421 59.2606 95.1199 59.5818 91.8023C56.4721 92.4336 53.2667 92.4336 50.157 91.8023C50.4872 95.1219 51.4698 98.3441 53.0489 101.285H53.0393ZM50.1761 101.761H42.4263V94.7761C42.4077 94.4927 42.2817 94.2271 42.0739 94.033C41.8661 93.8388 41.592 93.7308 41.3072 93.7308C41.0224 93.7308 40.7483 93.8388 40.5405 94.033C40.3327 94.2271 40.2067 94.4927 40.1882 94.7761V101.761H34.5189C34.095 101.761 33.6883 101.593 33.3885 101.294C33.0887 100.995 32.9203 100.59 32.9203 100.167V96.1036C32.9354 93.5299 33.9711 91.0667 35.8013 89.2517C37.6314 87.4367 40.1074 86.4174 42.6887 86.4161H46.9836V86.6445C47.0886 89.4661 47.5944 96.5556 49.9804 101.442L50.1761 101.761ZM42.9082 101.285H49.4173C47.1936 96.4699 46.6686 89.7896 46.5541 86.8681H42.6887C40.2249 86.8694 37.8624 87.8458 36.1202 89.5829C34.3781 91.32 33.3988 93.6756 33.3975 96.1321V100.196C33.405 100.487 33.5264 100.764 33.7359 100.968C33.9454 101.171 34.2264 101.285 34.5189 101.285H39.711V94.7761C39.7333 94.369 39.9112 93.9859 40.2081 93.7057C40.505 93.4254 40.8983 93.2692 41.3072 93.2692C41.7161 93.2692 42.1094 93.4254 42.4063 93.7057C42.7032 93.9859 42.8811 94.369 42.9035 94.7761L42.9082 101.285ZM54.8957 89.5755C53.093 89.576 51.2985 89.3343 49.5605 88.857L49.3983 88.8142V88.6477C49.2837 87.1394 49.2503 86.0212 49.2455 85.612V85.5835L49.279 85.5264C49.5318 85.1063 49.7612 84.6727 49.9661 84.2274L50.0663 84.0133L50.2811 84.1085C51.7399 84.7516 53.3173 85.0838 54.9124 85.0838C56.5074 85.0838 58.0849 84.7516 59.5437 84.1085L59.7584 84.0133L59.8586 84.2274C60.0636 84.6727 60.293 85.1063 60.5458 85.5264L60.5792 85.5835V85.6501C60.5792 86.0593 60.541 87.1774 60.4265 88.6857V88.8523L60.2643 88.8951C58.5133 89.371 56.7057 89.6078 54.8909 89.5993L54.8957 89.5755ZM49.8468 88.4621C53.1547 89.343 56.6366 89.343 59.9445 88.4621C60.0447 87.1251 60.0734 86.1211 60.0829 85.6882C59.8777 85.3408 59.6821 84.9792 59.5055 84.6128C58.0456 85.2227 56.4785 85.5367 54.8957 85.5367C53.3128 85.5367 51.7458 85.2227 50.2859 84.6128C50.1093 84.9792 49.9184 85.3408 49.7084 85.6882C49.7132 86.1259 49.7466 87.1251 49.8468 88.4621ZM55.1534 82.8333H54.8814C53.805 82.8656 52.733 82.6832 51.7283 82.2967C50.7236 81.9102 49.8065 81.3275 49.0308 80.5827C48.4967 80.0314 47.8138 79.6463 47.0647 79.4741C44.935 79.0168 42.9921 77.9323 41.4878 76.3612C39.9834 74.79 38.9871 72.8046 38.6277 70.6622C38.5101 69.9334 38.1476 69.2661 37.5996 68.7698C37.0515 68.2736 36.3506 67.9778 35.6117 67.931C34.8375 67.906 34.0857 67.6654 33.4414 67.2366C32.7971 66.8078 32.286 66.2078 31.9659 65.5044C31.6129 64.7366 31.4914 63.8831 31.6159 63.0477C31.7404 62.2123 32.1057 61.4309 32.6674 60.7987C33.0542 60.3597 33.5266 60.0038 34.0557 59.7527C34.5849 59.5016 35.1598 59.3605 35.7454 59.3379L38.37 54.1041V52.3721C38.3646 49.9117 39.3396 47.5498 41.0805 45.806C42.6081 44.2479 44.6433 43.2845 46.8198 43.0891C48.9963 42.8937 51.1713 43.4792 52.9534 44.7402C53.5279 45.1219 54.2029 45.3256 54.8933 45.3256C55.5837 45.3256 56.2586 45.1219 56.8331 44.7402L56.9715 44.6498C58.4537 43.6589 60.192 43.1172 61.9763 43.0902C63.7606 43.0632 65.5146 43.552 67.0263 44.4975C68.4028 45.387 69.5289 46.612 70.298 48.0566C71.0671 49.5012 71.4537 51.1176 71.4213 52.7528V54.1041L74.046 59.3379C74.6323 59.3578 75.2084 59.4973 75.7386 59.7477C76.2687 59.9981 76.7419 60.3542 77.1287 60.7939C77.6463 61.3814 77.9959 62.0968 78.1412 62.8652C78.2864 63.6336 78.2219 64.4268 77.9543 65.1618L77.8016 65.4997C77.4751 66.2104 76.9548 66.8153 76.3 67.2452C75.6452 67.6751 74.8823 67.9128 74.0985 67.931C73.3682 67.9862 72.678 68.2854 72.1394 68.7801C71.6007 69.2748 71.2452 69.9363 71.1302 70.6574C70.775 72.7959 69.7848 74.779 68.2877 76.3507C66.7905 77.9224 64.8551 79.0103 62.7314 79.4741C61.9864 79.647 61.3071 80.0302 60.7749 80.578C59.2635 82.0255 57.249 82.8337 55.1534 82.8333ZM54.8814 82.3575C55.8978 82.3932 56.9111 82.225 57.8612 81.8629C58.8113 81.5009 59.6787 80.9523 60.4122 80.2497C61.01 79.6372 61.7721 79.2094 62.6073 79.0173C64.646 78.5822 66.5065 77.5461 67.9472 76.0434C69.3879 74.5408 70.3423 72.641 70.6864 70.5908C70.8196 69.7635 71.229 69.0051 71.8482 68.4387C72.4674 67.8722 73.2603 67.5307 74.0985 67.4695C74.7707 67.4554 75.4264 67.2594 75.9955 66.9024C76.5646 66.5453 77.0256 66.0407 77.3292 65.4426L77.3864 65.3093C77.7021 64.6266 77.8124 63.8672 77.7039 63.1232C77.5955 62.3792 77.2731 61.6825 76.7756 61.1175C76.4183 60.7106 75.9781 60.3843 75.4844 60.1603C74.9907 59.9363 74.4548 59.8198 73.9124 59.8185H73.7644L70.9441 54.2135V52.7528C70.9769 51.1989 70.6115 49.6624 69.8825 48.2886C69.1535 46.9148 68.085 45.7492 66.7781 44.902C65.3437 44.0032 63.6788 43.5383 61.9848 43.5637C60.2909 43.589 58.6407 44.1034 57.234 45.0447L57.0956 45.1351C56.4427 45.569 55.6756 45.8006 54.8909 45.8006C54.1062 45.8006 53.3391 45.569 52.6862 45.1351C50.9964 43.9377 48.9332 43.3814 46.8684 43.5663C44.8036 43.7512 42.8729 44.6653 41.4241 46.1438C40.6029 46.9612 39.9513 47.9321 39.5067 49.0008C39.062 50.0695 38.8331 51.2151 38.8329 52.3721V54.2183L36.0078 59.809H35.8599C35.3175 59.8103 34.7816 59.9268 34.2879 60.1508C33.7941 60.3747 33.354 60.7011 32.9967 61.108C32.4987 61.6726 32.1758 62.3694 32.0674 63.1135C31.959 63.8576 32.0696 64.6172 32.3858 65.2998C32.6699 65.9238 33.1235 66.456 33.6953 66.8361C34.2672 67.2162 34.9344 67.4291 35.6213 67.4505C36.4689 67.5022 37.2736 67.8398 37.9032 68.4079C38.5328 68.976 38.9498 69.7408 39.0858 70.5765C39.43 72.6253 40.3832 74.5238 41.8219 76.0262C43.2607 77.5286 45.1187 78.5656 47.1554 79.0031C47.9932 79.1948 48.7573 79.6245 49.3553 80.2402C50.0875 80.9435 50.9539 81.4929 51.9032 81.8558C52.8525 82.2187 53.8653 82.3877 54.8814 82.3527V82.3575ZM32.9298 57.8059V52.8051C32.9273 50.1069 33.4583 47.4347 34.4923 44.9413C35.5262 42.4478 37.043 40.182 38.9559 38.2735C40.8687 36.3649 43.1401 34.851 45.6402 33.8183C48.1403 32.7856 50.82 32.2544 53.5261 32.255H56.2653C58.9706 32.255 61.6494 32.7865 64.1486 33.8192C66.6478 34.8519 68.9184 36.3655 70.8307 38.2735C72.743 40.1815 74.2594 42.4465 75.2934 44.9391C76.3274 47.4317 76.8586 50.103 76.8567 52.8004V57.7963L76.5227 57.6488C75.6972 57.2859 74.805 57.098 73.9028 57.0969H73.6642V52.7528C73.6962 50.7358 73.211 48.744 72.2548 46.9663C71.2986 45.1885 69.903 43.6837 68.2002 42.5943C66.324 41.4201 64.1466 40.8135 61.9317 40.8482C59.7168 40.8828 57.5596 41.5571 55.7212 42.7894L55.5924 42.875C55.3815 43.0186 55.132 43.0954 54.8766 43.0954C54.6212 43.0954 54.3717 43.0186 54.1608 42.875C52.4254 41.6898 50.3982 40.9999 48.2982 40.8799C46.1982 40.7598 44.1053 41.2141 42.2454 42.1937C40.3855 43.1733 38.8294 44.641 37.7452 46.4383C36.6611 48.2355 36.09 50.2939 36.0937 52.3912V57.1254H35.8551C34.9529 57.1258 34.0606 57.3138 33.2353 57.6774L32.9298 57.8059ZM33.4071 52.8051V57.0874C34.123 56.8147 34.8792 56.6619 35.6452 56.6354V52.3531C35.6488 50.1734 36.2486 48.0359 37.3799 46.1708C38.5112 44.3056 40.1313 42.7834 42.0656 41.7679C44 40.7524 46.1755 40.2821 48.358 40.4076C50.5405 40.5331 52.6474 41.2496 54.4519 42.4801C54.5819 42.5664 54.7347 42.6125 54.8909 42.6125C55.0471 42.6125 55.1999 42.5664 55.3299 42.4801L55.4588 42.3945C57.374 41.1113 59.6214 40.4094 61.9286 40.374C64.2358 40.3385 66.5039 40.9709 68.4579 42.1946C70.2273 43.3272 71.6776 44.8914 72.6713 46.739C73.665 48.5866 74.1694 50.6565 74.1367 52.7528V56.6354C74.9025 56.6625 75.6587 56.8153 76.3748 57.0874V52.8051C76.3773 50.1702 75.859 47.5607 74.8496 45.1255C73.8402 42.6904 72.3594 40.4775 70.4919 38.6133C68.6243 36.749 66.4067 35.27 63.9656 34.2606C61.5245 33.2513 58.9079 32.7314 56.2653 32.7308H53.5261C50.882 32.7296 48.2636 33.248 45.8206 34.2564C43.3776 35.2649 41.158 36.7436 39.2885 38.6079C37.4191 40.4723 35.9366 42.6858 34.9258 45.1219C33.915 47.558 33.3956 50.1688 33.3975 52.8051H33.4071ZM64.8693 31.7078L64.2537 31.4794C61.6919 30.5196 58.9781 30.0265 56.2414 30.0235H53.5309C50.7958 30.027 48.0836 30.5202 45.5233 31.4794L44.9077 31.7078L45.2322 31.1369C46.2028 29.4336 47.6059 28.015 49.3005 27.0237C50.995 26.0323 52.9214 25.503 54.8861 25.489C56.8521 25.5027 58.7798 26.0322 60.4753 27.0245C62.1709 28.0168 63.5744 29.4368 64.5448 31.1416L64.8693 31.7078ZM54.8861 25.9648C53.1178 25.9779 51.3801 26.427 49.8281 27.2721C48.276 28.1173 46.9578 29.3322 45.991 30.8085C48.4178 29.9788 50.9654 29.5544 53.5309 29.5524H56.2462C58.8117 29.5543 61.3593 29.9788 63.786 30.8085C62.8188 29.3315 61.4998 28.1162 59.9469 27.271C58.3939 26.4258 56.6553 25.9771 54.8861 25.9648Z" fill="#263568"/>
<path d="M44.7169 68.5222C42.8126 68.5222 40.9511 67.959 39.3679 66.9038C37.7848 65.8486 36.5511 64.3489 35.823 62.5945C35.0949 60.84 34.9051 58.9096 35.2777 57.0476C35.6502 55.1856 36.5684 53.4756 37.9159 52.134C39.2635 50.7924 40.9799 49.8795 42.8479 49.5108C44.716 49.1421 46.6518 49.3342 48.4103 50.0628C50.1688 50.7913 51.6711 52.0236 52.727 53.6037C53.7829 55.1838 54.345 57.0407 54.3422 58.9394C54.3359 61.4815 53.3193 63.9174 51.5152 65.7136C49.7111 67.5097 47.2665 68.5197 44.7169 68.5222ZM44.7169 52.6635C43.4743 52.6635 42.2596 53.0308 41.2263 53.719C40.1929 54.4071 39.3874 55.3852 38.9114 56.5297C38.4355 57.6742 38.3105 58.9336 38.5522 60.1489C38.7939 61.3642 39.3915 62.4808 40.2695 63.3576C41.1475 64.2343 42.2665 64.8319 43.485 65.0747C44.7035 65.3176 45.9669 65.1949 47.1154 64.722C48.264 64.2492 49.2462 63.4475 49.9379 62.4183C50.6297 61.389 50.9999 60.1784 51.0017 58.9394C51.0024 58.1159 50.8403 57.3003 50.5248 56.5392C50.2093 55.7781 49.7465 55.0864 49.1629 54.5037C48.5793 53.9209 47.8863 53.4585 47.1235 53.1427C46.3606 52.827 45.5429 52.6642 44.7169 52.6635Z" fill="#263568"/>
<path d="M64.6689 68.3747C62.7652 68.3747 60.9043 67.8118 59.3214 66.7573C57.7386 65.7027 56.5049 64.2039 55.7764 62.4503C55.0478 60.6966 54.8572 58.767 55.2286 56.9054C55.6 55.0437 56.5167 53.3337 57.8629 51.9915C59.209 50.6493 60.924 49.7353 62.7911 49.365C64.6583 48.9947 66.5936 49.1848 68.3524 49.9111C70.1112 50.6375 71.6144 51.8676 72.6721 53.4458C73.7297 55.024 74.2942 56.8795 74.2942 58.7776C74.2917 61.3222 73.2768 63.7617 71.4722 65.561C69.6677 67.3602 67.2209 68.3722 64.6689 68.3747ZM64.6689 52.516C63.4257 52.516 62.2104 52.8837 61.1768 53.5724C60.1432 54.2612 59.3376 55.2401 58.8621 56.3855C58.3865 57.5308 58.2624 58.791 58.5052 60.0067C58.7481 61.2223 59.3472 62.3389 60.2266 63.2151C61.106 64.0913 62.2263 64.6877 63.4458 64.9289C64.6652 65.1702 65.929 65.0454 67.0773 64.5704C68.2257 64.0954 69.2069 63.2915 69.8969 62.2603C70.5869 61.2292 70.9547 60.0172 70.9538 58.7776C70.9525 57.1161 70.2899 55.5229 69.1116 54.348C67.9332 53.1731 66.3354 52.5125 64.6689 52.5113V52.516Z" fill="#263568"/>
<path d="M56.7031 57.1814L52.6564 57.1969L52.6692 60.5275L56.7159 60.512L56.7031 57.1814Z" fill="#263568"/>
<path d="M98.0448 71.063C96.8823 69.9073 95.4856 69.0125 93.9482 68.4386C92.4108 67.8647 90.7682 67.625 89.1303 67.7353C87.4925 67.8457 85.8971 68.3037 84.4512 69.0786C83.0052 69.8536 81.742 70.9276 80.746 72.2287C80.2307 72.8949 78.737 75.017 78.675 79.1422C78.5891 84.6426 78.2837 100.682 78.2837 100.682C78.2837 101.579 78.6411 102.44 79.2774 103.074C79.9137 103.709 80.7767 104.065 81.6766 104.065H83.9481C84.848 104.065 85.711 103.709 86.3473 103.074C86.9836 102.44 87.341 101.579 87.341 100.682V93.897V79.3706C87.3335 78.7024 87.5831 78.0567 88.0385 77.5664C88.4938 77.0761 89.1203 76.7784 89.7891 76.7346C90.1317 76.7212 90.4735 76.7768 90.794 76.8982C91.1145 77.0195 91.4072 77.2041 91.6544 77.4409C91.9017 77.6777 92.0985 77.9618 92.2331 78.2762C92.3677 78.5906 92.4372 78.9289 92.4376 79.2707C92.4376 83.2484 97.3147 85.3372 100.154 82.4301C101.026 81.53 101.505 80.3221 101.485 79.0709C101.436 76.055 100.201 73.1791 98.0448 71.063ZM98.1593 80.503C97.9174 80.7462 97.6083 80.9119 97.2714 80.9791C96.9346 81.0462 96.5853 81.0117 96.2682 80.8799C95.9512 80.7481 95.6807 80.5251 95.4914 80.2393C95.3021 79.9535 95.2025 79.6179 95.2054 79.2754C95.1992 78.5784 95.0553 77.8895 94.782 77.2479C94.5086 76.6064 94.1113 76.0248 93.6125 75.5363C93.1138 75.0479 92.5234 74.6622 91.8752 74.4012C91.227 74.1403 90.5335 74.0092 89.8345 74.0154C89.1354 74.0217 88.4444 74.1651 87.801 74.4376C87.1575 74.7101 86.5742 75.1063 86.0843 75.6036C85.5945 76.1009 85.2076 76.6895 84.9459 77.3358C84.6841 77.9822 84.5527 78.6736 84.5589 79.3706V93.897V100.682C84.5589 100.845 84.4941 101.001 84.3786 101.116C84.2632 101.231 84.1066 101.296 83.9433 101.296H81.6718C81.5086 101.296 81.352 101.231 81.2365 101.116C81.1211 101.001 81.0562 100.845 81.0562 100.682C81.0562 100.682 81.4046 81.4023 81.5334 76.4872C82.1881 74.5195 83.5205 72.8465 85.2943 71.7649C87.0681 70.6832 89.1687 70.2627 91.2238 70.578C93.2789 70.8933 95.1556 71.9239 96.5212 73.4872C97.8868 75.0506 98.6531 77.0455 98.6843 79.1184C98.7008 79.6303 98.5139 80.128 98.1641 80.503H98.1593Z" fill="#263568"/>
</g>
<path class="icon-fill" d="M17.4493 14.9765L21.2791 13.4226V20.0298C21.3082 20.5723 21.5443 21.083 21.9386 21.4567C22.333 21.8304 22.8556 22.0387 23.3989 22.0387C23.9422 22.0387 24.4648 21.8304 24.8592 21.4567C25.2535 21.083 25.4896 20.5723 25.5187 20.0298V10.2413C25.518 9.89414 25.4321 9.55244 25.2686 9.24617C25.1052 8.93989 24.8691 8.67838 24.5811 8.48455C24.293 8.29072 23.9619 8.17049 23.6166 8.13439C23.2713 8.0983 22.9224 8.14743 22.6005 8.2775L18.7708 9.83142V3.2548C18.7863 2.96684 18.7429 2.67875 18.6434 2.4081C18.5438 2.13745 18.3902 1.88992 18.1918 1.68061C17.9935 1.4713 17.7545 1.3046 17.4896 1.19068C17.2247 1.07676 16.9394 1.01801 16.651 1.01801C16.3626 1.01801 16.0773 1.07676 15.8123 1.19068C15.5474 1.3046 15.3085 1.4713 15.1101 1.68061C14.9118 1.88992 14.7581 2.13745 14.6586 2.4081C14.559 2.67875 14.5157 2.96684 14.5312 3.2548V13.0433C14.5368 13.3878 14.6263 13.7258 14.7919 14.0281C14.9574 14.3303 15.194 14.5878 15.4813 14.7781C15.7686 14.9684 16.0979 15.0859 16.4408 15.1205C16.7837 15.1551 17.1298 15.1056 17.4493 14.9765Z"/>
<path class="icon-fill" d="M8.33385 32.4183C8.58137 32.6636 8.88548 32.8443 9.21934 32.9442C9.55319 33.0442 9.90652 33.0604 10.2481 32.9915C10.5898 32.9226 10.9091 32.7706 11.1781 32.549C11.4471 32.3274 11.6574 32.043 11.7904 31.7209L13.3994 27.9156L18.0734 32.5896C18.2659 32.8045 18.5003 32.9778 18.7621 33.0991C19.024 33.2203 19.3078 33.2869 19.5962 33.2948C19.8846 33.3027 20.1717 33.2517 20.4397 33.1449C20.7078 33.0381 20.9513 32.8778 21.1553 32.6738C21.3593 32.4698 21.5196 32.2263 21.6264 31.9582C21.7331 31.6902 21.7841 31.4032 21.7763 31.1147C21.7684 30.8263 21.7018 30.5425 21.5805 30.2807C21.4593 30.0188 21.2859 29.7845 21.0711 29.5919L14.1641 22.7094C13.9182 22.4647 13.6161 22.284 13.2842 22.1831C12.9524 22.0822 12.6008 22.0642 12.2604 22.1306C11.9199 22.197 11.6009 22.3458 11.3313 22.564C11.0617 22.7823 10.8496 23.0632 10.7137 23.3823L9.10469 27.1937L4.43682 22.5442C4.24696 22.3231 4.01361 22.1435 3.75132 22.0165C3.48902 21.8896 3.20339 21.818 2.91222 21.8062C2.62104 21.7944 2.33056 21.8427 2.05886 21.948C1.78716 22.0534 1.54006 22.2136 1.33295 22.4186C1.12584 22.6236 0.963159 22.869 0.855032 23.1396C0.746905 23.4102 0.695651 23.7002 0.704462 23.9915C0.713273 24.2828 0.78196 24.5691 0.906245 24.8327C1.03053 25.0963 1.20775 25.3315 1.42687 25.5236L8.33385 32.4183Z"/>
<path class="icon-fill" d="M98.0328 13.0126V3.22419C98.0483 2.93623 98.0049 2.64814 97.9054 2.37749C97.8058 2.10684 97.6522 1.85931 97.4538 1.65C97.2555 1.44069 97.0166 1.27399 96.7516 1.16007C96.4867 1.04615 96.2014 0.987396 95.913 0.987396C95.6246 0.987396 95.3393 1.04615 95.0744 1.16007C94.8094 1.27399 94.5705 1.44069 94.3721 1.65C94.1738 1.85931 94.0201 2.10684 93.9206 2.37749C93.8211 2.64814 93.7777 2.93623 93.7932 3.22419V9.83139L89.9634 8.27748C89.6416 8.14741 89.2927 8.09828 88.9474 8.13437C88.6021 8.17047 88.2709 8.2907 87.9829 8.48453C87.6949 8.67836 87.4588 8.93987 87.2953 9.24615C87.1319 9.55242 87.046 9.89412 87.0453 10.2413V20.0297C87.0298 20.3177 87.0731 20.6058 87.1727 20.8764C87.2722 21.1471 87.4259 21.3946 87.6242 21.6039C87.8226 21.8132 88.0615 21.9799 88.3264 22.0939C88.5914 22.2078 88.8767 22.2665 89.1651 22.2665C89.4534 22.2665 89.7388 22.2078 90.0037 22.0939C90.2686 21.9799 90.5076 21.8132 90.7059 21.6039C90.9043 21.3946 91.0579 21.1471 91.1575 20.8764C91.257 20.6058 91.3004 20.3177 91.2849 20.0297V13.4164L95.1146 14.9703C95.436 15.1002 95.7844 15.1494 96.1292 15.1136C96.474 15.0778 96.8048 14.9581 97.0926 14.765C97.3805 14.5719 97.6167 14.3112 97.7806 14.0057C97.9445 13.7002 98.0311 13.3593 98.0328 13.0126Z"/>
<path class="icon-fill" d="M111.125 25.5235C111.487 25.1192 111.681 24.5914 111.666 24.0487C111.651 23.5059 111.429 22.9895 111.045 22.6055C110.661 22.2216 110.145 21.9994 109.602 21.9846C109.059 21.9697 108.531 22.1634 108.127 22.5258L103.453 27.1998L101.844 23.3945C101.708 23.0754 101.496 22.7945 101.227 22.5762C100.957 22.358 100.638 22.2092 100.297 22.1428C99.957 22.0764 99.6054 22.0944 99.2736 22.1953C98.9417 22.2962 98.6396 22.4769 98.3937 22.7216L91.4929 29.6102C91.278 29.8028 91.1046 30.0372 90.9834 30.299C90.8622 30.5608 90.7956 30.8446 90.7877 31.1331C90.7798 31.4215 90.8308 31.7085 90.9376 31.9766C91.0443 32.2446 91.2046 32.4881 91.4087 32.6921C91.6127 32.8962 91.8562 33.0564 92.1242 33.1632C92.3923 33.27 92.6793 33.321 92.9677 33.3131C93.2562 33.3052 93.54 33.2386 93.8018 33.1174C94.0636 32.9961 94.298 32.8228 94.4906 32.6079L99.1646 27.9339L100.774 31.7208C100.909 32.04 101.122 32.3209 101.391 32.5391C101.661 32.7574 101.98 32.9062 102.32 32.9726C102.661 33.039 103.012 33.0209 103.344 32.92C103.676 32.8191 103.978 32.6385 104.224 32.3938L111.125 25.5235Z"/>
<defs>
<clipPath id="clip0">
<rect x="28.8498" y="22.7781" width="72.6357" height="81.7151" fill="white"/>
</clipPath>
</defs>
</svg>