<svg width="112" height="106" viewBox="0 0 112 106" fill="none" xmlns="http://www.w3.org/2000/svg">
<style>.icon-fill {opacity: 0.24; fill: #AAAAAA; transition: 0.3s all;} .icon-fill.hovered {opacity: 1; fill: #C0001F;}</style>
<g clip-path="url(#clip0)">
<path d="M90.936 40.3998C87.4389 34.2137 74.5548 34.0393 68.9528 31.8374C63.3507 29.6354 63.0157 21.7142 63.1195 18.2628C63.1264 18.0564 63.0918 17.8507 63.0177 17.6579C62.9435 17.4652 62.8314 17.2892 62.6879 17.1406C62.5444 16.9919 62.3725 16.8736 62.1823 16.7926C61.9921 16.7116 61.7876 16.6696 61.5809 16.6691H46.2427C46.0362 16.6696 45.8319 16.7116 45.642 16.7927C45.4521 16.8737 45.2804 16.9921 45.1373 17.1408C44.9942 17.2896 44.8825 17.4655 44.8089 17.6583C44.7352 17.851 44.7012 18.0566 44.7088 18.2628C44.8127 21.6953 44.4257 29.6637 38.8756 31.8421C33.3255 34.0204 20.3894 34.2185 16.9017 40.3998C13.6877 46.0579 12.9138 59.0336 12.7344 63.3196C12.7255 63.5368 12.7607 63.7536 12.8378 63.957C12.9149 64.1603 13.0324 64.3459 13.1832 64.5027C13.3339 64.6595 13.5149 64.7842 13.7151 64.8694C13.9154 64.9545 14.1308 64.9983 14.3485 64.9981H24.7691C25.1899 64.9983 25.5941 64.8342 25.8956 64.5409C26.1971 64.2476 26.3721 63.8483 26.3831 63.428L27.5158 50.2542C27.5158 50.2542 29.1959 59.1656 30.7298 65.7808C32.509 73.4427 34.1797 78.1342 34.2363 83.2641C34.2741 86.5646 33.2924 92.0105 32.2211 96.5558C31.6563 98.9307 31.3213 101.354 31.2206 103.793C31.2117 104.001 31.245 104.209 31.3185 104.404C31.3921 104.598 31.5043 104.776 31.6486 104.926C31.7928 105.077 31.9659 105.196 32.1576 105.278C32.3493 105.359 32.5555 105.401 32.7638 105.401H75.0597C75.2681 105.401 75.4743 105.359 75.666 105.278C75.8577 105.196 76.0308 105.077 76.175 104.926C76.3192 104.776 76.4315 104.598 76.5051 104.404C76.5786 104.209 76.6119 104.001 76.603 103.793C76.5023 101.354 76.1673 98.9307 75.6025 96.5558C74.5076 92.0152 73.5495 86.5646 73.5873 83.2641C73.6439 78.1295 75.3146 73.4427 77.0938 65.7808C78.6277 59.1798 80.3078 50.2542 80.3078 50.2542L81.4405 63.428C81.4515 63.8483 81.6265 64.2476 81.928 64.5409C82.2295 64.8342 82.6337 64.9983 83.0545 64.9981H93.494C93.7118 64.999 93.9276 64.9556 94.1281 64.8707C94.3287 64.7858 94.5099 64.6611 94.6608 64.5042C94.8118 64.3473 94.9292 64.1613 95.0061 63.9577C95.0829 63.7541 95.1176 63.537 95.1081 63.3196C94.9287 59.0336 94.1642 46.0767 90.9408 40.3998H90.936Z" fill="white"/>
<path d="M91.6109 38.528C89.0105 33.9308 82.0068 32.521 75.829 31.2763C73.29 30.7623 70.8925 30.2814 69.2218 29.6307C64.1106 27.6221 63.7802 19.9838 63.8746 16.7917C63.8872 16.4314 63.8152 16.0732 63.6644 15.7458C63.5136 15.4183 63.2882 15.1306 63.0062 14.9057C62.575 14.5746 62.0446 14.3985 61.5007 14.4059H46.2427C45.8819 14.407 45.5264 14.4929 45.205 14.6567C44.8835 14.8205 44.6053 15.0577 44.3926 15.3489C44.0659 15.7914 43.8994 16.3318 43.9207 16.8813C44.0104 20.1158 43.647 27.6504 38.5735 29.6449C36.9217 30.2955 34.5195 30.7765 31.9663 31.2904C25.7885 32.5352 18.7848 33.9497 16.1844 38.5421C13.0129 44.1954 12.1822 56.6902 11.951 61.7919C11.9352 62.1471 12 62.5012 12.1406 62.8278C12.2812 63.1544 12.4939 63.445 12.7627 63.6779C13.2266 64.0693 13.817 64.2787 14.424 64.2673H24.7738C25.3852 64.2677 25.9729 64.031 26.4131 63.6071C26.8532 63.1831 27.1115 62.6051 27.1335 61.9946L27.7943 54.3044C28.4078 57.3551 29.2101 61.1978 29.9605 64.4512C30.4324 66.5541 30.9374 68.4637 31.3763 70.1516C32.5137 74.612 33.4151 78.1294 33.4529 81.7694C33.4907 85.169 32.4477 90.7657 31.4566 94.8725C30.8786 97.2998 30.5372 99.7773 30.4372 102.27C30.4224 102.63 30.4924 102.988 30.6416 103.316C30.7908 103.643 31.015 103.931 31.2961 104.156C31.7332 104.512 32.2807 104.703 32.8441 104.699H75.0598C75.4212 104.697 75.7772 104.611 76.0993 104.447C76.4214 104.284 76.7006 104.047 76.9145 103.756C77.249 103.308 77.4159 102.757 77.3865 102.2C77.2809 99.7335 76.9396 97.2831 76.3671 94.8819C75.3807 90.7751 74.3377 85.1784 74.3707 81.7789C74.4085 78.1389 75.3146 74.6215 76.4473 70.1611C76.8768 68.4731 77.3676 66.5635 77.8631 64.4606C78.6182 61.2025 79.4158 57.3598 80.0294 54.3091L80.6901 61.9569C80.7 62.5797 80.9563 63.1733 81.4028 63.6079C81.8494 64.0426 82.45 64.283 83.0734 64.2767H93.5082C93.8639 64.2789 94.2154 64.2007 94.5366 64.048C94.8578 63.8954 95.1403 63.6721 95.3629 63.395C95.7369 62.92 95.9234 62.3244 95.8868 61.7212C95.6508 56.5629 94.7966 44.1671 91.6109 38.528ZM94.1028 62.4709C94.0242 62.553 93.9297 62.6184 93.8251 62.6629C93.7204 62.7075 93.6078 62.7304 93.494 62.7302H83.0545C82.9422 62.7296 82.8311 62.7067 82.7276 62.6629C82.6241 62.6191 82.5304 62.5552 82.4519 62.4749C82.3733 62.3947 82.3114 62.2997 82.2699 62.1954C82.2283 62.0911 82.2079 61.9796 82.2098 61.8673L81.0865 48.7407C81.0752 48.555 81 48.3788 80.8736 48.2422C80.7471 48.1055 80.5772 48.0168 80.3928 47.991C80.2 47.9699 80.0063 48.0222 79.8506 48.1376C79.6948 48.2531 79.5884 48.423 79.5527 48.6134C79.5527 48.703 77.8584 57.5719 76.3435 64.107C75.8715 66.191 75.3712 68.0959 74.9276 69.765C73.7619 74.3244 72.8463 77.922 72.8038 81.7459C72.7661 85.2821 73.8327 91.0298 74.8427 95.2261C75.4022 97.5602 75.7341 99.943 75.8337 102.341C75.8383 102.443 75.8218 102.546 75.7852 102.641C75.7487 102.737 75.6929 102.824 75.6214 102.897C75.5488 102.973 75.4615 103.033 75.3649 103.073C75.2683 103.114 75.1645 103.134 75.0598 103.133H32.7639C32.6592 103.134 32.5554 103.113 32.4589 103.073C32.3623 103.032 32.275 102.973 32.2022 102.897C32.1337 102.823 32.0808 102.735 32.0468 102.639C32.0127 102.544 31.9982 102.442 32.004 102.341C32.0889 99.9493 32.405 97.5713 32.9479 95.2403C33.9579 91.0439 35.0245 85.301 34.9867 81.76C34.9443 77.9361 34.0428 74.3339 32.863 69.7791C32.4335 68.1006 31.9474 66.1957 31.4471 64.1211C29.9322 57.6002 28.2568 48.7171 28.2379 48.6275C28.2015 48.4459 28.1009 48.2833 27.9547 48.1695C27.8084 48.0556 27.626 47.998 27.4408 48.0071C27.2556 48.0163 27.0798 48.0915 26.9455 48.2193C26.8111 48.347 26.7271 48.5186 26.7088 48.703L25.5714 61.9051C25.5703 62.12 25.4863 62.3262 25.3369 62.4808C25.1874 62.6354 24.984 62.7264 24.7691 62.7349H14.3343C14.2206 62.7351 14.1079 62.7122 14.0033 62.6677C13.8986 62.6231 13.8041 62.5577 13.7255 62.4756C13.6474 62.3944 13.5865 62.2982 13.5468 62.1929C13.507 62.0875 13.4892 61.9751 13.4943 61.8626C13.7019 56.8647 14.542 44.6622 17.5624 39.2871C19.8136 35.3076 26.4492 33.9732 32.3014 32.7898C34.9112 32.2617 37.3701 31.7666 39.154 31.0688C45.1808 28.7113 45.5819 20.2667 45.4781 16.7493C45.473 16.6448 45.4892 16.5403 45.5257 16.4422C45.5623 16.3442 45.6183 16.2545 45.6905 16.1787C45.7614 16.1052 45.8464 16.0469 45.9405 16.0072C46.0346 15.9674 46.1358 15.9472 46.2379 15.9477H61.5809C61.6823 15.9476 61.7827 15.968 61.876 16.0077C61.9693 16.0474 62.0535 16.1056 62.1237 16.1787C62.1961 16.2536 62.2527 16.3423 62.29 16.4395C62.3273 16.5367 62.3446 16.6405 62.3408 16.7445C62.2369 20.262 62.6381 28.7018 68.6649 31.0641C70.4441 31.7619 72.9124 32.257 75.5175 32.7851C81.3697 33.9638 88.0053 35.3029 90.2564 39.2871C93.2958 44.6575 94.117 56.86 94.3246 61.8579C94.3313 61.9698 94.315 62.0818 94.2769 62.1872C94.2387 62.2926 94.1795 62.3891 94.1028 62.4709Z" fill="#263568"/>
<path d="M57.7715 105.387H32.8432C32.1252 105.397 31.4255 105.161 30.861 104.717C30.4951 104.423 30.2032 104.047 30.009 103.62C29.8147 103.192 29.7235 102.725 29.7425 102.256C29.8438 99.7139 30.1915 97.1874 30.7808 94.7121C31.7577 90.6478 32.7913 85.1123 32.7536 81.7835C32.7158 78.2331 31.8097 74.7487 30.7006 70.3401C30.2664 68.6474 29.7803 66.7426 29.2847 64.6161C28.8883 62.8998 28.4777 61.0185 28.1002 59.2221L27.8547 62.0511C27.8252 62.8449 27.4855 63.5955 26.9085 64.142C26.3315 64.6885 25.5632 64.9873 24.7682 64.9744H14.4184C13.6396 64.9863 12.8831 64.7148 12.2899 64.2106C11.9423 63.9074 11.6673 63.5302 11.4851 63.1066C11.303 62.6831 11.2184 62.2241 11.2375 61.7635C11.4593 56.6053 12.3182 43.9831 15.5983 38.1837C18.3592 33.3083 25.5092 31.8608 31.8521 30.5878C34.3629 30.0785 36.7226 29.5976 38.3272 28.9752C42.9995 27.1411 43.3299 19.9129 43.2261 16.8906C43.1901 16.1847 43.3929 15.4872 43.8018 14.9103C44.0845 14.5309 44.4528 14.2234 44.8768 14.0129C45.3007 13.8024 45.7684 13.6947 46.2418 13.6985H61.4999C62.2135 13.6873 62.9096 13.9203 63.4726 14.3586C63.8382 14.6518 64.1304 15.026 64.3262 15.4516C64.5219 15.8771 64.6159 16.3424 64.6005 16.8105C64.5062 19.8516 64.7988 27.1269 69.4994 28.9705C71.0945 29.5976 73.459 30.0738 75.9603 30.5783C82.2986 31.8561 89.4674 33.3036 92.2236 38.1789C95.4942 43.9596 96.3579 56.544 96.5797 61.6833C96.6245 62.4612 96.3809 63.2283 95.8954 63.8381C95.605 64.1947 95.2387 64.4821 94.8232 64.6795C94.4076 64.8769 93.9533 64.9792 93.4931 64.9791H83.0537C82.2465 64.983 81.47 64.6699 80.8918 64.1072C80.3135 63.5444 79.9797 62.7772 79.9624 61.971L79.7264 59.2127C79.297 61.2496 78.9005 63.0554 78.5371 64.6114C78.0652 66.7096 77.5602 68.6191 77.1213 70.3071C75.9886 74.7392 75.0966 78.2237 75.0589 81.7788C75.0211 85.117 76.0547 90.643 77.0316 94.7074C77.6148 97.155 77.9625 99.6528 78.0699 102.167C78.1092 102.887 77.8955 103.599 77.4658 104.18C77.1835 104.553 76.8182 104.855 76.3989 105.063C75.9795 105.271 75.5176 105.379 75.0495 105.377L57.7715 105.387ZM27.5338 49.3111L28.5107 54.1723C29.0629 56.9353 29.8888 60.9337 30.6723 64.3002C31.1442 66.4078 31.6492 68.308 32.0881 69.9865C33.2397 74.4941 34.1458 78.0492 34.1883 81.7741C34.226 85.2349 33.1736 90.9024 32.1731 95.0516C31.6058 97.434 31.2707 99.8658 31.1725 102.313C31.1612 102.563 31.2097 102.812 31.3139 103.04C31.4181 103.268 31.5751 103.468 31.7719 103.623C32.0841 103.863 32.4689 103.987 32.8621 103.977H75.0778C75.3286 103.979 75.5764 103.922 75.8011 103.811C76.0258 103.7 76.221 103.537 76.3709 103.336C76.5993 103.017 76.7094 102.629 76.6824 102.237C76.5804 99.8158 76.247 97.4096 75.6866 95.0516C74.6861 90.9071 73.6336 85.2396 73.6714 81.7741C73.7091 78.0445 74.6153 74.4893 75.7715 69.9865C76.2057 68.2844 76.6918 66.3842 77.1874 64.3002C77.8056 61.6315 78.5324 58.2225 79.3489 54.1723L80.3258 49.3205L81.4066 61.9002C81.4078 62.3446 81.5854 62.7703 81.9003 63.0841C82.2153 63.3979 82.6419 63.5741 83.0867 63.5741H93.5215C93.7722 63.5753 94.02 63.52 94.2463 63.4122C94.4727 63.3044 94.6718 63.147 94.8288 62.9517C95.0928 62.6105 95.2221 62.1843 95.1922 61.7541C94.9515 56.709 94.1114 44.3933 90.9965 38.8768C88.5566 34.5625 81.7228 33.1857 75.696 31.9693C73.1145 31.4506 70.6887 30.9602 68.9802 30.286C63.449 28.1124 63.0856 20.111 63.1847 16.768C63.1938 16.5171 63.1433 16.2675 63.0375 16.0397C62.9317 15.8119 62.7736 15.6124 62.5759 15.4572C62.2665 15.2242 61.8872 15.1029 61.4999 15.113H46.2418C45.9908 15.1119 45.7432 15.1703 45.5192 15.2834C45.2952 15.3965 45.1013 15.5611 44.9534 15.7637C44.7305 16.0817 44.6208 16.4652 44.6419 16.8529C44.7316 20.1534 44.3493 28.1312 38.8464 30.2907C37.1379 30.9602 34.7074 31.4506 32.14 31.9693C26.1038 33.1857 19.2606 34.5625 16.8301 38.8768C13.701 44.4075 12.8704 56.7703 12.6533 61.8248C12.6412 62.0752 12.6863 62.3251 12.7852 62.5555C12.8842 62.7859 13.0344 62.9907 13.2244 63.1544C13.5588 63.4329 13.9832 63.5804 14.4184 63.5694H24.7729C25.2028 63.5723 25.6172 63.4091 25.9295 63.1138C26.2417 62.8186 26.4276 62.4141 26.4483 61.9851L27.5338 49.3111ZM55.9262 103.845H32.763C32.5646 103.845 32.3681 103.805 32.1854 103.728C32.0027 103.651 31.8375 103.537 31.6997 103.395C31.5618 103.252 31.4541 103.083 31.383 102.898C31.3119 102.713 31.2788 102.516 31.2858 102.317C31.3848 99.8783 31.7198 97.4545 32.2863 95.0799C33.2868 90.9212 34.3393 85.2443 34.3063 81.7741C34.2685 78.0398 33.3624 74.4799 32.2061 69.9865C31.7955 68.3881 31.2905 66.4078 30.7903 64.2908C29.2659 57.7274 27.5905 48.8443 27.5763 48.7642C27.5621 48.684 27.5763 48.7123 27.5008 48.717C27.487 48.7191 27.4743 48.7259 27.4649 48.7362C27.4554 48.7465 27.4498 48.7597 27.4489 48.7736L26.3115 61.9757C26.2955 62.3734 26.1248 62.7492 25.8357 63.0231C25.5466 63.297 25.1619 63.4473 24.7635 63.442H14.3335C14.1245 63.4422 13.9176 63.4002 13.7254 63.3183C13.5331 63.2365 13.3595 63.1167 13.2148 62.966C13.0702 62.8153 12.9576 62.637 12.8838 62.4416C12.81 62.2463 12.7765 62.0381 12.7855 61.8295C12.9978 56.7797 13.8332 44.4452 16.948 38.9428C19.3597 34.6993 26.1652 33.2847 32.1636 32.0966C34.7546 31.5732 37.1946 31.0828 38.8936 30.4086C44.5003 28.2067 44.8684 20.1345 44.7457 16.768C44.7388 16.5703 44.7717 16.3732 44.8425 16.1884C44.9133 16.0036 45.0206 15.835 45.158 15.6925C45.2953 15.55 45.46 15.4365 45.6421 15.3588C45.8242 15.2811 46.0202 15.2409 46.2182 15.2403H61.5612C61.7579 15.2397 61.9526 15.2791 62.1335 15.3561C62.3145 15.4332 62.4778 15.5462 62.6136 15.6883C62.7523 15.8309 62.8606 16.0001 62.932 16.1857C63.0034 16.3712 63.0364 16.5693 63.029 16.768C62.9298 20.1345 63.298 28.2067 68.9047 30.4086C70.6226 31.0828 73.0484 31.5732 75.6158 32.0918C81.6426 33.3083 88.4433 34.6804 90.855 38.9428C93.9698 44.4499 94.8052 56.7844 95.0175 61.8342C95.0269 62.0421 94.9936 62.2497 94.9197 62.4443C94.8459 62.6389 94.733 62.8164 94.5881 62.9658C94.4432 63.1159 94.2694 63.235 94.0772 63.3161C93.8849 63.3971 93.6782 63.4384 93.4696 63.4373H83.0537C82.8496 63.438 82.6474 63.3983 82.4587 63.3205C82.2701 63.2428 82.0987 63.1285 81.9544 62.9844C81.81 62.8402 81.6957 62.6689 81.6179 62.4805C81.5401 62.292 81.5003 62.09 81.501 61.8861L80.373 48.7972C80.3719 48.7768 80.3663 48.7568 80.3565 48.7389C80.3467 48.7209 80.333 48.7054 80.3164 48.6935C80.308 48.6914 80.2992 48.6911 80.2907 48.6927C80.2822 48.6942 80.2741 48.6976 80.267 48.7025C80.2598 48.7074 80.2538 48.7137 80.2493 48.7211C80.2448 48.7285 80.242 48.7367 80.2409 48.7453C80.2409 48.8349 78.5466 57.7039 77.0269 64.2672C76.555 66.3889 76.0311 68.3645 75.6111 69.9535C74.4595 74.4658 73.5487 78.0303 73.5062 81.7693C73.4684 85.2443 74.5256 90.9212 75.5214 95.0751C76.0875 97.4498 76.4225 99.8736 76.5219 102.313C76.5304 102.51 76.4984 102.708 76.4277 102.893C76.3571 103.077 76.2495 103.246 76.1113 103.388C75.9747 103.536 75.8091 103.654 75.6248 103.735C75.4405 103.816 75.2414 103.858 75.04 103.859L55.9262 103.845ZM27.5055 47.2648C27.8526 47.261 28.1899 47.3794 28.4582 47.5993C28.7266 47.8191 28.909 48.1264 28.9733 48.4671C28.9733 48.552 30.6534 57.3785 32.1731 63.9324C32.645 66.0353 33.1641 68.0062 33.5889 69.5904C34.7688 74.2017 35.6938 77.837 35.7363 81.7411C35.774 85.3433 34.698 91.1711 33.6786 95.4146C33.1399 97.7002 32.8238 100.032 32.7347 102.379C32.763 102.431 32.7771 102.44 32.8007 102.44H75.0966C75.1048 102.444 75.1136 102.446 75.1226 102.446C75.1316 102.446 75.1404 102.444 75.1486 102.44C75.0709 100.08 74.7546 97.7344 74.2047 95.4382C73.1853 91.1947 72.1092 85.3905 72.147 81.7646C72.1894 77.8559 73.1192 74.2206 74.2943 69.614C74.7002 68.0345 75.2005 66.0636 75.7102 63.956C77.2251 57.4351 78.8958 48.5803 78.91 48.4954C78.9769 48.1304 79.1795 47.8041 79.4771 47.5821C79.7746 47.36 80.1452 47.2584 80.5146 47.2978C80.8671 47.3396 81.1935 47.5044 81.4361 47.7632C81.6788 48.022 81.8221 48.3582 81.8408 48.7123L82.9121 61.7918C82.9121 61.8719 82.9121 62.0087 83.0537 62.0087H93.4931C93.5117 62.009 93.5302 62.0053 93.5472 61.998C93.5643 61.9907 93.5796 61.9799 93.5923 61.9662C93.6043 61.9547 93.6139 61.9408 93.6204 61.9254C93.6269 61.9099 93.6302 61.8934 93.63 61.8767C93.4224 56.9306 92.6153 44.8601 89.6515 39.6217C87.5513 35.9346 81.0857 34.6332 75.3845 33.5016C72.7322 32.9641 70.245 32.4643 68.4139 31.7429C61.9718 29.2157 61.5329 20.4269 61.6414 16.7444C61.6449 16.7362 61.6467 16.7274 61.6467 16.7185C61.6467 16.7096 61.6449 16.7008 61.6414 16.6926H46.2607C46.2088 16.7209 46.204 16.7397 46.204 16.7586C46.3126 20.4269 45.8737 29.2298 39.4316 31.7618C37.6004 32.4832 35.118 32.983 32.4893 33.5111C26.7362 34.6332 20.2706 35.9346 18.1751 39.6312C15.2113 44.8649 14.3995 56.9353 14.1966 61.8861C14.1955 61.9036 14.1982 61.9212 14.2048 61.9375C14.2113 61.9538 14.2214 61.9685 14.2343 61.9804C14.247 61.994 14.2623 62.0049 14.2794 62.0122C14.2964 62.0195 14.3149 62.0231 14.3335 62.0228H24.7682C24.8033 62.0228 24.8369 62.0089 24.8616 61.9842C24.8864 61.9594 24.9004 61.9258 24.9004 61.8908L26.0377 48.6274C26.0695 48.2692 26.2308 47.9348 26.4913 47.6866C26.7519 47.4385 27.0939 47.2936 27.4536 47.2789L27.5055 47.2648Z" fill="#263568"/>
<path d="M53.9118 95.8061C53.7065 95.8061 53.5096 95.7247 53.3645 95.5797C53.2193 95.4346 53.1378 95.238 53.1378 95.0329V74.2019C53.1295 74.0956 53.1432 73.9887 53.1782 73.888C53.2132 73.7872 53.2687 73.6948 53.3412 73.6165C53.4137 73.5383 53.5015 73.4758 53.5993 73.4331C53.6971 73.3903 53.8027 73.3683 53.9094 73.3683C54.0162 73.3683 54.1217 73.3903 54.2195 73.4331C54.3173 73.4758 54.4052 73.5383 54.4777 73.6165C54.5501 73.6948 54.6056 73.7872 54.6406 73.888C54.6756 73.9887 54.6894 74.0956 54.6811 74.2019V95.0329C54.6811 95.2371 54.6002 95.4331 54.456 95.578C54.3119 95.7229 54.1162 95.8049 53.9118 95.8061Z" fill="#263568"/>
<path d="M64.4693 49.9666L68.2448 46.1946C68.9433 45.5015 69.269 44.4501 69.2123 43.0686C69.1297 41.0563 68.292 39.1489 66.8657 37.7257C65.4394 36.3025 63.5291 35.4678 61.5149 35.3878C60.1273 35.3359 59.0749 35.6565 58.3764 36.3308L54.6292 40.1028L50.8536 36.3308C50.1598 35.633 49.1074 35.3076 47.7246 35.3642C45.7111 35.4442 43.8015 36.2782 42.3753 37.7004C40.9491 39.1226 40.1109 41.0288 40.0271 43.0403C39.9752 44.4265 40.2961 45.4779 40.971 46.1758L44.7466 49.9195L40.971 53.6915C40.2725 54.3846 39.9469 55.4361 40.0035 56.8176C40.0887 58.8305 40.9294 60.7376 42.3585 62.1591C43.7875 63.5807 45.7 64.4125 47.7151 64.4889H48.003C48.5155 64.5226 49.0296 64.4545 49.5156 64.2886C50.0017 64.1227 50.45 63.8623 50.8347 63.5223L54.5867 59.7927L58.3623 63.5648C58.7452 63.9079 59.193 64.1711 59.6794 64.3387C60.1657 64.5063 60.6806 64.575 61.1939 64.5408H61.4818C63.4967 64.4557 65.4055 63.6157 66.8284 62.188C68.2513 60.7604 69.0839 58.8497 69.1604 56.8364C69.2123 55.4502 68.8914 54.3988 68.2165 53.7009L64.4693 49.9666ZM42.2264 44.964C41.8016 44.5349 41.7544 43.7145 41.7544 43.1016C41.819 41.5206 42.4751 40.0214 43.5927 38.9004C44.7104 37.7794 46.2085 37.1182 47.7906 37.0475C48.3995 37.0475 49.2065 37.0852 49.636 37.519L53.4115 41.291L45.9548 48.7124L42.2264 44.964ZM49.6218 62.3106C49.1923 62.7349 48.3711 62.7821 47.7576 62.7821C46.1743 62.7187 44.6726 62.0638 43.5495 60.947C42.4265 59.8303 41.764 58.333 41.6931 56.7516C41.6931 56.1433 41.7308 55.337 42.165 54.908L59.594 37.5803C60.0654 37.2277 60.6497 37.0599 61.2364 37.1088H61.4582C63.0407 37.1721 64.5418 37.8263 65.6648 38.9421C66.7877 40.0578 67.4507 41.5539 67.5228 43.1346C67.5228 43.7428 67.485 44.5491 67.0508 44.9781L49.6218 62.3106ZM67.452 56.7798C67.3886 58.3608 66.7338 59.8605 65.6169 60.9824C64.5001 62.1043 63.0026 62.7667 61.4205 62.8386C60.8117 62.8386 60.0046 62.8009 59.5752 62.3671L55.7996 58.5951L63.2564 51.1831L66.9895 54.9316C67.4142 55.3606 67.4614 56.181 67.4614 56.794L67.452 56.7798Z" fill="#263568"/>
<path d="M61.1987 64.7954C60.6532 64.8316 60.1061 64.7581 59.5897 64.5791C59.0733 64.4001 58.5981 64.1193 58.1924 63.7534L54.5867 60.1322L50.9952 63.6779C50.2542 64.4182 49.1404 64.7624 47.6915 64.7058C45.6188 64.6286 43.651 63.7755 42.1787 62.316C40.7064 60.8564 39.8373 58.8971 39.7439 56.827C39.6873 55.3748 40.0365 54.2667 40.7822 53.5265L44.4068 49.9242L40.8389 46.3455C40.0979 45.6005 39.7534 44.4878 39.8053 43.045C39.8829 40.9699 40.7399 39.0001 42.2057 37.5278C43.6715 36.0555 45.6385 35.1888 47.7151 35.1002C49.164 35.0436 50.2778 35.3925 51.0188 36.1375L54.6244 39.7586L58.2065 36.194C58.9522 35.4538 60.0565 35.1096 61.5101 35.1615C63.5839 35.2424 65.5514 36.0994 67.022 37.5625C68.4926 39.0256 69.3587 40.9876 69.4483 43.0591C69.5049 44.5114 69.1557 45.6194 68.41 46.3596L64.7855 49.9619L68.3534 53.5406C69.0943 54.2809 69.4389 55.3983 69.3822 56.8411C69.3023 58.9133 68.4448 60.8796 66.9801 62.349C65.5154 63.8184 63.5509 64.6833 61.4771 64.7718L61.1987 64.7954ZM54.5914 59.4627L58.5322 63.4186C59.174 64.0646 60.1698 64.3616 61.4865 64.3192C63.44 64.2331 65.2897 63.4163 66.6684 62.031C68.0471 60.6458 68.8541 58.7932 68.9292 56.8411C68.9811 55.5257 68.679 54.5261 68.0372 53.8801L64.1389 49.9666L68.0985 46.0296C68.7451 45.3836 69.0424 44.3935 68.9999 43.078C68.916 41.1247 68.0995 39.2745 66.7127 37.8951C65.3259 36.5157 63.4703 35.7081 61.5149 35.633C60.1981 35.5858 59.2023 35.8829 58.551 36.5288L54.6339 40.4234L50.6931 36.4675C50.0465 35.8216 49.0555 35.5245 47.7434 35.567C45.7859 35.6485 43.9309 36.4639 42.5481 37.8506C41.1653 39.2374 40.3562 41.0937 40.282 43.0497C40.23 44.3652 40.5321 45.3601 41.1739 46.0107L45.0722 49.9242L41.1126 53.8612C40.466 54.5072 40.1687 55.4974 40.2112 56.8081C40.2951 58.7614 41.1116 60.6117 42.4984 61.9911C43.8852 63.3704 45.7408 64.178 47.6962 64.2532C49.013 64.3003 50.0135 64.0033 50.6601 63.362L54.5914 59.4627ZM61.1987 63.0838C60.5531 63.1359 59.9114 62.9441 59.4005 62.5463L55.4598 58.5904L63.2516 50.8436L67.1499 54.7571C67.6219 55.2286 67.7068 56.1339 67.6832 56.794C67.6175 58.4343 66.9381 59.9902 65.7793 61.154C64.6204 62.3179 63.0666 63.0049 61.4252 63.0791L61.1987 63.0838ZM56.1299 58.5904L59.7356 62.2116C60.0188 62.4992 60.6134 62.6359 61.4063 62.6076C62.9291 62.538 64.3703 61.9002 65.4452 60.8203C66.52 59.7403 67.1502 58.2969 67.2113 56.7751C67.2443 55.9736 67.1027 55.3606 66.8148 55.0919L63.2469 51.5132L56.1299 58.5904ZM47.9747 63.0178H47.7529C46.107 62.9567 44.5443 62.2793 43.3753 61.1201C42.2062 59.9609 41.5165 58.4049 41.4429 56.761C41.4193 56.1056 41.4901 55.2239 41.9762 54.7382L59.4241 37.4105C59.9341 37.0039 60.5822 36.8112 61.2317 36.873H61.4629C63.1048 36.9386 64.6622 37.6175 65.8271 38.7752C66.992 39.9329 67.6797 41.4852 67.754 43.1251C67.7776 43.7805 67.7068 44.6622 67.2207 45.1479L49.787 62.4803C49.2705 62.8778 48.6246 63.0694 47.9747 63.0178ZM61.2317 37.3445C60.7066 37.2905 60.1801 37.4333 59.7545 37.7453L42.3255 55.073C42.0376 55.3559 41.9007 55.95 41.9291 56.7421C41.9987 58.2635 42.6371 59.7034 43.7181 60.7772C44.799 61.851 46.2439 62.4806 47.767 62.5416C48.5694 62.5746 49.1829 62.4332 49.4519 62.1455L66.8856 44.8178C67.1735 44.5349 67.3104 43.9408 67.2821 43.1487C67.2124 41.6274 66.574 40.1875 65.493 39.1137C64.4121 38.0398 62.9672 37.4102 61.4441 37.3492L61.2317 37.3445ZM45.9548 49.0614L42.0565 45.1479C41.5845 44.6764 41.4996 43.7711 41.5232 43.111C41.5831 41.4666 42.26 39.9048 43.4194 38.736C44.5788 37.5673 46.1358 36.877 47.7812 36.8023C48.4419 36.774 49.3197 36.8494 49.8059 37.3351L53.7466 41.291L45.9548 49.0614ZM48.0077 37.2738H47.8001C46.2773 37.3434 44.836 37.9812 43.7612 39.0611C42.6864 40.1411 42.0562 41.5846 41.9951 43.1063C41.9621 43.9078 42.1037 44.5208 42.3916 44.7895L45.9595 48.3682L53.0812 41.2957L49.466 37.6746C49.0458 37.3663 48.5266 37.2236 48.0077 37.2738Z" fill="#263568"/>
<path d="M49.5699 49.3867C49.4962 49.4595 49.4378 49.5461 49.3979 49.6416C49.358 49.7371 49.3375 49.8396 49.3375 49.9431C49.3375 50.0466 49.358 50.149 49.3979 50.2445C49.4378 50.34 49.4962 50.4267 49.5699 50.4994C49.7184 50.6471 49.9195 50.7301 50.1291 50.7301C50.3387 50.7301 50.5398 50.6471 50.6884 50.4994C50.762 50.4267 50.8205 50.34 50.8604 50.2445C50.9002 50.149 50.9208 50.0466 50.9208 49.9431C50.9208 49.8396 50.9002 49.7371 50.8604 49.6416C50.8205 49.5461 50.762 49.4595 50.6884 49.3867C50.5398 49.239 50.3387 49.1561 50.1291 49.1561C49.9195 49.1561 49.7184 49.239 49.5699 49.3867Z" fill="#263568"/>
<path d="M50.1315 50.9474C49.8946 50.9462 49.6655 50.8629 49.4831 50.7119C49.3008 50.5609 49.1765 50.3514 49.1314 50.1191C49.0862 49.8867 49.1231 49.646 49.2358 49.4378C49.3484 49.2296 49.5297 49.0668 49.749 48.9772C49.9682 48.8876 50.2117 48.8767 50.4381 48.9464C50.6645 49.016 50.8597 49.1619 50.9905 49.3592C51.1213 49.5565 51.1797 49.793 51.1555 50.0284C51.1314 50.2638 51.0264 50.4836 50.8583 50.6503C50.7626 50.7452 50.6492 50.8202 50.5245 50.8712C50.3998 50.9222 50.2662 50.9481 50.1315 50.9474ZM50.1315 49.3773C49.9849 49.3771 49.8441 49.4347 49.7398 49.5376C49.6882 49.5884 49.6474 49.649 49.6194 49.7158C49.5915 49.7826 49.5772 49.8542 49.5772 49.9266C49.5772 49.9989 49.5915 50.0706 49.6194 50.1373C49.6474 50.2041 49.6882 50.2647 49.7398 50.3156C49.7915 50.3673 49.8529 50.4084 49.9205 50.4364C49.9882 50.4644 50.0606 50.4788 50.1338 50.4788C50.207 50.4788 50.2795 50.4644 50.3471 50.4364C50.4148 50.4084 50.4762 50.3673 50.5279 50.3156C50.5794 50.2647 50.6203 50.2041 50.6482 50.1373C50.6761 50.0706 50.6905 49.9989 50.6905 49.9266C50.6905 49.8542 50.6761 49.7826 50.6482 49.7158C50.6203 49.649 50.5794 49.5884 50.5279 49.5376C50.4194 49.4404 50.2771 49.3896 50.1315 49.3961V49.3773Z" fill="#263568"/>
<path d="M52.3685 48.5097C52.8064 48.5097 53.1614 48.1572 53.1614 47.7223C53.1614 47.2874 52.8064 46.9349 52.3685 46.9349C51.9306 46.9349 51.5757 47.2874 51.5757 47.7223C51.5757 48.1572 51.9306 48.5097 52.3685 48.5097Z" fill="#263568"/>
<path d="M52.3685 48.7407C52.1662 48.7398 51.9686 48.679 51.8008 48.566C51.6331 48.453 51.5025 48.2929 51.4257 48.1058C51.3489 47.9188 51.3293 47.7132 51.3694 47.5151C51.4094 47.3169 51.5073 47.135 51.6507 46.9924C51.7942 46.8498 51.9766 46.7528 52.1752 46.7137C52.3737 46.6746 52.5794 46.6952 52.7662 46.7727C52.9531 46.8503 53.1128 46.9814 53.2251 47.1496C53.3374 47.3178 53.3974 47.5154 53.3974 47.7175C53.3974 47.8523 53.3707 47.9857 53.319 48.1102C53.2672 48.2346 53.1913 48.3476 53.0957 48.4427C53.0001 48.5378 52.8867 48.613 52.7619 48.6642C52.6371 48.7153 52.5034 48.7413 52.3685 48.7407ZM52.3685 47.1659C52.2595 47.1668 52.1532 47.2 52.0631 47.2611C51.9729 47.3223 51.9028 47.4088 51.8618 47.5097C51.8207 47.6106 51.8104 47.7213 51.8323 47.828C51.8541 47.9347 51.9071 48.0326 51.9845 48.1093C52.0619 48.1859 52.1603 48.238 52.2672 48.2589C52.3742 48.2798 52.485 48.2686 52.5856 48.2267C52.6863 48.1849 52.7722 48.1141 52.8327 48.0235C52.8932 47.9329 52.9254 47.8265 52.9254 47.7175C52.9229 47.5721 52.863 47.4334 52.7587 47.3319C52.6544 47.2303 52.5142 47.1741 52.3685 47.1753V47.1659Z" fill="#263568"/>
<path d="M54.6056 46.2842C55.0434 46.2842 55.3984 45.9316 55.3984 45.4968C55.3984 45.0619 55.0434 44.7094 54.6056 44.7094C54.1677 44.7094 53.8127 45.0619 53.8127 45.4968C53.8127 45.9316 54.1677 46.2842 54.6056 46.2842Z" fill="#263568"/>
<path d="M54.6056 46.5199C54.4032 46.519 54.2057 46.4582 54.0379 46.3452C53.8701 46.2322 53.7396 46.0721 53.6628 45.8851C53.586 45.698 53.5664 45.4925 53.6064 45.2943C53.6465 45.0961 53.7444 44.9143 53.8878 44.7716C54.0312 44.629 54.2137 44.532 54.4122 44.493C54.6107 44.4539 54.8164 44.4744 55.0033 44.552C55.1901 44.6295 55.3498 44.7607 55.4621 44.9288C55.5745 45.097 55.6344 45.2946 55.6344 45.4968C55.6344 45.6315 55.6078 45.765 55.556 45.8894C55.5042 46.0139 55.4284 46.1269 55.3328 46.2219C55.2372 46.317 55.1237 46.3923 54.9989 46.4434C54.8741 46.4946 54.7404 46.5206 54.6056 46.5199ZM54.6056 44.9451C54.4966 44.9461 54.3903 44.9792 54.3001 45.0404C54.2099 45.1016 54.1399 45.188 54.0988 45.2889C54.0577 45.3898 54.0475 45.5006 54.0693 45.6073C54.0911 45.714 54.1441 45.8118 54.2215 45.8885C54.2989 45.9652 54.3973 46.0173 54.5043 46.0382C54.6113 46.0591 54.722 46.0479 54.8227 46.006C54.9233 45.9641 55.0092 45.8934 55.0697 45.8028C55.1302 45.7122 55.1624 45.6057 55.1625 45.4968C55.1625 45.4239 55.148 45.3518 55.12 45.2846C55.0919 45.2173 55.0508 45.1563 54.9991 45.105C54.9473 45.0537 54.8859 45.0132 54.8183 44.9858C54.7508 44.9583 54.6785 44.9445 54.6056 44.9451Z" fill="#263568"/>
<path d="M51.8258 51.6122C51.7522 51.6849 51.6937 51.7716 51.6538 51.8671C51.6139 51.9626 51.5934 52.065 51.5934 52.1685C51.5934 52.272 51.6139 52.3745 51.6538 52.47C51.6937 52.5655 51.7522 52.6521 51.8258 52.7249C51.9744 52.8726 52.1754 52.9555 52.385 52.9555C52.5946 52.9555 52.7957 52.8726 52.9443 52.7249C53.0179 52.6521 53.0764 52.5655 53.1163 52.47C53.1562 52.3745 53.1767 52.272 53.1767 52.1685C53.1767 52.065 53.1562 51.9626 53.1163 51.8671C53.0764 51.7716 53.0179 51.6849 52.9443 51.6122C52.7957 51.4645 52.5946 51.3815 52.385 51.3815C52.1754 51.3815 51.9744 51.4645 51.8258 51.6122Z" fill="#263568"/>
<path d="M52.3685 53.1917C52.2 53.1916 52.0341 53.15 51.8856 53.0705C51.737 52.991 51.6104 52.8761 51.5169 52.736C51.4235 52.5959 51.366 52.435 51.3498 52.2674C51.3335 52.0998 51.3588 51.9308 51.4236 51.7754C51.4884 51.62 51.5905 51.4829 51.721 51.3763C51.8515 51.2698 52.0062 51.1971 52.1716 51.1646C52.337 51.1321 52.5078 51.1409 52.6689 51.1902C52.8301 51.2395 52.9765 51.3278 53.0953 51.4471C53.1911 51.5418 53.2671 51.6546 53.319 51.7788C53.3708 51.903 53.3975 52.0363 53.3975 52.1709C53.3975 52.3055 53.3708 52.4388 53.319 52.563C53.2671 52.6872 53.1911 52.8 53.0953 52.8947C52.9997 52.9895 52.8863 53.0646 52.7616 53.1155C52.6369 53.1665 52.5033 53.1924 52.3685 53.1917ZM52.3685 51.6216C52.2219 51.6214 52.0812 51.679 51.9768 51.7819C51.9253 51.8328 51.8844 51.8934 51.8565 51.9601C51.8286 52.0269 51.8142 52.0985 51.8142 52.1709C51.8142 52.2433 51.8286 52.3149 51.8565 52.3817C51.8844 52.4485 51.9253 52.509 51.9768 52.5599C52.0286 52.6116 52.09 52.6527 52.1576 52.6807C52.2252 52.7087 52.2977 52.7231 52.3709 52.7231C52.4441 52.7231 52.5166 52.7087 52.5842 52.6807C52.6518 52.6527 52.7133 52.6116 52.765 52.5599C52.8165 52.509 52.8574 52.4485 52.8853 52.3817C52.9132 52.3149 52.9276 52.2433 52.9276 52.1709C52.9276 52.0985 52.9132 52.0269 52.8853 51.9601C52.8574 51.8934 52.8165 51.8328 52.765 51.7819C52.7131 51.7296 52.6514 51.688 52.5833 51.6597C52.5153 51.6314 52.4423 51.6168 52.3685 51.6169V51.6216Z" fill="#263568"/>
<path d="M54.6056 50.7305C55.0434 50.7305 55.3984 50.3779 55.3984 49.9431C55.3984 49.5082 55.0434 49.1556 54.6056 49.1556C54.1677 49.1556 53.8127 49.5082 53.8127 49.9431C53.8127 50.3779 54.1677 50.7305 54.6056 50.7305Z" fill="#263568"/>
<path d="M54.6056 50.9474C54.4032 50.9464 54.2057 50.8856 54.0379 50.7727C53.8701 50.6597 53.7396 50.4995 53.6628 50.3125C53.586 50.1255 53.5664 49.9199 53.6064 49.7217C53.6465 49.5236 53.7444 49.3417 53.8878 49.1991C54.0312 49.0565 54.2137 48.9595 54.4122 48.9204C54.6107 48.8813 54.8164 48.9018 55.0033 48.9794C55.1901 49.057 55.3498 49.1881 55.4621 49.3563C55.5745 49.5244 55.6344 49.7221 55.6344 49.9242C55.6344 50.059 55.6078 50.1924 55.556 50.3169C55.5042 50.4413 55.4284 50.5543 55.3328 50.6494C55.2372 50.7444 55.1237 50.8197 54.9989 50.8708C54.8741 50.922 54.7404 50.948 54.6056 50.9474ZM54.6056 49.3726C54.4966 49.3735 54.3903 49.4066 54.3001 49.4678C54.2099 49.529 54.1399 49.6155 54.0988 49.7163C54.0577 49.8172 54.0475 49.928 54.0693 50.0347C54.0911 50.1414 54.1441 50.2392 54.2215 50.3159C54.2989 50.3926 54.3973 50.4447 54.5043 50.4656C54.6113 50.4865 54.722 50.4753 54.8227 50.4334C54.9233 50.3915 55.0092 50.3208 55.0697 50.2302C55.1302 50.1396 55.1624 50.0331 55.1625 49.9242C55.1563 49.7812 55.0948 49.6462 54.9909 49.5476C54.887 49.4491 54.7488 49.3948 54.6056 49.3961V49.3726Z" fill="#263568"/>
<path d="M57.3995 48.2787C57.4731 48.2059 57.5316 48.1192 57.5714 48.0237C57.6113 47.9282 57.6319 47.8258 57.6319 47.7223C57.6319 47.6188 57.6113 47.5164 57.5714 47.4209C57.5316 47.3254 57.4731 47.2387 57.3995 47.1659C57.2509 47.0182 57.0498 46.9353 56.8402 46.9353C56.6306 46.9353 56.4295 47.0182 56.281 47.1659C56.2073 47.2387 56.1489 47.3254 56.109 47.4209C56.0691 47.5164 56.0486 47.6188 56.0486 47.7223C56.0486 47.8258 56.0691 47.9282 56.109 48.0237C56.1489 48.1192 56.2073 48.2059 56.281 48.2787C56.4295 48.4264 56.6306 48.5093 56.8402 48.5093C57.0498 48.5093 57.2509 48.4264 57.3995 48.2787Z" fill="#263568"/>
<path d="M56.8426 48.7407C56.5706 48.7416 56.3092 48.6348 56.1158 48.4437C56.0201 48.349 55.9441 48.2363 55.8922 48.112C55.8403 47.9878 55.8136 47.8545 55.8136 47.7199C55.8136 47.5853 55.8403 47.4521 55.8922 47.3278C55.9441 47.2036 56.0201 47.0909 56.1158 46.9962C56.3093 46.805 56.5705 46.6978 56.8426 46.6978C57.1147 46.6978 57.3759 46.805 57.5694 46.9962C57.6651 47.0909 57.7412 47.2036 57.793 47.3278C57.8449 47.4521 57.8716 47.5853 57.8716 47.7199C57.8716 47.8545 57.8449 47.9878 57.793 48.112C57.7412 48.2363 57.6651 48.349 57.5694 48.4437C57.376 48.6348 57.1146 48.7416 56.8426 48.7407ZM56.8426 47.1706C56.696 47.1705 56.5552 47.2281 56.4509 47.3309C56.3994 47.3818 56.3585 47.4424 56.3306 47.5092C56.3027 47.5759 56.2883 47.6476 56.2883 47.7199C56.2883 47.7923 56.3027 47.8639 56.3306 47.9307C56.3585 47.9975 56.3994 48.0581 56.4509 48.1089C56.556 48.2123 56.6975 48.2702 56.845 48.2702C56.9924 48.2702 57.134 48.2123 57.239 48.1089C57.2906 48.0581 57.3314 47.9975 57.3594 47.9307C57.3873 47.8639 57.4016 47.7923 57.4016 47.7199C57.4016 47.6476 57.3873 47.5759 57.3594 47.5092C57.3314 47.4424 57.2906 47.3818 57.239 47.3309C57.1328 47.2286 56.9902 47.1727 56.8426 47.1753V47.1706Z" fill="#263568"/>
<path d="M54.6056 55.1815C55.0434 55.1815 55.3984 54.8289 55.3984 54.394C55.3984 53.9592 55.0434 53.6066 54.6056 53.6066C54.1677 53.6066 53.8127 53.9592 53.8127 54.394C53.8127 54.8289 54.1677 55.1815 54.6056 55.1815Z" fill="#263568"/>
<path d="M54.6056 55.4172C54.4032 55.4163 54.2057 55.3555 54.0379 55.2425C53.8701 55.1295 53.7396 54.9694 53.6628 54.7823C53.586 54.5953 53.5664 54.3897 53.6064 54.1916C53.6465 53.9934 53.7444 53.8115 53.8878 53.6689C54.0312 53.5263 54.2137 53.4293 54.4122 53.3902C54.6107 53.3511 54.8164 53.3717 55.0033 53.4492C55.1901 53.5268 55.3498 53.658 55.4621 53.8261C55.5745 53.9943 55.6344 54.1919 55.6344 54.3941C55.6344 54.5288 55.6078 54.6623 55.556 54.7867C55.5042 54.9111 55.4284 55.0241 55.3328 55.1192C55.2372 55.2143 55.1237 55.2895 54.9989 55.3407C54.8741 55.3918 54.7404 55.4178 54.6056 55.4172ZM54.6056 53.8424C54.4966 53.8433 54.3903 53.8765 54.3001 53.9377C54.2099 53.9988 54.1399 54.0853 54.0988 54.1862C54.0577 54.2871 54.0475 54.3978 54.0693 54.5045C54.0911 54.6112 54.1441 54.7091 54.2215 54.7858C54.2989 54.8625 54.3973 54.9145 54.5043 54.9354C54.6113 54.9563 54.722 54.9451 54.8227 54.9033C54.9233 54.8614 55.0092 54.7907 55.0697 54.7C55.1302 54.6094 55.1624 54.503 55.1625 54.3941C55.1625 54.3212 55.148 54.2491 55.12 54.1819C55.0919 54.1146 55.0508 54.0536 54.9991 54.0023C54.9473 53.951 54.8859 53.9105 54.8183 53.883C54.7508 53.8556 54.6785 53.8418 54.6056 53.8424Z" fill="#263568"/>
<path d="M57.3995 52.7249C57.4731 52.6521 57.5316 52.5655 57.5714 52.47C57.6113 52.3745 57.6319 52.272 57.6319 52.1685C57.6319 52.065 57.6113 51.9626 57.5714 51.8671C57.5316 51.7716 57.4731 51.6849 57.3995 51.6122C57.2509 51.4645 57.0498 51.3815 56.8402 51.3815C56.6306 51.3815 56.4295 51.4645 56.281 51.6122C56.2073 51.6849 56.1489 51.7716 56.109 51.8671C56.0691 51.9626 56.0486 52.065 56.0486 52.1685C56.0486 52.272 56.0691 52.3745 56.109 52.47C56.1489 52.5655 56.2073 52.6521 56.281 52.7249C56.4295 52.8726 56.6306 52.9555 56.8402 52.9555C57.0498 52.9555 57.2509 52.8726 57.3995 52.7249Z" fill="#263568"/>
<path d="M56.8426 53.1917C56.6741 53.1916 56.5082 53.15 56.3596 53.0705C56.2111 52.991 56.0844 52.8761 55.991 52.736C55.8975 52.5959 55.8401 52.435 55.8238 52.2674C55.8075 52.0998 55.8329 51.9308 55.8976 51.7754C55.9624 51.62 56.0645 51.4829 56.195 51.3763C56.3255 51.2698 56.4803 51.1971 56.6456 51.1646C56.811 51.1321 56.9818 51.1409 57.1429 51.1902C57.3041 51.2395 57.4506 51.3278 57.5694 51.4471C57.6651 51.5418 57.7411 51.6546 57.793 51.7788C57.8449 51.903 57.8716 52.0363 57.8716 52.1709C57.8716 52.3055 57.8449 52.4388 57.793 52.563C57.7411 52.6872 57.6651 52.8 57.5694 52.8947C57.4737 52.9895 57.3603 53.0646 57.2356 53.1155C57.1109 53.1665 56.9773 53.1924 56.8426 53.1917ZM56.8426 51.6216C56.696 51.6214 56.5552 51.679 56.4509 51.7819C56.3993 51.8328 56.3584 51.8934 56.3305 51.9601C56.3026 52.0269 56.2883 52.0985 56.2883 52.1709C56.2883 52.2433 56.3026 52.3149 56.3305 52.3817C56.3584 52.4485 56.3993 52.509 56.4509 52.5599C56.5026 52.6116 56.564 52.6527 56.6316 52.6807C56.6992 52.7087 56.7717 52.7231 56.8449 52.7231C56.9181 52.7231 56.9906 52.7087 57.0582 52.6807C57.1259 52.6527 57.1873 52.6116 57.239 52.5599C57.2905 52.509 57.3314 52.4485 57.3593 52.3817C57.3872 52.3149 57.4016 52.2433 57.4016 52.1709C57.4016 52.0985 57.3872 52.0269 57.3593 51.9601C57.3314 51.8934 57.2905 51.8328 57.239 51.7819C57.1872 51.7296 57.1254 51.688 57.0574 51.6597C56.9893 51.6314 56.9163 51.6168 56.8426 51.6169V51.6216Z" fill="#263568"/>
<path d="M59.0796 50.7305C59.5175 50.7305 59.8725 50.3779 59.8725 49.9431C59.8725 49.5082 59.5175 49.1556 59.0796 49.1556C58.6417 49.1556 58.2867 49.5082 58.2867 49.9431C58.2867 50.3779 58.6417 50.7305 59.0796 50.7305Z" fill="#263568"/>
<path d="M59.0796 50.9474C58.8773 50.9464 58.6797 50.8856 58.5119 50.7727C58.3441 50.6597 58.2136 50.4995 58.1368 50.3125C58.06 50.1255 58.0404 49.9199 58.0805 49.7217C58.1205 49.5236 58.2184 49.3417 58.3618 49.1991C58.5053 49.0565 58.6877 48.9595 58.8863 48.9204C59.0848 48.8813 59.2905 48.9018 59.4773 48.9794C59.6642 49.057 59.8239 49.1881 59.9362 49.3563C60.0485 49.5244 60.1085 49.7221 60.1085 49.9242C60.1085 50.059 60.0818 50.1924 60.0301 50.3169C59.9783 50.4413 59.9024 50.5543 59.8068 50.6494C59.7112 50.7444 59.5978 50.8197 59.473 50.8708C59.3482 50.922 59.2145 50.948 59.0796 50.9474ZM59.0796 49.3726C58.9706 49.3735 58.8643 49.4066 58.7741 49.4678C58.684 49.529 58.6139 49.6155 58.5729 49.7163C58.5318 49.8172 58.5215 49.928 58.5434 50.0347C58.5652 50.1414 58.6181 50.2392 58.6956 50.3159C58.773 50.3926 58.8714 50.4447 58.9783 50.4656C59.0853 50.4865 59.1961 50.4753 59.2967 50.4334C59.3973 50.3915 59.4833 50.3208 59.5438 50.2302C59.6042 50.1396 59.6365 50.0331 59.6365 49.9242C59.6304 49.7812 59.5689 49.6462 59.465 49.5476C59.3611 49.4491 59.2229 49.3948 59.0796 49.3961V49.3726Z" fill="#263568"/>
</g>
<path class="icon-fill" d="M17.0888 14.0685L20.9186 12.5146V19.1218C20.9477 19.6643 21.1838 20.175 21.5781 20.5487C21.9725 20.9224 22.4951 21.1307 23.0384 21.1307C23.5817 21.1307 24.1043 20.9224 24.4987 20.5487C24.893 20.175 25.129 19.6643 25.1582 19.1218V9.33335C25.1575 8.98618 25.0716 8.64448 24.9081 8.33821C24.7447 8.03193 24.5086 7.77042 24.2206 7.57659C23.9325 7.38277 23.6014 7.26253 23.2561 7.22644C22.9108 7.19034 22.5619 7.23947 22.24 7.36954L18.4103 8.92346V2.34684C18.4258 2.05888 18.3824 1.77079 18.2829 1.50014C18.1833 1.22949 18.0297 0.981963 17.8313 0.772653C17.633 0.563343 17.394 0.396642 17.1291 0.282721C16.8642 0.168799 16.5788 0.110046 16.2905 0.110046C16.0021 0.110046 15.7168 0.168799 15.4518 0.282721C15.1869 0.396642 14.948 0.563343 14.7496 0.772653C14.5513 0.981963 14.3976 1.22949 14.2981 1.50014C14.1985 1.77079 14.1552 2.05888 14.1707 2.34684V12.1353C14.1763 12.4799 14.2658 12.8179 14.4313 13.1201C14.5969 13.4224 14.8335 13.6798 15.1208 13.8701C15.4081 14.0604 15.7374 14.178 16.0803 14.2125C16.4232 14.2471 16.7693 14.1977 17.0888 14.0685Z"/>
<path class="icon-fill" d="M7.97335 31.5103C8.22087 31.7557 8.52498 31.9363 8.85883 32.0363C9.19269 32.1362 9.54602 32.1525 9.88763 32.0835C10.2292 32.0146 10.5486 31.8626 10.8176 31.641C11.0866 31.4194 11.2969 31.135 11.4299 30.8129L13.0389 27.0077L17.7129 31.6816C17.9054 31.8965 18.1398 32.0699 18.4016 32.1911C18.6635 32.3124 18.9473 32.379 19.2357 32.3868C19.5241 32.3947 19.8111 32.3437 20.0792 32.2369C20.3473 32.1302 20.5907 31.9699 20.7948 31.7658C20.9988 31.5618 21.1591 31.3183 21.2659 31.0503C21.3726 30.7822 21.4236 30.4952 21.4158 30.2068C21.4079 29.9183 21.3413 29.6345 21.22 29.3727C21.0988 29.1109 20.9254 28.8765 20.7106 28.6839L13.8036 21.8014C13.5577 21.5568 13.2556 21.3761 12.9237 21.2752C12.5919 21.1743 12.2403 21.1563 11.8999 21.2227C11.5594 21.2891 11.2404 21.4379 10.9708 21.6561C10.7011 21.8743 10.4891 22.1553 10.3532 22.4744L8.74419 26.2858L4.07632 21.6362C3.88646 21.4152 3.65311 21.2356 3.39081 21.1086C3.12852 20.9816 2.84289 20.91 2.55171 20.8982C2.26054 20.8864 1.97006 20.9347 1.69836 21.0401C1.42666 21.1454 1.17956 21.3056 0.972448 21.5106C0.765338 21.7156 0.602654 21.9611 0.494528 22.2317C0.386401 22.5023 0.335147 22.7923 0.343958 23.0835C0.352768 23.3748 0.421455 23.6612 0.545741 23.9247C0.670026 24.1883 0.847248 24.4235 1.06637 24.6156L7.97335 31.5103Z"/>
<path class="icon-fill" d="M97.6723 12.1047V2.31626C97.6878 2.0283 97.6444 1.74021 97.5449 1.46956C97.4454 1.19891 97.2917 0.951385 97.0934 0.742075C96.895 0.532765 96.6561 0.366064 96.3911 0.252142C96.1262 0.138221 95.8409 0.0794678 95.5525 0.0794678C95.2641 0.0794678 94.9788 0.138221 94.7139 0.252142C94.4489 0.366064 94.21 0.532765 94.0117 0.742075C93.8133 0.951385 93.6597 1.19891 93.5601 1.46956C93.4606 1.74021 93.4172 2.0283 93.4327 2.31626V8.92347L89.603 7.36955C89.2811 7.23948 88.9322 7.19035 88.5869 7.22645C88.2416 7.26254 87.9105 7.38278 87.6224 7.5766C87.3344 7.77043 87.0983 8.03194 86.9348 8.33822C86.7714 8.64449 86.6855 8.98619 86.6848 9.33336V19.1218C86.6693 19.4098 86.7127 19.6979 86.8122 19.9685C86.9117 20.2392 87.0654 20.4867 87.2637 20.696C87.4621 20.9053 87.701 21.072 87.9659 21.1859C88.2309 21.2999 88.5162 21.3586 88.8046 21.3586C89.093 21.3586 89.3783 21.2999 89.6432 21.1859C89.9081 21.072 90.1471 20.9053 90.3454 20.696C90.5438 20.4867 90.6974 20.2392 90.797 19.9685C90.8965 19.6979 90.9399 19.4098 90.9244 19.1218V12.5085L94.7541 14.0624C95.0755 14.1923 95.4239 14.2415 95.7687 14.2057C96.1135 14.1699 96.4443 14.0502 96.7321 13.8571C97.02 13.6639 97.2562 13.4033 97.4201 13.0978C97.584 12.7923 97.6706 12.4514 97.6723 12.1047Z"/>
<path class="icon-fill" d="M110.764 24.6156C111.127 24.2113 111.32 23.6834 111.306 23.1407C111.291 22.5979 111.069 22.0815 110.685 21.6976C110.301 21.3137 109.784 21.0914 109.241 21.0766C108.699 21.0618 108.171 21.2555 107.767 21.6179L103.093 26.2918L101.484 22.4866C101.348 22.1675 101.136 21.8865 100.866 21.6683C100.596 21.4501 100.277 21.3013 99.937 21.2349C99.5965 21.1685 99.245 21.1865 98.9131 21.2874C98.5812 21.3883 98.2791 21.569 98.0332 21.8136L91.1324 28.7022C90.9175 28.8948 90.7441 29.1292 90.6229 29.391C90.5017 29.6529 90.4351 29.9367 90.4272 30.2251C90.4193 30.5135 90.4703 30.8005 90.5771 31.0686C90.6838 31.3367 90.8441 31.5801 91.0482 31.7842C91.2522 31.9882 91.4957 32.1485 91.7637 32.2553C92.0318 32.362 92.3188 32.413 92.6072 32.4051C92.8957 32.3973 93.1795 32.3307 93.4413 32.2094C93.7031 32.0882 93.9375 31.9148 94.1301 31.7L98.8041 27.026L100.413 30.8129C100.549 31.132 100.761 31.413 101.031 31.6312C101.3 31.8494 101.619 31.9982 101.96 32.0646C102.3 32.131 102.652 32.113 102.984 32.0121C103.315 31.9112 103.618 31.7305 103.863 31.4858L110.764 24.6156Z"/>
<defs>
<clipPath id="clip0">
<rect x="11.2383" y="13.6987" width="85.3469" height="91.7025" fill="white"/>
</clipPath>
</defs>
</svg>