<svg width="112" height="96" viewBox="0 0 112 96" fill="none" xmlns="http://www.w3.org/2000/svg">
<style>.icon-fill {opacity: 0.24; fill: #AAAAAA; transition: 0.3s all;} .icon-fill.hovered {opacity: 1; fill: #C0001F;}</style>
<path d="M80.7621 40.9296C72.9371 36.9003 63.4116 35.3929 54.549 35.9522C52.1472 36.0992 45.3117 37.4597 42.8811 38.2371C40.1815 39.0809 37.0063 40.1712 35.5316 40.9296C32.783 42.3431 30.5516 44.5698 29.15 47.2978C27.7484 50.0258 27.2471 53.1183 27.7162 56.1416L32.0394 83.8493C32.5304 86.9957 34.1463 89.8649 36.5948 91.9377C39.0432 94.0105 42.1626 95.1501 45.3885 95.1504H70.9148C74.1427 95.1483 77.2632 94.0055 79.7111 91.929C82.159 89.8524 83.7724 86.9794 84.2591 83.8303L88.5823 56.1226C89.0467 53.1017 88.5426 50.0131 87.1404 47.2889C85.7382 44.5647 83.5081 42.3413 80.7621 40.9296ZM86.805 55.8619L82.4818 83.5696C82.0562 86.2986 80.655 88.7871 78.5317 90.5852C76.4083 92.3832 73.703 93.3721 70.9051 93.3728H45.3837C42.5858 93.3721 39.8806 92.3832 37.7572 90.5852C35.6339 88.7871 34.2327 86.2986 33.8071 83.5696L29.4887 55.8619C29.0793 53.2053 29.5218 50.4888 30.7544 48.0926C31.9869 45.6965 33.9478 43.7406 36.3626 42.4987C37.7508 41.7829 40.854 40.7258 43.568 39.8678C46.0851 39.0667 52.7332 37.7204 54.9717 37.5829C63.4452 37.0662 72.3558 38.5879 79.9503 42.5035C82.3606 43.7479 84.3169 45.7042 85.5459 48.0992C86.7748 50.4941 87.215 53.2081 86.805 55.8619Z" fill="#263568"/>
<path d="M70.9147 95.8614H45.3837C41.9814 95.8775 38.6871 94.683 36.1048 92.4968C33.5224 90.3106 31.825 87.2792 31.3236 83.9582L27.0004 56.2506C26.5087 53.0798 27.035 49.8366 28.5055 46.9759C29.976 44.1152 32.317 41.7804 35.2001 40.2991C36.7709 39.4885 40.1238 38.3555 42.6649 37.5402C45.0667 36.7817 51.931 35.3786 54.5105 35.2221C64.1561 34.6343 73.5999 36.4262 81.1031 40.2991C83.98 41.7854 86.314 44.1223 87.7782 46.9825C89.2425 49.8428 89.7638 53.0834 89.2692 56.2506L84.946 83.9582C84.4453 87.2744 82.7521 90.3019 80.1757 92.4875C77.5994 94.6731 74.3121 95.8707 70.9147 95.8614ZM58.094 36.5352C56.9347 36.5352 55.769 36.5716 54.597 36.6443C52.3345 36.7817 45.5566 38.1043 43.1068 38.8912C39.5426 40.0336 37.0351 40.9533 35.863 41.5553C33.2472 42.9004 31.1237 45.0197 29.7901 47.616C28.4566 50.2123 27.9799 53.1554 28.4271 56.0325L32.7503 83.7402C33.2007 86.7245 34.7258 89.4488 37.046 91.4137C39.3662 93.3787 42.3263 94.4528 45.3837 94.4393H70.9147C73.973 94.454 76.9342 93.3804 79.2554 91.4153C81.5766 89.4502 83.1024 86.7253 83.5529 83.7402L87.8762 56.0325C88.3214 53.1551 87.8428 50.2123 86.5075 47.6168C85.1723 45.0213 83.0473 42.9034 80.4306 41.5601C74.0659 38.2797 66.2408 36.5352 58.094 36.5352ZM70.9147 94.0932H45.3837C42.41 94.107 39.5308 93.0626 37.274 91.1515C35.0172 89.2404 33.534 86.5907 33.0962 83.688L28.7729 55.9804C28.3384 53.1753 28.8041 50.3063 30.1048 47.7756C31.4056 45.2449 33.4762 43.1792 36.0263 41.8682C37.5154 41.1002 40.8299 39.972 43.3326 39.1899C45.9649 38.3508 52.6755 37.0093 54.914 36.8718C63.9399 36.3172 72.937 38.0948 80.2673 41.8682C82.818 43.1787 84.889 45.2442 86.1898 47.7751C87.4906 50.306 87.956 53.1752 87.5207 55.9804L83.1975 83.688C82.7598 86.5899 81.2772 89.239 79.0214 91.15C76.7656 93.0609 73.8876 94.1058 70.9147 94.0932ZM58.1468 38.1944C57.0996 38.1944 56.0525 38.226 55.0053 38.2892C52.8917 38.4172 46.282 39.7445 43.7793 40.5409C40.2727 41.6406 37.8037 42.5555 36.694 43.1291C34.4085 44.3008 32.5519 46.149 31.3846 48.4146C30.2173 50.6802 29.7979 53.2496 30.1852 55.7623L34.5084 83.47C34.8965 86.036 36.2085 88.378 38.2041 90.067C40.1997 91.756 42.7451 92.6788 45.3741 92.6664H70.9147C73.5437 92.6788 76.0891 91.756 78.0847 90.067C80.0803 88.378 81.3923 86.036 81.7804 83.47L86.1036 55.7623C86.4939 53.2503 86.0775 50.6808 84.9128 48.4142C83.748 46.1477 81.8934 44.2979 79.6092 43.1244C73.3549 39.9104 65.8373 38.1944 58.1468 38.1944Z" fill="#263568"/>
<path d="M73.9266 67.0018H42.3671C41.7808 67.0026 41.2017 67.1284 40.6693 67.3706C40.1369 67.6127 39.6638 67.9656 39.2824 68.405C38.9011 68.8444 38.6204 69.3599 38.4597 69.9162C38.299 70.4726 38.262 71.0567 38.3513 71.6285L40.0662 82.631C40.2534 83.8893 40.8942 85.0389 41.871 85.8687C42.8477 86.6985 44.0949 87.1529 45.3837 87.1486H70.9147C72.2023 87.1546 73.4489 86.7027 74.4263 85.8756C75.4038 85.0486 76.0466 83.9018 76.2371 82.6452L77.952 71.6427C78.0437 71.0691 78.0082 70.4826 77.848 69.9238C77.6878 69.365 77.4067 68.8472 77.024 68.406C76.6413 67.9648 76.1662 67.6108 75.6315 67.3684C75.0967 67.126 74.5151 67.0009 73.9266 67.0018Z" fill="white"/>
<path d="M73.9266 65.2336H42.3671C41.5225 65.2344 40.6881 65.4151 39.9209 65.7634C39.1537 66.1117 38.4717 66.6194 37.9216 67.2518C37.3716 67.8842 36.9664 68.6263 36.7338 69.4275C36.5012 70.2287 36.4467 71.07 36.5739 71.8939L38.2888 82.8822C38.5418 84.5579 39.3984 86.0876 40.7015 87.1907C42.0046 88.2938 43.6669 88.8965 45.3837 88.8883H70.9147C72.6307 88.8954 74.2919 88.2922 75.594 87.1891C76.8961 86.0861 77.7519 84.5571 78.0048 82.8822L79.7197 71.8797C79.8447 71.0569 79.7884 70.2171 79.5548 69.4177C79.3211 68.6182 78.9156 67.8779 78.3657 67.2471C77.8159 66.6164 77.1348 66.11 76.3687 65.7625C75.6026 65.4151 74.7697 65.2347 73.9266 65.2336ZM77.9472 71.6285L76.2323 82.6309C76.045 83.8893 75.4042 85.0389 74.4275 85.8687C73.4507 86.6985 72.2035 87.1529 70.9147 87.1485H45.3837C44.0962 87.1546 42.8496 86.7027 41.8721 85.8756C40.8947 85.0486 40.2519 83.9018 40.0613 82.6452L38.3513 71.6285C38.2619 71.0563 38.299 70.4718 38.46 69.9151C38.621 69.3584 38.9021 68.8426 39.284 68.4032C39.6659 67.9637 40.1395 67.6109 40.6725 67.3691C41.2055 67.1272 41.7852 67.0019 42.3719 67.0018H73.9314C74.5176 67.0026 75.0968 67.1284 75.6292 67.3705C76.1616 67.6127 76.6346 67.9656 77.016 68.405C77.3974 68.8443 77.678 69.3599 77.8387 69.9162C77.9995 70.4726 78.0364 71.0567 77.9472 71.6285Z" fill="#263568"/>
<path d="M70.9147 89.6184H45.3837C43.4948 89.6273 41.6659 88.9642 40.2323 87.7505C38.7986 86.5368 37.8563 84.8539 37.5779 83.0102L35.863 72.0077C35.719 71.0822 35.7794 70.1369 36.0401 69.2365C36.3007 68.3361 36.7554 67.502 37.3731 66.7912C37.9908 66.0803 38.7568 65.5096 39.6187 65.1181C40.4807 64.7265 41.4182 64.5234 42.367 64.5226H73.9265C74.8754 64.5234 75.8129 64.7265 76.6748 65.1181C77.5368 65.5096 78.3028 66.0803 78.9204 66.7912C79.5381 67.502 79.9928 68.3361 80.2535 69.2365C80.5141 70.1369 80.5745 71.0822 80.4306 72.0077L78.7013 83.0102C78.4234 84.8507 77.4837 86.531 76.0541 87.7443C74.6245 88.9576 72.8002 89.6228 70.9147 89.6184ZM42.367 65.9448C41.6259 65.9452 40.8936 66.1037 40.2203 66.4093C39.547 66.715 38.9486 67.1606 38.466 67.7156C37.9834 68.2707 37.628 68.9221 37.4241 69.6252C37.2202 70.3284 37.1727 71.0667 37.2848 71.7897L38.9997 82.7922C39.2273 84.3 39.998 85.6764 41.1706 86.669C42.3431 87.6615 43.8389 88.2038 45.3837 88.1962H70.9147C72.4595 88.2038 73.9552 87.6615 75.1278 86.669C76.3003 85.6764 77.071 84.3 77.2986 82.7922L79.0135 71.7897C79.1256 71.0667 79.0781 70.3284 78.8743 69.6252C78.6704 68.9221 78.315 68.2707 77.8324 67.7156C77.3498 67.1606 76.7513 66.715 76.078 66.4093C75.4047 66.1037 74.6725 65.9452 73.9313 65.9448H42.367ZM70.9147 87.8502H45.3837C43.9234 87.8568 42.5097 87.3437 41.4016 86.4052C40.2935 85.4666 39.5652 84.1654 39.3504 82.74L37.6355 71.7375C37.5327 71.0644 37.578 70.3774 37.7684 69.7231C37.9587 69.0689 38.2896 68.4627 38.7385 67.9459C39.1875 67.4291 39.7439 67.0138 40.37 66.7282C40.9962 66.4426 41.6773 66.2934 42.367 66.2908H73.9265C74.6158 66.2935 75.2965 66.4426 75.9222 66.7279C76.5479 67.0132 77.1041 67.4281 77.553 67.9444C78.0018 68.4606 78.3328 69.0662 78.5235 69.7198C78.7142 70.3735 78.7601 71.0601 78.6581 71.7328L77.9471 71.6238L78.6581 71.7328L76.9432 82.7353C76.7295 84.1607 76.0024 85.4624 74.8952 86.4018C73.788 87.3413 72.3748 87.8554 70.9147 87.8502ZM42.367 67.7129C41.8864 67.7155 41.4119 67.8198 40.9756 68.0186C40.5393 68.2175 40.1512 68.5063 39.8375 68.8657C39.5239 69.2251 39.292 69.6467 39.1574 70.102C39.0228 70.5573 38.9887 71.0358 39.0574 71.5053L40.753 82.522C40.9181 83.6107 41.4751 84.6042 42.322 85.3207C43.1689 86.0372 44.249 86.4286 45.3645 86.4233H70.9147C72.0302 86.4286 73.1102 86.0372 73.9571 85.3207C74.804 84.6042 75.361 83.6107 75.5261 82.522L77.2602 71.5053C77.3289 71.0358 77.2948 70.5573 77.1602 70.102C77.0256 69.6467 76.7937 69.2251 76.48 68.8657C76.1664 68.5063 75.7783 68.2175 75.342 68.0186C74.9056 67.8198 74.4312 67.7155 73.9505 67.7129H42.367Z" fill="#263568"/>
<path d="M72.2741 44.1483C63.0887 41.2257 53.2049 41.2257 44.0195 44.1483C42.7779 44.5587 41.7509 45.4367 41.1625 46.591C40.574 47.7453 40.4717 49.0824 40.8779 50.3109L43.395 57.8576C43.7202 58.8349 44.3501 59.6857 45.1947 60.2885C46.0393 60.8913 47.0554 61.2151 48.0977 61.2138H68.1959C69.2382 61.2151 70.2543 60.8913 71.0989 60.2885C71.9435 59.6857 72.5734 58.8349 72.8986 57.8576L75.4157 50.3109C75.8219 49.0824 75.7196 47.7453 75.1312 46.591C74.5427 45.4367 73.5158 44.5587 72.2741 44.1483ZM55.7931 59.4456L57.7865 51.861C57.8074 51.7817 57.8543 51.7115 57.9199 51.6614C57.9856 51.6113 58.0662 51.5841 58.1492 51.5841C58.2322 51.5841 58.3128 51.6113 58.3785 51.6614C58.4441 51.7115 58.491 51.7817 58.5119 51.861L60.5054 59.4456H55.7931ZM73.7104 49.761L71.1933 57.284C70.9866 57.9075 70.5853 58.4505 70.047 58.8354C69.5086 59.2202 68.8607 59.4272 68.1959 59.4266H62.3692L60.246 51.4201C60.1235 50.9629 59.8512 50.5584 59.4715 50.2699C59.0918 49.9813 58.6261 49.8249 58.1468 49.8249C57.6676 49.8249 57.2018 49.9813 56.8221 50.2699C56.4424 50.5584 56.1701 50.9629 56.0476 51.4201L53.9389 59.4456H48.0977C47.4265 59.4499 46.7713 59.2425 46.2279 58.8537C45.6844 58.4648 45.2809 57.9149 45.0763 57.284L42.5832 49.761C42.3235 48.9758 42.3894 48.121 42.7666 47.3837C43.1438 46.6464 43.8015 46.0865 44.5959 45.8264C45.5182 45.5104 46.4565 45.2402 47.4108 45.0158L48.1554 47.5472C48.1785 47.6678 48.2268 47.7823 48.2971 47.8835C48.3674 47.9847 48.4583 48.0704 48.5639 48.1352C48.6695 48.1999 48.7876 48.2423 48.9107 48.2597C49.0338 48.2771 49.1592 48.2691 49.279 48.2361C49.3988 48.2032 49.5103 48.1461 49.6066 48.0684C49.7028 47.9907 49.7817 47.8942 49.8382 47.7849C49.8947 47.6755 49.9275 47.5558 49.9347 47.4333C49.9419 47.3108 49.9232 47.1882 49.8799 47.0732L49.1641 44.6413C51.8303 44.1011 54.5415 43.8059 57.263 43.7596V46.4853C57.2795 46.7086 57.3811 46.9175 57.5473 47.0699C57.7135 47.2223 57.9319 47.307 58.1588 47.307C58.3857 47.307 58.6042 47.2223 58.7703 47.0699C58.9365 46.9175 59.0381 46.7086 59.0547 46.4853V43.7359C61.7761 43.7823 64.4873 44.0774 67.1535 44.6176L66.4378 47.0495C66.3944 47.1645 66.3758 47.2871 66.3829 47.4096C66.3901 47.5321 66.423 47.6518 66.4794 47.7612C66.5359 47.8705 66.6148 47.967 66.7111 48.0447C66.8073 48.1224 66.9189 48.1795 67.0387 48.2124C67.1585 48.2454 67.2839 48.2534 67.407 48.236C67.53 48.2186 67.6481 48.1762 67.7538 48.1114C67.8594 48.0467 67.9502 47.961 68.0205 47.8598C68.0909 47.7586 68.1391 47.6441 68.1623 47.5235L68.9068 44.9921C69.8675 45.2291 70.8058 45.4993 71.7217 45.8027C72.5144 46.0647 73.1698 46.6254 73.5451 47.3625C73.9204 48.0996 73.985 48.9533 73.7248 49.7373L73.7104 49.761Z" fill="#263568"/>
<path d="M68.196 61.9296H48.0978C46.904 61.9313 45.7403 61.5603 44.7732 60.8698C43.806 60.1792 43.0849 59.2046 42.713 58.0852L40.1959 50.5337C39.7302 49.1261 39.847 47.5939 40.521 46.2709C41.1949 44.948 42.3712 43.9414 43.7938 43.4705C53.1295 40.5128 63.1691 40.5128 72.5048 43.4705C73.9273 43.9414 75.1037 44.948 75.7776 46.2709C76.4515 47.5939 76.5683 49.1261 76.1026 50.5337L73.5808 58.0804C73.209 59.2003 72.4881 60.1756 71.521 60.8669C70.5539 61.5583 69.3901 61.9302 68.196 61.9296ZM58.1469 42.6741C53.4267 42.6544 48.7336 43.3794 44.2453 44.8215C43.1843 45.1723 42.3067 45.9227 41.8037 46.9091C41.3008 47.8956 41.2132 49.0382 41.5601 50.0881L44.0772 57.6348C44.355 58.4704 44.8935 59.1978 45.6157 59.7129C46.3379 60.2281 47.2067 60.5046 48.0978 60.5028H68.196C69.087 60.5046 69.9559 60.2281 70.6781 59.7129C71.4003 59.1978 71.9388 58.4704 72.2165 57.6348L74.7336 50.0881C75.0805 49.0382 74.993 47.8956 74.49 46.9091C73.9871 45.9227 73.1095 45.1723 72.0484 44.8215C67.5601 43.3793 62.8671 42.6543 58.1469 42.6741ZM68.196 60.1567H61.7976L59.5495 51.5955C59.475 51.2836 59.296 51.0057 59.0414 50.8068C58.7868 50.6079 58.4716 50.4996 58.1469 50.4996C57.8221 50.4996 57.5069 50.6079 57.2524 50.8068C56.9978 51.0057 56.8187 51.2836 56.7442 51.5955L54.4962 60.1567H48.0978C47.2809 60.1578 46.4847 59.9039 45.8229 59.4313C45.1612 58.9588 44.6678 58.2918 44.4134 57.5258L41.8964 49.9838C41.5782 49.0213 41.6581 47.9737 42.1187 47.0691C42.5793 46.1644 43.3833 45.4759 44.3558 45.1533C45.2685 44.8547 46.234 44.575 47.2379 44.3285L47.9152 44.1578L48.8375 47.3292C48.8509 47.3728 48.881 47.4095 48.9213 47.4316C48.9616 47.4537 49.0091 47.4595 49.0537 47.4477C49.0979 47.4345 49.1351 47.4048 49.1575 47.365C49.1799 47.3252 49.1857 47.2784 49.1738 47.2344L48.2419 44.063L49.0057 43.9066C51.7147 43.3584 54.4692 43.0585 57.2342 43.0107H57.9691V46.4617C57.9649 46.4868 57.9663 46.5125 57.9731 46.5371C57.98 46.5616 57.9922 46.5844 58.0089 46.6038C58.0256 46.6233 58.0463 46.6389 58.0698 46.6496C58.0932 46.6603 58.1187 46.6658 58.1445 46.6658C58.1703 46.6658 58.1958 46.6603 58.2192 46.6496C58.2426 46.6389 58.2634 46.6233 58.2801 46.6038C58.2967 46.5844 58.3089 46.5616 58.3158 46.5371C58.3227 46.5125 58.324 46.4868 58.3198 46.4617V43.0107H59.0547C61.8197 43.0585 64.5743 43.3584 67.2833 43.9066L68.047 44.063L67.1151 47.2344C67.1062 47.2554 67.1015 47.2779 67.1015 47.3007C67.1015 47.3235 67.1062 47.3461 67.1151 47.3671C67.1265 47.3868 67.1416 47.404 67.1598 47.4179C67.1779 47.4317 67.1987 47.4418 67.2208 47.4477C67.2432 47.4542 67.2667 47.4564 67.2899 47.454C67.3132 47.4515 67.3357 47.4446 67.3562 47.4336C67.3767 47.4226 67.3948 47.4077 67.4095 47.3898C67.4242 47.3719 67.4352 47.3513 67.4418 47.3292L68.3785 44.1389L69.0558 44.3095C70.0165 44.556 71.006 44.831 71.9379 45.1344C72.9121 45.4595 73.716 46.1525 74.1734 47.0615C74.6308 47.9705 74.7044 49.0213 74.3782 49.9838L71.8803 57.5258C71.6259 58.2918 71.1326 58.9588 70.4708 59.4313C69.809 59.9039 69.0128 60.1578 68.196 60.1567ZM62.912 58.7346H68.196C68.7095 58.7356 69.2102 58.576 69.6261 58.2788C70.0421 57.9816 70.3519 57.562 70.5113 57.0802L73.0284 49.5335C73.2284 48.9305 73.1798 48.2741 72.893 47.7063C72.6062 47.1384 72.1043 46.7049 71.496 46.4996C70.8235 46.2768 70.1222 46.0682 69.4065 45.8786L68.8589 47.7416C68.7999 47.9442 68.701 48.1334 68.568 48.2983C68.4349 48.4633 68.2702 48.6007 68.0833 48.7028C67.8964 48.805 67.691 48.8698 67.4787 48.8935C67.2664 48.9173 67.0515 48.8996 66.8461 48.8414C66.6408 48.7832 66.4491 48.6856 66.282 48.5543C66.1149 48.423 65.9756 48.2605 65.8721 48.076C65.7686 47.8916 65.7029 47.6888 65.6789 47.4794C65.6548 47.2699 65.6727 47.0578 65.7317 46.8551L66.2121 45.1676C64.0835 44.7821 61.9287 44.5539 59.7657 44.4849V46.4806C59.7777 46.6974 59.7447 46.9144 59.6689 47.1182C59.5931 47.322 59.476 47.5084 59.3247 47.6661C59.1734 47.8237 58.9912 47.9493 58.7891 48.0351C58.587 48.1209 58.3693 48.1651 58.1493 48.1651C57.9293 48.1651 57.7116 48.1209 57.5095 48.0351C57.3074 47.9493 57.1251 47.8237 56.9739 47.6661C56.8226 47.5084 56.7055 47.322 56.6296 47.1182C56.5538 46.9144 56.5209 46.6974 56.5329 46.4806V44.4849C54.3631 44.5578 52.2018 44.7907 50.0673 45.1818L50.5476 46.8694C50.6163 47.0735 50.6425 47.2891 50.6246 47.5035C50.6068 47.7178 50.5453 47.9264 50.4438 48.1167C50.3423 48.307 50.2029 48.4752 50.034 48.611C49.8651 48.7469 49.6701 48.8477 49.4608 48.9074C49.2514 48.9672 49.032 48.9845 48.8156 48.9586C48.5993 48.9326 48.3905 48.8637 48.2018 48.7562C48.0131 48.6487 47.8483 48.5046 47.7173 48.3327C47.5864 48.1608 47.4919 47.9646 47.4397 47.7558L46.8921 45.8928C46.1715 46.0872 45.451 46.2958 44.8025 46.5138C44.1905 46.7162 43.6843 47.1493 43.3946 47.7185C43.1048 48.2878 43.0549 48.947 43.2558 49.5524L45.7729 57.0992C45.9322 57.5809 46.2421 58.0005 46.658 58.2977C47.074 58.595 47.5746 58.7545 48.0882 58.7536H53.3721L55.3416 51.259C55.4978 50.644 55.8577 50.0981 56.3642 49.7081C56.8707 49.318 57.4948 49.1062 58.1373 49.1062C58.7797 49.1062 59.4038 49.318 59.9103 49.7081C60.4168 50.0981 60.7768 50.644 60.9329 51.259L62.912 58.7346ZM61.4325 60.1567H54.8612L57.0853 51.6856C57.1437 51.4522 57.2804 51.2451 57.4731 51.098C57.6658 50.9508 57.9032 50.8723 58.1469 50.875C58.3905 50.8723 58.6279 50.9508 58.8206 51.098C59.0133 51.2451 59.15 51.4522 59.2085 51.6856L61.4325 60.1567ZM56.7202 58.7346H59.5735L58.1325 53.3116L56.7202 58.7346Z" fill="#263568"/>
<path d="M58.1083 14.1464H58.1035C56.984 14.1464 56.0764 15.042 56.0764 16.1468V23.3333C56.0764 24.4381 56.984 25.3337 58.1035 25.3337H58.1083C59.2279 25.3337 60.1354 24.4381 60.1354 23.3333V16.1468C60.1354 15.042 59.2279 14.1464 58.1083 14.1464Z" fill="#263568"/>
<path d="M52.4354 19.74C52.4354 19.2095 52.6489 18.7006 53.0291 18.3255C53.4092 17.9503 53.9249 17.7396 54.4625 17.7396H61.7447C62.2823 17.7396 62.7979 17.9503 63.1781 18.3255C63.5582 18.7006 63.7718 19.2095 63.7718 19.74C63.7693 20.2689 63.5546 20.7753 63.1747 21.1484C62.7948 21.5215 62.2807 21.731 61.7447 21.731H54.4625C53.9265 21.731 53.4124 21.5215 53.0325 21.1484C52.6526 20.7753 52.4379 20.2689 52.4354 19.74Z" fill="#263568"/>
<g clip-path="url(#clip0)">
<path class="icon-fill" d="M17.1027 14.6244L20.927 13.0421V19.77C20.9561 20.3224 21.1918 20.8424 21.5856 21.2229C21.9794 21.6035 22.5013 21.8156 23.0438 21.8156C23.5863 21.8156 24.1082 21.6035 24.502 21.2229C24.8958 20.8424 25.1315 20.3224 25.1606 19.77V9.80282C25.1599 9.44931 25.0741 9.10138 24.9109 8.78951C24.7476 8.47764 24.5119 8.21136 24.2243 8.01399C23.9367 7.81663 23.606 7.6942 23.2612 7.65744C22.9164 7.62068 22.568 7.67072 22.2466 7.80316L18.4223 9.38544V2.68876C18.4378 2.39555 18.3945 2.1022 18.2951 1.82661C18.1957 1.55102 18.0422 1.29897 17.8442 1.08584C17.6461 0.872705 17.4075 0.702961 17.143 0.58696C16.8784 0.470958 16.5935 0.411133 16.3055 0.411133C16.0175 0.411133 15.7326 0.470958 15.4681 0.58696C15.2035 0.702961 14.9649 0.872705 14.7669 1.08584C14.5688 1.29897 14.4154 1.55102 14.316 1.82661C14.2166 2.1022 14.1733 2.39555 14.1887 2.68876V12.6559C14.1944 13.0068 14.2837 13.351 14.449 13.6587C14.6143 13.9665 14.8507 14.2286 15.1375 14.4224C15.4244 14.6162 15.7533 14.7359 16.0957 14.7711C16.438 14.8063 16.7837 14.7559 17.1027 14.6244Z"/>
<path class="icon-fill" d="M8.00027 32.3847C8.24744 32.6345 8.55111 32.8184 8.88449 32.9202C9.21787 33.022 9.5707 33.0385 9.91183 32.9683C10.253 32.8981 10.5719 32.7434 10.8405 32.5177C11.1091 32.2921 11.3191 32.0025 11.4519 31.6745L13.0586 27.7998L17.7259 32.5591C17.9182 32.7779 18.1522 32.9544 18.4137 33.0778C18.6751 33.2013 18.9585 33.2691 19.2466 33.2771C19.5346 33.2852 19.8212 33.2332 20.0889 33.1245C20.3565 33.0158 20.5997 32.8526 20.8034 32.6448C21.0071 32.4371 21.1672 32.1891 21.2738 31.9162C21.3804 31.6432 21.4314 31.351 21.4235 31.0573C21.4156 30.7636 21.3491 30.4746 21.2281 30.208C21.107 29.9414 20.9339 29.7027 20.7193 29.5066L13.8222 22.4985C13.5767 22.2494 13.275 22.0654 12.9436 21.9626C12.6122 21.8599 12.2612 21.8415 11.9212 21.9091C11.5812 21.9768 11.2627 22.1283 10.9934 22.3505C10.7242 22.5727 10.5124 22.8588 10.3767 23.1837L8.77001 27.0647L4.1088 22.3303C3.91921 22.1052 3.6862 21.9223 3.42428 21.793C3.16235 21.6637 2.87713 21.5908 2.58637 21.5788C2.29561 21.5668 2.00555 21.616 1.73423 21.7232C1.46292 21.8305 1.21617 21.9936 1.00936 22.2024C0.802547 22.4111 0.640095 22.661 0.532123 22.9366C0.42415 23.2121 0.372969 23.5074 0.381768 23.804C0.390566 24.1006 0.459155 24.3922 0.583263 24.6606C0.707371 24.929 0.88434 25.1684 1.10315 25.364L8.00027 32.3847Z"/>
<path class="icon-fill" d="M97.5712 12.6248V2.6576C97.5867 2.36439 97.5434 2.07104 97.444 1.79545C97.3446 1.51986 97.1912 1.26781 96.9931 1.05468C96.795 0.841547 96.5564 0.671802 96.2919 0.555801C96.0273 0.4398 95.7424 0.379974 95.4544 0.379974C95.1665 0.379974 94.8815 0.4398 94.617 0.555801C94.3525 0.671802 94.1139 0.841547 93.9158 1.05468C93.7177 1.26781 93.5643 1.51986 93.4649 1.79545C93.3655 2.07104 93.3222 2.36439 93.3376 2.6576V9.38543L89.5134 7.80315C89.192 7.67071 88.8436 7.62067 88.4988 7.65743C88.154 7.69419 87.8233 7.81662 87.5357 8.01398C87.2481 8.21135 87.0123 8.47763 86.8491 8.7895C86.6858 9.10137 86.6001 9.4493 86.5994 9.80281V19.77C86.5839 20.0632 86.6272 20.3565 86.7266 20.6321C86.826 20.9077 86.9794 21.1598 87.1775 21.3729C87.3756 21.586 87.6142 21.7558 87.8787 21.8718C88.1432 21.9878 88.4282 22.0476 88.7162 22.0476C89.0041 22.0476 89.2891 21.9878 89.5536 21.8718C89.8181 21.7558 90.0567 21.586 90.2548 21.3729C90.4529 21.1598 90.6063 20.9077 90.7057 20.6321C90.8051 20.3565 90.8484 20.0632 90.8329 19.77V13.0359L94.6572 14.6182C94.9782 14.7504 95.326 14.8005 95.6703 14.7641C96.0146 14.7276 96.3449 14.6058 96.6324 14.4091C96.9199 14.2125 97.1557 13.947 97.3194 13.636C97.483 13.3249 97.5695 12.9777 97.5712 12.6248Z"/>
<path class="icon-fill" d="M110.645 25.364C111.006 24.9523 111.2 24.4149 111.185 23.8622C111.17 23.3096 110.948 22.7837 110.565 22.3928C110.182 22.0018 109.666 21.7756 109.124 21.7605C108.582 21.7454 108.055 21.9426 107.651 22.3116L102.984 27.0709L101.377 23.1962C101.241 22.8712 101.03 22.5851 100.76 22.3629C100.491 22.1407 100.173 21.9892 99.8327 21.9216C99.4927 21.854 99.1417 21.8723 98.8103 21.9751C98.4789 22.0778 98.1772 22.2618 97.9317 22.5109L91.0407 29.5253C90.8261 29.7214 90.653 29.9601 90.5319 30.2267C90.4108 30.4933 90.3444 30.7823 90.3365 31.076C90.3286 31.3697 90.3795 31.6619 90.4862 31.9349C90.5928 32.2078 90.7528 32.4557 90.9566 32.6635C91.1603 32.8713 91.4034 33.0345 91.6711 33.1432C91.9388 33.2519 92.2254 33.3038 92.5134 33.2958C92.8015 33.2878 93.0848 33.22 93.3463 33.0965C93.6078 32.9731 93.8418 32.7965 94.0341 32.5778L98.7014 27.8184L100.308 31.6745C100.444 31.9994 100.656 32.2855 100.925 32.5077C101.194 32.7299 101.513 32.8814 101.853 32.9491C102.193 33.0167 102.544 32.9983 102.875 32.8956C103.206 32.7928 103.508 32.6089 103.754 32.3597L110.645 25.364Z"/>
</g>
<defs>
<clipPath id="clip0">
<rect x="0.492249" y="0.52713" width="110.769" height="32.686" fill="white"/>
</clipPath>
</defs>
</svg>