<svg width="165" height="115" viewBox="0 0 165 115" fill="none" xmlns="http://www.w3.org/2000/svg">
<style>.icon-fill {opacity: 0.24; fill: #AAAAAA; transition: 0.3s all;} .icon-fill.hovered {opacity: 1; fill: #C0001F;}</style>
<g clip-path="url(#clip0)">
<path d="M84.4425 49.3541C87.5651 49.3551 90.6178 48.4408 93.2146 46.727C95.8113 45.0132 97.8354 42.5769 99.0308 39.7262C100.226 36.8755 100.539 33.7384 99.9302 30.7119C99.3213 27.6854 97.8177 24.9053 95.6097 22.7233C93.4017 20.5413 90.5884 19.0555 87.5258 18.4537C84.4632 17.8519 81.2887 18.1613 78.404 19.3426C75.5193 20.5239 73.0539 22.5241 71.3197 25.0902C69.5855 27.6563 68.6603 30.6731 68.6613 33.7589C68.6663 37.8935 70.3306 41.8573 73.2891 44.7809C76.2475 47.7045 80.2586 49.3491 84.4425 49.3541Z" fill="#263568"/>
<path d="M84.4425 21.5314C86.8935 21.5314 89.2895 22.2496 91.3274 23.5953C93.3653 24.9409 94.9537 26.8536 95.8916 29.0913C96.8296 31.329 97.075 33.7913 96.5968 36.1669C96.1187 38.5425 94.9384 40.7246 93.2053 42.4372C91.4722 44.1499 89.2641 45.3163 86.8602 45.7888C84.4563 46.2613 81.9646 46.0188 79.7002 45.0919C77.4357 44.165 75.5003 42.5954 74.1386 40.5815C72.7769 38.5676 72.0501 36.1999 72.0501 33.7778C72.0501 30.5298 73.3557 27.4149 75.6798 25.1183C78.0038 22.8216 81.1559 21.5314 84.4425 21.5314Z" fill="white"/>
<path d="M85.8009 37.4705C85.9576 37.6355 86.1462 37.7676 86.3556 37.859C86.565 37.9504 86.7909 37.9993 87.0198 38.0026C87.2487 38.006 87.4759 37.9638 87.688 37.8786C87.9 37.7934 88.0926 37.6669 88.2541 37.5066C88.4157 37.3463 88.5429 37.1555 88.6283 36.9456C88.7137 36.7358 88.7555 36.511 88.7512 36.2848C88.7469 36.0587 88.6966 35.8357 88.6032 35.6291C88.5099 35.4225 88.3755 35.2366 88.2079 35.0825L86.1584 33.0665V25.5727C86.1584 25.3513 86.1143 25.132 86.0285 24.9274C85.9428 24.7228 85.8171 24.5369 85.6586 24.3804C85.5002 24.2238 85.3121 24.0996 85.1051 24.0148C84.898 23.9301 84.6761 23.8865 84.4521 23.8865C84.228 23.8865 84.0061 23.9301 83.7991 24.0148C83.5921 24.0996 83.404 24.2238 83.2455 24.3804C83.0871 24.5369 82.9614 24.7228 82.8756 24.9274C82.7899 25.132 82.7457 25.3513 82.7457 25.5727V33.7589C82.7461 34.206 82.9261 34.6346 83.2462 34.9506L85.8009 37.4705Z" fill="#263568"/>
<path d="M77.5171 68.0864H77.0881V67.6625C77.0986 67.4975 77.0747 67.3321 77.018 67.1766C76.9613 67.0211 76.8729 66.8787 76.7583 66.7582C76.6438 66.6377 76.5055 66.5417 76.3519 66.476C76.1984 66.4104 76.0329 66.3765 75.8656 66.3765C75.6983 66.3765 75.5328 66.4104 75.3792 66.476C75.2257 66.5417 75.0874 66.6377 74.9728 66.7582C74.8583 66.8787 74.7699 67.0211 74.7132 67.1766C74.6565 67.3321 74.6326 67.4975 74.643 67.6625V68.0864H74.2141C73.903 68.1056 73.6111 68.2413 73.3977 68.4657C73.1843 68.6902 73.0655 68.9866 73.0655 69.2946C73.0655 69.6026 73.1843 69.8989 73.3977 70.1234C73.6111 70.3479 73.903 70.4835 74.2141 70.5027H74.643V70.9266C74.6625 71.234 74.7997 71.5225 75.0269 71.7334C75.254 71.9443 75.5539 72.0617 75.8656 72.0617C76.1772 72.0617 76.4772 71.9443 76.7043 71.7334C76.9315 71.5225 77.0687 71.234 77.0881 70.9266V70.5027H77.5171C77.8282 70.4835 78.1201 70.3479 78.3335 70.1234C78.5469 69.8989 78.6657 69.6026 78.6657 69.2946C78.6657 68.9866 78.5469 68.6902 78.3335 68.4657C78.1201 68.2413 77.8282 68.1056 77.5171 68.0864Z" fill="#263568"/>
<path d="M75.868 72.3915C75.4799 72.3915 75.1077 72.2391 74.8333 71.9679C74.5589 71.6968 74.4047 71.329 74.4047 70.9455V70.757H74.2141C73.841 70.736 73.4903 70.5747 73.2338 70.3063C72.9772 70.0379 72.8343 69.6826 72.8343 69.3134C72.8343 68.9442 72.9772 68.5889 73.2338 68.3205C73.4903 68.0521 73.841 67.8908 74.2141 67.8697H74.4047V67.6813C74.426 67.3127 74.5892 66.9661 74.8609 66.7126C75.1325 66.4591 75.492 66.3178 75.8656 66.3178C76.2392 66.3178 76.5987 66.4591 76.8703 66.7126C77.142 66.9661 77.3052 67.3127 77.3265 67.6813V67.8697H77.5171C77.8901 67.8908 78.2409 68.0521 78.4974 68.3205C78.754 68.5889 78.8969 68.9442 78.8969 69.3134C78.8969 69.6826 78.754 70.0379 78.4974 70.3063C78.2409 70.5747 77.8901 70.736 77.5171 70.757H77.3265V70.9455C77.3265 71.3281 77.173 71.6952 76.8996 71.9663C76.6262 72.2373 76.2552 72.3902 75.868 72.3915ZM74.2188 68.3407C73.9696 68.3579 73.7363 68.4678 73.5659 68.6483C73.3955 68.8289 73.3007 69.0665 73.3007 69.3134C73.3007 69.5603 73.3955 69.7979 73.5659 69.9784C73.7363 70.159 73.9696 70.2689 74.2188 70.286H74.8861V70.9455C74.9035 71.1917 75.0147 71.4223 75.1974 71.5907C75.3801 71.7591 75.6206 71.8527 75.8704 71.8527C76.1202 71.8527 76.3607 71.7591 76.5433 71.5907C76.726 71.4223 76.8373 71.1917 76.8546 70.9455V70.286H77.5219C77.7711 70.2689 78.0044 70.159 78.1748 69.9784C78.3452 69.7979 78.44 69.5603 78.44 69.3134C78.44 69.0665 78.3452 68.8289 78.1748 68.6483C78.0044 68.4678 77.7711 68.3579 77.5219 68.3407H76.8546V67.6813C76.8373 67.4351 76.726 67.2045 76.5433 67.0361C76.3607 66.8677 76.1202 66.7741 75.8704 66.7741C75.6206 66.7741 75.3801 66.8677 75.1974 67.0361C75.0147 67.2045 74.9035 67.4351 74.8861 67.6813V68.3407H74.2188Z" fill="#263568"/>
<path d="M93.7559 68.0864H93.327V67.6625C93.3374 67.4975 93.3135 67.3321 93.2568 67.1766C93.2001 67.0211 93.1117 66.8787 92.9972 66.7582C92.8826 66.6377 92.7443 66.5417 92.5908 66.476C92.4372 66.4104 92.2717 66.3765 92.1044 66.3765C91.9371 66.3765 91.7716 66.4104 91.6181 66.476C91.4645 66.5417 91.3262 66.6377 91.2117 66.7582C91.0971 66.8787 91.0088 67.0211 90.952 67.1766C90.8953 67.3321 90.8714 67.4975 90.8819 67.6625V68.0864H90.4529C90.1418 68.1056 89.8499 68.2413 89.6365 68.4657C89.4231 68.6902 89.3043 68.9866 89.3043 69.2946C89.3043 69.6026 89.4231 69.8989 89.6365 70.1234C89.8499 70.3479 90.1418 70.4835 90.4529 70.5027H90.8819V70.9266C90.9013 71.234 91.0385 71.5225 91.2657 71.7334C91.4928 71.9443 91.7928 72.0617 92.1044 72.0617C92.4161 72.0617 92.716 71.9443 92.9431 71.7334C93.1703 71.5225 93.3075 71.234 93.327 70.9266V70.5027H93.7559C94.067 70.4835 94.3589 70.3479 94.5723 70.1234C94.7857 69.8989 94.9045 69.6026 94.9045 69.2946C94.9045 68.9866 94.7857 68.6902 94.5723 68.4657C94.3589 68.2413 94.067 68.1056 93.7559 68.0864Z" fill="#263568"/>
<path d="M92.102 72.3915C91.7139 72.3915 91.3417 72.2391 91.0673 71.9679C90.7929 71.6968 90.6387 71.329 90.6387 70.9455V70.757H90.4481C90.0751 70.736 89.7243 70.5747 89.4678 70.3063C89.2112 70.0379 89.0683 69.6826 89.0683 69.3134C89.0683 68.9442 89.2112 68.5889 89.4678 68.3205C89.7243 68.0521 90.0751 67.8908 90.4481 67.8697H90.6387V67.6813C90.66 67.3127 90.8232 66.9661 91.0949 66.7126C91.3665 66.4591 91.726 66.3178 92.0996 66.3178C92.4732 66.3178 92.8327 66.4591 93.1043 66.7126C93.376 66.9661 93.5392 67.3127 93.5605 67.6813V67.8697H93.7511C93.95 67.8585 94.1491 67.8875 94.3362 67.955C94.5233 68.0225 94.6945 68.127 94.8393 68.2621C94.9842 68.3973 95.0995 68.5603 95.1784 68.741C95.2572 68.9218 95.2979 69.1166 95.2979 69.3134C95.2979 69.5102 95.2572 69.705 95.1784 69.8858C95.0995 70.0665 94.9842 70.2295 94.8393 70.3646C94.6945 70.4998 94.5233 70.6043 94.3362 70.6718C94.1491 70.7393 93.95 70.7683 93.7511 70.757H93.5605V70.9455C93.5605 71.3281 93.407 71.6952 93.1336 71.9663C92.8602 72.2373 92.4892 72.3902 92.102 72.3915ZM90.4481 68.3407C90.1989 68.3579 89.9655 68.4678 89.7951 68.6483C89.6247 68.8289 89.53 69.0665 89.53 69.3134C89.53 69.5603 89.6247 69.7979 89.7951 69.9784C89.9655 70.159 90.1989 70.2689 90.4481 70.286H91.1154V70.9455C91.1327 71.1917 91.2439 71.4223 91.4266 71.5907C91.6093 71.7591 91.8498 71.8527 92.0996 71.8527C92.3494 71.8527 92.5899 71.7591 92.7726 71.5907C92.9553 71.4223 93.0665 71.1917 93.0838 70.9455V70.286H93.7511C93.8861 70.2953 94.0216 70.2771 94.1492 70.2324C94.2768 70.1877 94.3937 70.1176 94.4927 70.0264C94.5916 69.9351 94.6705 69.8248 94.7245 69.7021C94.7784 69.5794 94.8063 69.4471 94.8063 69.3134C94.8063 69.1796 94.7784 69.0473 94.7245 68.9247C94.6705 68.802 94.5916 68.6917 94.4927 68.6004C94.3937 68.5092 94.2768 68.4391 94.1492 68.3944C94.0216 68.3497 93.8861 68.3315 93.7511 68.3407H93.0838V67.6813C93.0665 67.4351 92.9553 67.2045 92.7726 67.0361C92.5899 66.8677 92.3494 66.7741 92.0996 66.7741C91.8498 66.7741 91.6093 66.8677 91.4266 67.0361C91.2439 67.2045 91.1327 67.4351 91.1154 67.6813V68.3407H90.4481Z" fill="#263568"/>
<path d="M113.207 78.8962C113.207 78.802 113.179 78.7125 113.164 78.6183C113.136 78.4252 113.107 78.2321 113.064 78.0389C113.064 77.9447 113.017 77.8505 112.993 77.7563C112.945 77.5679 112.893 77.3795 112.831 77.1958C112.802 77.1111 112.769 77.031 112.74 76.9509C112.669 76.7531 112.588 76.56 112.497 76.3716C112.497 76.3339 112.468 76.3009 112.454 76.2632L112.421 76.2067C111.59 74.5114 110.186 73.1567 108.45 72.3774H108.408H108.35C108.141 72.2832 107.926 72.2031 107.707 72.1277L107.564 72.0759C107.349 72.0053 107.135 71.9487 106.911 71.9016L106.744 71.8592C106.53 71.8121 106.31 71.7792 106.086 71.7509L105.915 71.7274C105.636 71.6976 105.356 71.6819 105.076 71.6803V63.8049C105.066 61.9992 104.495 60.2399 103.441 58.7651C103.046 58.2077 102.583 57.6999 102.064 57.2531C101.351 56.618 100.51 56.1388 99.5966 55.8466C98.6833 55.5544 97.7179 55.4559 96.7635 55.5575H96.5681C92.4045 56.1772 88.2003 56.4921 83.9898 56.4995C79.7792 56.4921 75.575 56.1772 71.4115 55.5575H71.2161C70.2616 55.4559 69.2962 55.5544 68.383 55.8466C67.4697 56.1388 66.629 56.618 65.9159 57.2531C65.3577 57.7356 64.8657 58.2883 64.4527 58.8969C63.4498 60.3479 62.9087 62.062 62.8988 63.819V71.6426C62.6186 71.6442 62.3386 71.66 62.06 71.6897L61.8884 71.7132C61.6691 71.7415 61.4499 71.7745 61.2306 71.8216L61.0638 71.864C60.8446 71.9158 60.6253 71.9723 60.4156 72.0382L60.2726 72.09C60.0534 72.1654 59.8389 72.2455 59.6292 72.3397H59.572H59.5291C57.7939 73.119 56.3893 74.4737 55.5587 76.169L55.5254 76.2255C55.5254 76.2585 55.4968 76.2962 55.4825 76.3339C55.3919 76.5223 55.3156 76.7154 55.2394 76.9132C55.2108 76.9933 55.1774 77.0781 55.1488 77.1582C55.0869 77.3419 55.0344 77.5303 54.9868 77.7187C54.9629 77.8129 54.9343 77.9071 54.9153 78.0013C54.8724 78.1897 54.8438 78.3828 54.8152 78.5806C54.8152 78.6748 54.7818 78.7643 54.7723 78.8585C54.7411 79.1464 54.7252 79.4357 54.7246 79.7252C54.7226 81.0486 55.046 82.3527 55.6671 83.5252C56.2881 84.6976 57.1882 85.7034 58.2898 86.456C58.4392 86.5564 58.598 86.6522 58.7665 86.7433V102.094C58.7665 103.693 59.4092 105.226 60.5534 106.357C61.6975 107.487 63.2493 108.123 64.8673 108.123H66.016V111.806C66.016 112.431 66.2671 113.03 66.714 113.471C67.1609 113.913 67.7671 114.161 68.3992 114.161H70.3772C71.0092 114.161 71.6154 113.913 72.0623 113.471C72.5093 113.03 72.7603 112.431 72.7603 111.806V108.123H95.2478V111.806C95.2478 112.431 95.4989 113.03 95.9458 113.471C96.3927 113.913 96.9989 114.161 97.631 114.161H99.609C100.241 114.161 100.847 113.913 101.294 113.471C101.741 113.03 101.992 112.431 101.992 111.806V108.123H103.093C103.895 108.123 104.689 107.968 105.43 107.665C106.171 107.362 106.845 106.917 107.412 106.357C107.979 105.796 108.429 105.131 108.735 104.399C109.042 103.666 109.199 102.881 109.199 102.089V86.7621C109.354 86.6711 109.513 86.5753 109.675 86.4748C110.78 85.7268 111.685 84.7246 112.311 83.5546C112.937 82.3845 113.266 81.0817 113.269 79.7582C113.264 79.47 113.243 79.1823 113.207 78.8962ZM101.42 72.4763L101.287 72.5469C99.9334 73.253 98.8004 74.3101 98.0093 75.6047C97.2183 76.8993 96.7991 78.3824 96.7969 79.8947V87.2049H71.1589V79.8947C71.1566 78.3824 70.7375 76.8993 69.9464 75.6047C69.1553 74.3101 68.0223 73.253 66.669 72.5469L66.5355 72.4763L66.445 72.4339C66.0819 72.257 65.7059 72.1075 65.3201 71.9864V63.8049C65.3327 62.4486 65.7762 61.1305 66.588 60.0368C66.852 59.6808 67.1558 59.3553 67.4936 59.0665C67.9669 58.6373 68.5298 58.3162 69.1426 58.1257C69.7554 57.9352 70.403 57.8802 71.0397 57.9643C75.3215 58.6036 79.6451 58.9295 83.9755 58.9393C88.3058 58.9295 92.6295 58.6036 96.9112 57.9643C97.5479 57.8802 98.1956 57.9352 98.8083 58.1257C99.4211 58.3162 99.9841 58.6373 100.457 59.0665C100.795 59.3553 101.099 59.6808 101.363 60.0368C102.175 61.1305 102.618 62.4486 102.631 63.8049V71.9864C102.245 72.1075 101.869 72.257 101.506 72.4339L101.42 72.4763ZM71.1589 94.7128V89.6259H96.7969V94.7175C96.7931 95.0253 96.6671 95.3193 96.4459 95.5361C96.2248 95.7529 95.9263 95.875 95.6148 95.8762H72.3552C72.1993 95.8775 72.0448 95.8484 71.9003 95.7906C71.7558 95.7328 71.6243 95.6474 71.5132 95.5394C71.4021 95.4314 71.3136 95.3028 71.2528 95.1609C71.192 95.0191 71.1601 94.8669 71.1589 94.7128ZM68.4516 111.745V108.123H70.2628V111.726L68.4516 111.745ZM99.4993 111.745H97.6882V108.123H99.4993V111.745ZM64.8673 105.725C63.8981 105.724 62.969 105.343 62.2837 104.666C61.5984 103.988 61.2128 103.07 61.2116 102.112V86.0368C61.2118 85.8065 61.1456 85.5809 61.0206 85.3865C60.8957 85.1921 60.7172 85.037 60.5062 84.9393C59.5104 84.4769 58.668 83.7444 58.0773 82.827C57.4866 81.9097 57.1719 80.8454 57.1697 79.7582C57.1702 79.5552 57.1813 79.3524 57.2031 79.1505C57.2031 79.0799 57.2031 79.014 57.2365 78.9433C57.2698 78.8726 57.2746 78.6795 57.3032 78.5524C57.3318 78.4252 57.3413 78.4111 57.3604 78.3357C57.3795 78.2603 57.4271 78.0813 57.47 77.9589C57.5129 77.8364 57.5177 77.8317 57.5415 77.7705C57.5653 77.7092 57.6464 77.5067 57.7036 77.3795C58.2958 76.0913 59.3553 75.0694 60.673 74.5158C60.7969 74.464 60.9208 74.4169 61.0447 74.3745L61.2545 74.3038C61.3784 74.2661 61.5071 74.2332 61.631 74.2049L61.8503 74.1531C61.9885 74.1248 62.1267 74.1107 62.2697 74.0919L62.4556 74.0683C62.662 74.0578 62.8688 74.0578 63.0752 74.0683C63.2468 74.0683 63.4184 74.0683 63.59 74.106H63.7282L64.0904 74.1672L64.3192 74.219L64.6147 74.3038L64.8387 74.3745L65.1247 74.4875L65.3344 74.577L65.6156 74.723L65.8063 74.8219C65.9112 74.8832 66.0112 74.9491 66.1161 75.0198L66.2543 75.1092C66.3941 75.2097 66.5308 75.3165 66.6642 75.4295L66.8025 75.5567C66.8835 75.6321 66.9693 75.7074 67.0455 75.7875L67.2028 75.9571C67.2696 76.0324 67.3363 76.1031 67.3982 76.1784L67.546 76.3716C67.6032 76.4469 67.6604 76.5223 67.7128 76.6024L67.8463 76.8143C67.8939 76.8944 67.9464 76.9745 67.9893 77.0545L68.1084 77.2759C68.1513 77.3607 68.1894 77.4455 68.2276 77.5303C68.2657 77.615 68.2943 77.6857 68.3277 77.7658C68.361 77.8458 68.3944 77.9447 68.423 78.0342C68.4516 78.1237 68.4754 78.1944 68.4993 78.2745C68.5231 78.3545 68.5469 78.4629 68.5708 78.5618C68.5946 78.6607 68.6089 78.7219 68.628 78.8067C68.647 78.8915 68.6613 79.0139 68.6756 79.1176C68.6899 79.2212 68.6994 79.273 68.709 79.3484C68.7185 79.4237 68.709 79.6263 68.709 79.7676C68.709 79.8147 68.709 79.8571 68.709 79.9042V94.7223C68.7102 95.6738 69.0933 96.586 69.7741 97.2588C70.455 97.9316 71.378 98.3101 72.3409 98.3114H95.6005C96.5634 98.3101 97.4864 97.9316 98.1673 97.2588C98.8481 96.586 99.2312 95.6738 99.2324 94.7223V79.8947C99.2324 79.8476 99.2324 79.8053 99.2324 79.7582C99.2324 79.6168 99.2324 79.4803 99.2324 79.3389C99.2324 79.1976 99.2324 79.1835 99.2658 79.1081C99.2992 79.0328 99.2944 78.8962 99.3135 78.7973C99.3325 78.6984 99.3516 78.6324 99.3707 78.5524C99.3897 78.4723 99.4136 78.3592 99.4422 78.265C99.4707 78.1708 99.4946 78.1049 99.5184 78.0248C99.5422 77.9447 99.5804 77.8458 99.6137 77.7563C99.6471 77.6668 99.6805 77.6009 99.7138 77.5208C99.7472 77.4408 99.7901 77.3513 99.833 77.2665L99.9522 77.0451C99.9998 76.965 100.047 76.885 100.095 76.8049L100.229 76.5929C100.281 76.5129 100.338 76.4375 100.395 76.3621L100.543 76.169C100.605 76.0937 100.672 76.0183 100.739 75.9476L100.896 75.7781C100.972 75.698 101.058 75.6226 101.139 75.5473L101.277 75.4201C101.407 75.3071 101.544 75.2003 101.687 75.0998L101.825 75.0103C101.925 74.9444 102.025 74.8737 102.135 74.8125L102.326 74.7136L102.607 74.5676L102.817 74.4781L103.103 74.365L103.327 74.2944L103.622 74.2096L103.851 74.1578L104.213 74.0966H104.351C104.523 74.0966 104.695 74.0636 104.866 74.0589C105.073 74.0484 105.279 74.0484 105.486 74.0589L105.672 74.0824C105.81 74.0824 105.953 74.1154 106.091 74.1437L106.31 74.1955C106.439 74.2237 106.563 74.2567 106.687 74.2944L106.897 74.365C107.021 74.4074 107.149 74.4545 107.268 74.5063C108.587 75.0611 109.647 76.0848 110.238 77.3748C110.3 77.502 110.352 77.6339 110.4 77.7658C110.448 77.8976 110.448 77.8929 110.471 77.9542C110.495 78.0154 110.548 78.2038 110.581 78.331C110.614 78.4582 110.619 78.4723 110.638 78.5476C110.657 78.623 110.686 78.8067 110.705 78.9386C110.724 79.0705 110.705 79.0752 110.738 79.1458C110.76 79.3477 110.771 79.5505 110.772 79.7534C110.77 80.8407 110.455 81.905 109.864 82.8223C109.273 83.7396 108.431 84.4722 107.435 84.9346C107.224 85.0323 107.046 85.1874 106.921 85.3818C106.796 85.5762 106.73 85.8018 106.73 86.0321V102.108C106.729 103.066 106.343 103.984 105.658 104.661C104.972 105.338 104.043 105.719 103.074 105.72L64.8673 105.725Z" fill="#263568"/>
<path d="M99.5899 114.401H97.6119C97.2683 114.403 96.9277 114.338 96.6098 114.209C96.2918 114.081 96.0027 113.891 95.7591 113.652C95.5155 113.412 95.3221 113.128 95.1902 112.814C95.0583 112.501 94.9904 112.164 94.9904 111.825V108.377H72.9605V111.825C72.9592 112.506 72.6847 113.16 72.1969 113.642C71.7091 114.124 71.0479 114.395 70.3581 114.397H68.3801C67.6903 114.395 67.0291 114.124 66.5413 113.642C66.0535 113.16 65.7789 112.506 65.7777 111.825V108.377H64.8673C64.0348 108.377 63.2105 108.215 62.4414 107.9C61.6723 107.585 60.9735 107.124 60.3848 106.542C59.7962 105.96 59.3292 105.27 59.0107 104.51C58.6921 103.75 58.5281 102.935 58.5281 102.112V86.8987L58.1754 86.6727C57.0361 85.9046 56.1037 84.8733 55.4591 83.6683C54.8146 82.4633 54.4773 81.1211 54.4767 79.7582C54.4769 79.4608 54.4928 79.1637 54.5244 78.868C54.5244 78.8067 54.5244 78.7455 54.553 78.6843V78.5806C54.5816 78.3828 54.6102 78.1803 54.6531 77.9872C54.6531 77.9165 54.6865 77.8459 54.7055 77.7752V77.6904C54.7532 77.4973 54.8104 77.3042 54.8723 77.1111C54.8962 77.031 54.9295 76.9556 54.9581 76.8803C55.0439 76.6542 55.125 76.4564 55.2155 76.2585L55.2632 76.1455L55.3013 76.0843C56.1562 74.3425 57.5991 72.95 59.3813 72.1466L59.4671 72.1042C59.6959 72.0053 59.9199 71.9205 60.1439 71.8451L60.2869 71.7933C60.5109 71.7227 60.7349 71.6614 60.9589 71.6096H61.0257L61.1305 71.5861C61.3545 71.539 61.5786 71.506 61.8073 71.4777H61.8788H61.9837C62.1982 71.4777 62.4079 71.4401 62.6081 71.4354V63.8049C62.6208 62.001 63.1766 60.2416 64.2048 58.751C64.6301 58.1249 65.1365 57.5564 65.7109 57.06C66.451 56.4064 67.3218 55.9139 68.2669 55.6145C69.212 55.315 70.2103 55.2154 71.197 55.322H71.2732H71.4019C79.7153 56.5984 88.1784 56.5984 96.4918 55.322H96.6205H96.6967C97.683 55.2148 98.6811 55.3137 99.6262 55.6123C100.571 55.9109 101.442 56.4025 102.183 57.0553C102.722 57.5185 103.203 58.0452 103.613 58.6238C104.695 60.1407 105.28 61.949 105.29 63.8049V71.3835C105.495 71.3835 105.7 71.3835 105.915 71.4259H106.024H106.096C106.325 71.4542 106.549 71.4872 106.773 71.5343L106.887 71.5625H106.949C107.173 71.6143 107.397 71.6709 107.616 71.7415L107.759 71.7933C107.983 71.8687 108.207 71.9535 108.422 72.0477L108.527 72.0948C110.327 72.9096 111.778 74.3256 112.626 76.0937L112.664 76.1502L112.692 76.2256C112.802 76.4611 112.883 76.6589 112.959 76.8614C112.998 76.9604 113.026 77.0357 113.055 77.1158C113.117 77.3089 113.174 77.502 113.222 77.6951V77.7752C113.222 77.8459 113.26 77.9165 113.274 77.9872C113.317 78.185 113.345 78.3828 113.374 78.5806V78.6843C113.374 78.7455 113.374 78.8067 113.403 78.868C113.434 79.1637 113.45 79.4608 113.45 79.7582C113.449 81.1203 113.111 82.4616 112.467 83.6657C111.822 84.8698 110.89 85.9003 109.752 86.6679L109.399 86.894V102.108C109.4 103.764 108.738 105.354 107.556 106.529C106.374 107.704 104.769 108.368 103.093 108.377H102.183V111.825C102.183 112.506 101.91 113.159 101.424 113.642C100.938 114.124 100.279 114.398 99.5899 114.401ZM72.4839 107.906H95.467V111.825C95.4683 112.382 95.6927 112.915 96.091 113.309C96.4894 113.703 97.0294 113.924 97.5928 113.926H99.5708C100.134 113.924 100.674 113.703 101.073 113.309C101.471 112.915 101.695 112.382 101.697 111.825V107.906H103.093C104.542 107.91 105.941 107.382 107.019 106.425C108.097 105.468 108.777 104.149 108.927 102.725C108.947 102.528 108.956 102.33 108.956 102.131V86.6303L109.075 86.5596C109.227 86.4701 109.37 86.3806 109.513 86.2817C110.589 85.5574 111.469 84.5845 112.078 83.4477C112.687 82.3109 113.006 81.0444 113.007 79.7582C113.006 79.4765 112.99 79.1951 112.959 78.9151C112.959 78.8633 112.959 78.8114 112.959 78.7596V78.6466C112.931 78.4582 112.902 78.2698 112.864 78.0861C112.864 78.0248 112.835 77.9589 112.816 77.8977V77.8129C112.769 77.6292 112.716 77.4455 112.659 77.2665C112.659 77.1959 112.607 77.1252 112.583 77.0546C112.502 76.8379 112.426 76.6495 112.34 76.4658L112.311 76.3998L112.268 76.3198C111.462 74.6686 110.096 73.3487 108.408 72.5893L108.312 72.547C108.112 72.4575 107.902 72.3774 107.688 72.3067L107.55 72.2549C107.345 72.189 107.135 72.1325 106.92 72.0854L106.758 72.043C106.549 72.0006 106.339 71.9676 106.125 71.9393L105.953 71.9158C105.684 71.8867 105.413 71.871 105.143 71.8687H104.904V63.8049C104.894 62.0466 104.338 60.3337 103.312 58.897C102.927 58.35 102.476 57.8517 101.968 57.4133C101.271 56.7957 100.449 56.3318 99.5567 56.0524C98.6642 55.7731 97.7218 55.6846 96.7921 55.793H96.692H96.6014C88.2421 57.0758 79.7326 57.0758 71.3733 55.793H71.2828H71.1827C70.2611 55.6937 69.3286 55.787 68.4459 56.067C67.5632 56.3469 66.7499 56.8072 66.0589 57.418C65.5132 57.8875 65.0324 58.4259 64.629 59.0194C63.6536 60.432 63.1259 62.0996 63.1133 63.8096V71.8546H62.875C62.6027 71.8567 62.3307 71.8724 62.0599 71.9017L61.8931 71.9252C61.6786 71.9535 61.4642 71.9864 61.2544 72.0288L61.0924 72.0712C60.8779 72.1183 60.6682 72.1749 60.4632 72.2408L60.325 72.2879C60.1105 72.3585 59.9056 72.4386 59.6959 72.5281H59.6434H59.6053C57.9199 73.2856 56.5557 74.602 55.7494 76.2491L55.6969 76.3433L55.6683 76.4093C55.5825 76.593 55.5063 76.7814 55.4348 76.9698C55.3966 77.0687 55.368 77.1393 55.3442 77.21C55.2823 77.389 55.2346 77.5727 55.1869 77.7564V77.8459C55.1869 77.9071 55.1536 77.973 55.1393 78.0343C55.1011 78.218 55.0725 78.4064 55.0439 78.5948V78.7078C55.0439 78.7596 55.0439 78.8114 55.0439 78.8633C55.0132 79.1433 54.9973 79.4247 54.9963 79.7064C54.997 80.9922 55.3151 82.2584 55.9231 83.3952C56.5311 84.532 57.4106 85.505 58.4852 86.2299C58.6282 86.3288 58.776 86.4183 58.9285 86.5078L59.0476 86.5785V102.061C59.047 102.259 59.0565 102.457 59.0762 102.654C59.2262 104.079 59.9061 105.397 60.984 106.355C62.0618 107.312 63.461 107.84 64.9102 107.835H66.2972V111.754C66.2985 112.311 66.5228 112.845 66.9212 113.238C67.3196 113.632 67.8596 113.854 68.423 113.855H70.401C70.9644 113.854 71.5044 113.632 71.9028 113.238C72.3011 112.845 72.5255 112.311 72.5268 111.754L72.4839 107.906ZM99.7567 111.98H97.4689V107.906H99.7567V111.98ZM97.9455 111.509H99.2801V108.377H97.9455V111.509ZM70.5249 111.98H68.2371V107.906H70.5249V111.98ZM68.7137 111.509H70.0483V108.377H68.7137V111.509ZM103.093 105.961H64.8673C63.8349 105.959 62.8452 105.554 62.1152 104.832C61.3852 104.111 60.9745 103.133 60.9732 102.112V86.0368C60.9729 85.8519 60.9194 85.671 60.819 85.515C60.7186 85.3591 60.5753 85.2346 60.406 85.156C59.2662 84.6342 58.3207 83.7722 57.7025 82.6916C57.0844 81.6109 56.8247 80.3659 56.96 79.1317C56.96 79.0846 56.96 79.0375 56.96 78.9904V78.9151C56.96 78.7785 56.9981 78.6419 57.0315 78.5053C57.0315 78.4535 57.0553 78.3969 57.0696 78.3451V78.2792C57.103 78.1473 57.1411 78.0154 57.184 77.8882L57.2364 77.7375V77.6904C57.2889 77.5538 57.3461 77.4172 57.408 77.2806C58.0255 75.9383 59.129 74.873 60.5014 74.2944C60.6301 74.2379 60.7587 74.1908 60.8922 74.1437L61.1115 74.0683C61.2401 74.0306 61.3736 73.9977 61.5023 73.9647H61.5738L61.7311 73.9317C61.8741 73.9035 62.0218 73.8846 62.1648 73.8705H62.2411H62.3602C62.589 73.8705 62.7987 73.847 63.0037 73.8705C63.2086 73.8941 63.3612 73.8705 63.5423 73.9082H63.69L64.0666 73.9741L64.3049 74.0259L64.6099 74.1107L64.8435 74.1861L65.1438 74.3038H65.1962L65.363 74.3745L65.649 74.5205L65.7252 74.5582L65.8539 74.6288C65.9636 74.6948 66.0684 74.7607 66.1733 74.8314L66.2257 74.8643L66.3163 74.9209C66.464 75.0245 66.607 75.1375 66.7452 75.2553L66.8406 75.3401L66.9311 75.4248C67.0026 75.4908 67.0789 75.5567 67.1456 75.6274L67.2648 75.7546L67.3077 75.8017C67.3839 75.8864 67.4506 75.9571 67.5126 76.0325L67.6461 76.202C67.7271 76.3104 67.7843 76.3904 67.8415 76.4705L67.9845 76.6919C68.0369 76.7719 68.0846 76.8567 68.1322 76.9415L68.2562 77.1723C68.2991 77.2618 68.3419 77.3466 68.3801 77.4361L68.4802 77.6763C68.5183 77.7705 68.5469 77.86 68.5803 77.9542C68.6136 78.0484 68.6375 78.1285 68.6613 78.2038C68.6851 78.2792 68.709 78.3828 68.7328 78.477V78.5618C68.7328 78.623 68.7614 78.689 68.7757 78.7549C68.79 78.8209 68.8043 78.9339 68.8186 79.0281V79.1647C68.8186 79.2165 68.8186 79.273 68.8186 79.3248C68.8186 79.4661 68.8186 79.6122 68.8186 79.7582V79.81C68.8186 79.8382 68.8186 79.8712 68.8186 79.8995V94.7176C68.8198 95.6066 69.1778 96.4589 69.8139 97.0876C70.4501 97.7162 71.3125 98.07 72.2122 98.0712H95.4718C96.3715 98.07 97.2339 97.7162 97.87 97.0876C98.5062 96.4589 98.8641 95.6066 98.8654 94.7176V79.8948C98.8654 79.8665 98.8654 79.8335 98.8654 79.8053V79.7535C98.8654 79.6075 98.8654 79.4614 98.8654 79.3201C98.8654 79.2683 98.8654 79.2118 98.8654 79.16V79.0281C98.8654 78.9339 98.8892 78.8444 98.9083 78.7549C98.9274 78.6654 98.9369 78.6277 98.9512 78.5618V78.5053C98.9798 78.3875 98.9989 78.298 99.0275 78.2085C99.0561 78.119 99.0751 78.0578 99.099 77.9825C99.1228 77.9071 99.1705 77.7705 99.2086 77.6763L99.3087 77.4361C99.3516 77.3466 99.3897 77.2571 99.4326 77.1676L99.5565 76.9368C99.6042 76.852 99.6566 76.7672 99.7043 76.6872L99.8425 76.4705C99.8997 76.3857 99.9569 76.3104 100.019 76.2303L100.171 76.0325C100.233 75.9571 100.3 75.8864 100.367 75.8111L100.419 75.7546L100.538 75.6274C100.61 75.552 100.686 75.4861 100.762 75.4154L100.843 75.3401L100.939 75.2506C101.075 75.1344 101.217 75.0245 101.363 74.9209L101.454 74.8643L101.506 74.8314C101.611 74.7607 101.716 74.6901 101.825 74.6288L101.954 74.5582L102.016 74.5252L102.311 74.3745L102.483 74.2991H102.531L102.826 74.1814L103.041 74.1107L103.365 74.0165L103.603 73.9647L103.98 73.8988H104.127C104.309 73.8988 104.485 73.8658 104.666 73.8611C104.88 73.8501 105.095 73.8501 105.309 73.8611H105.429H105.5C105.648 73.8611 105.796 73.8988 105.939 73.9223L106.096 73.9553H106.167C106.301 73.9883 106.43 74.0165 106.563 74.0589L106.754 74.1201C106.911 74.1767 107.044 74.2238 107.173 74.2803C108.545 74.8593 109.649 75.9245 110.266 77.2665C110.328 77.4031 110.386 77.5397 110.438 77.6763V77.7234L110.49 77.8741C110.533 78.0013 110.571 78.1332 110.605 78.2651V78.3404C110.605 78.3922 110.633 78.4393 110.643 78.4911C110.672 78.6277 110.691 78.7643 110.714 78.9009V78.9763C110.714 79.0234 110.714 79.0705 110.714 79.1176C110.85 80.3518 110.59 81.5968 109.972 82.6774C109.354 83.7581 108.408 84.62 107.268 85.1419C107.099 85.2204 106.956 85.345 106.855 85.5009C106.755 85.6569 106.702 85.8378 106.701 86.0227V102.098C106.706 103.074 106.337 104.015 105.667 104.732C104.998 105.449 104.078 105.888 103.093 105.961ZM62.9655 74.285C62.7987 74.285 62.6319 74.285 62.4651 74.285H62.3745H62.2887C62.1553 74.285 62.0218 74.318 61.8884 74.3415L61.7549 74.3698H61.6786C61.5595 74.398 61.4356 74.4263 61.3164 74.464L61.1448 74.5205C60.9923 74.5723 60.8731 74.6194 60.7587 74.6665C59.4906 75.1973 58.4701 76.1789 57.899 77.4172C57.8418 77.5397 57.7893 77.6669 57.7417 77.794V77.8411L57.694 77.973C57.6559 78.0908 57.6225 78.2132 57.5891 78.3357V78.4064C57.5891 78.4535 57.5653 78.4959 57.5558 78.543C57.5272 78.6654 57.5081 78.7926 57.4938 78.9198V78.9998C57.4938 79.0375 57.4938 79.0752 57.4938 79.1129C57.4723 79.3069 57.4612 79.5018 57.4605 79.6969C57.4636 80.7393 57.7663 81.7593 58.3333 82.6382C58.9004 83.5172 59.7085 84.2188 60.6634 84.6614C60.9155 84.7779 61.1287 84.9629 61.2781 85.1948C61.4275 85.4267 61.5069 85.6959 61.5071 85.9708V102.047C61.5083 102.942 61.8688 103.8 62.5094 104.433C63.15 105.066 64.0185 105.422 64.9245 105.424H103.093C103.999 105.422 104.868 105.066 105.508 104.433C106.149 103.8 106.509 102.942 106.511 102.047V86.0368C106.511 85.7619 106.59 85.4926 106.74 85.2607C106.889 85.0288 107.102 84.8438 107.354 84.7274C108.309 84.2847 109.117 83.5831 109.684 82.7042C110.251 81.8253 110.554 80.8052 110.557 79.7629C110.556 79.5678 110.545 79.3728 110.524 79.1788C110.524 79.1411 110.524 79.1035 110.524 79.0658V78.981C110.524 78.8538 110.486 78.7314 110.462 78.6042C110.462 78.5618 110.462 78.5194 110.428 78.477V78.3969C110.395 78.2792 110.367 78.1567 110.324 78.039L110.276 77.9071V77.86C110.228 77.7328 110.176 77.6056 110.119 77.4832C109.547 76.2448 108.527 75.2632 107.259 74.7325C107.14 74.6806 107.021 74.6383 106.901 74.5959L106.701 74.5252C106.582 74.4875 106.463 74.4593 106.339 74.431H106.263L106.129 74.4027C105.996 74.3792 105.862 74.3604 105.729 74.3462H105.643H105.548C105.352 74.3462 105.152 74.3462 104.957 74.3462C104.761 74.3462 104.628 74.3462 104.48 74.3792H104.347L104.003 74.4404L103.784 74.4922L103.503 74.5723L103.293 74.6383L103.017 74.7466H102.969L102.817 74.8125L102.555 74.9444L102.474 74.9868L102.364 75.0433C102.264 75.1046 102.164 75.1658 102.068 75.2317L101.935 75.3165C101.801 75.4107 101.668 75.5143 101.544 75.6227L101.468 75.6933L101.411 75.7451C101.311 75.8346 101.239 75.9006 101.177 75.9665L101.072 76.0796L101.029 76.1314C100.958 76.2114 100.896 76.2774 100.839 76.348L100.72 76.5035C100.638 76.6071 100.586 76.6825 100.534 76.7578L100.405 76.9604C100.357 77.0357 100.31 77.1158 100.267 77.1912L100.152 77.4078C100.109 77.4879 100.071 77.5727 100.038 77.6527C100.005 77.7328 99.9712 77.7988 99.9426 77.8788C99.914 77.9589 99.8806 78.0484 99.8473 78.1379C99.8139 78.2274 99.7948 78.298 99.771 78.3687C99.7472 78.4393 99.7281 78.5335 99.709 78.6183V78.7031C99.709 78.7596 99.6804 78.8161 99.6709 78.8774C99.6614 78.9386 99.6423 79.0422 99.6328 79.127V79.2636C99.6328 79.3107 99.6328 79.3531 99.6328 79.4002C99.6328 79.5321 99.6328 79.6687 99.6328 79.8006V94.7505C99.6315 95.7645 99.2234 96.7366 98.4978 97.4536C97.7723 98.1706 96.7886 98.5739 95.7625 98.5752H72.3552C71.3291 98.5739 70.3454 98.1706 69.6199 97.4536C68.8944 96.7366 68.4862 95.7645 68.4849 94.7505V79.7676C68.4849 79.6357 68.4849 79.4991 68.4849 79.3672C68.4849 79.3201 68.4849 79.2777 68.4849 79.2306V79.0893C68.4849 79.0046 68.4849 78.9245 68.4468 78.8444C68.4087 78.7643 68.423 78.7314 68.4087 78.6748V78.6089C68.3848 78.5006 68.3658 78.4158 68.3419 78.3357C68.3181 78.2556 68.2991 78.1991 68.2752 78.1285C68.2514 78.0578 68.2085 77.9306 68.1751 77.8459C68.1418 77.7611 68.1132 77.6951 68.0798 77.6198C68.0464 77.5444 68.0035 77.4549 67.9654 77.3748L67.851 77.1582C67.8081 77.0781 67.7605 77.0027 67.7128 76.9274L67.5841 76.7248L67.422 76.5035L67.2791 76.3198L67.1027 76.1172L67.0455 76.056L66.9407 75.943L66.7452 75.7593L66.6499 75.6698L66.5736 75.6038C66.445 75.4955 66.3163 75.3919 66.178 75.2977L66.0446 75.2129C65.9493 75.1469 65.8492 75.081 65.7491 75.0245L65.6394 74.968L65.568 74.9303L65.2963 74.7937L65.1485 74.7325H65.0961L64.8196 74.6241L64.6338 74.5629L64.3287 74.4734L64.1095 74.4263L63.7663 74.3651H63.6328C63.4708 74.3651 63.3087 74.3321 63.1562 74.3321L62.9655 74.285ZM95.6148 96.1212H72.3552C71.976 96.1212 71.6123 95.9723 71.3441 95.7073C71.0759 95.4423 70.9253 95.0829 70.9253 94.7082V89.3904H97.0351V94.7176C97.0326 95.0891 96.8822 95.4447 96.6164 95.7074C96.3505 95.9701 95.9907 96.1187 95.6148 96.1212ZM71.4067 89.8614V94.7176C71.4067 94.9674 71.5071 95.207 71.6859 95.3837C71.8647 95.5603 72.1071 95.6596 72.3599 95.6596H95.6195C95.8724 95.6596 96.1148 95.5603 96.2936 95.3837C96.4724 95.207 96.5728 94.9674 96.5728 94.7176V89.8614H71.4067ZM97.0351 87.4451H70.9301V79.9089C70.9329 78.4385 70.5278 76.9954 69.759 75.7365C68.9901 74.4776 67.8868 73.451 66.5689 72.7683L66.3544 72.66C66.0005 72.4885 65.6341 72.3437 65.2581 72.2267L65.0913 72.1749V63.8049C65.104 62.4014 65.5588 61.0366 66.3925 59.9002C66.671 59.53 66.9908 59.1919 67.3458 58.8923C67.8433 58.4379 68.4362 58.0976 69.0821 57.8957C69.7281 57.6938 70.4111 57.6352 71.0826 57.7241C79.6361 59.0366 88.3434 59.0366 96.8969 57.7241C97.5673 57.635 98.2493 57.6921 98.8949 57.8914C99.5405 58.0908 100.134 58.4276 100.634 58.8781C100.989 59.1792 101.309 59.5189 101.587 59.8908C102.424 61.026 102.882 62.3909 102.898 63.7955V72.1513L102.731 72.2031C102.357 72.3203 101.992 72.4651 101.639 72.6364H101.587L101.444 72.4433L101.554 72.6553L101.425 72.7259C100.107 73.4086 99.0037 74.4352 98.2348 75.6941C97.466 76.953 97.0609 78.3961 97.0637 79.8665L97.0351 87.4451ZM71.4067 86.9741H96.5585V79.9089C96.5515 78.3469 96.9796 76.8131 97.7959 75.4756C98.6122 74.138 99.7853 73.0482 101.187 72.3256L101.239 72.2973L101.32 72.2549L101.382 72.2267C101.714 72.066 102.057 71.9259 102.407 71.8075V63.8002C102.391 62.4969 101.964 61.2308 101.187 60.1781C100.934 59.8328 100.643 59.5168 100.319 59.2361C99.8736 58.8322 99.3442 58.5294 98.7679 58.3488C98.1916 58.1682 97.5823 58.1141 96.9827 58.1904C88.3864 59.5078 79.636 59.5078 71.0397 58.1904C70.4401 58.1145 69.8309 58.1687 69.2547 58.3493C68.6784 58.5299 68.149 58.8325 67.7033 59.2361C67.3791 59.5168 67.0881 59.8328 66.8358 60.1781C66.057 61.2321 65.6304 62.5 65.6156 63.8049V71.8122C65.9545 71.9262 66.2856 72.0615 66.607 72.2172L66.7023 72.2596L66.7834 72.302L66.8358 72.3303C68.2278 73.0509 69.3939 74.134 70.2079 75.4623C71.022 76.7906 71.453 78.3136 71.4543 79.8665L71.4067 86.9741Z" fill="#263568"/>
</g>
<path class="icon-fill" d="M43.9842 28.5162L47.814 26.9623V33.5695C47.8431 34.112 48.0792 34.6227 48.4735 34.9964C48.8679 35.3701 49.3905 35.5784 49.9338 35.5784C50.4771 35.5784 50.9997 35.3701 51.394 34.9964C51.7884 34.6227 52.0244 34.112 52.0536 33.5695V23.781C52.0529 23.4338 51.967 23.0921 51.8035 22.7859C51.6401 22.4796 51.404 22.2181 51.1159 22.0243C50.8279 21.8304 50.4967 21.7102 50.1515 21.6741C49.8062 21.638 49.4573 21.6871 49.1354 21.8172L45.3057 23.3711V16.7945C45.3211 16.5065 45.2778 16.2185 45.1783 15.9478C45.0787 15.6772 44.9251 15.4296 44.7267 15.2203C44.5283 15.011 44.2894 14.8443 44.0245 14.7304C43.7596 14.6165 43.4742 14.5577 43.1859 14.5577C42.8975 14.5577 42.6121 14.6165 42.3472 14.7304C42.0823 14.8443 41.8434 15.011 41.645 15.2203C41.4466 15.4296 41.293 15.6772 41.1935 15.9478C41.0939 16.2185 41.0506 16.5065 41.066 16.7945V26.583C41.0717 26.9275 41.1612 27.2655 41.3267 27.5678C41.4923 27.87 41.7289 28.1275 42.0162 28.3178C42.3035 28.5081 42.6328 28.6256 42.9757 28.6602C43.3186 28.6948 43.6647 28.6453 43.9842 28.5162Z"/>
<path class="icon-fill" d="M34.8688 45.958C35.1163 46.2033 35.4204 46.384 35.7542 46.4839C36.0881 46.5839 36.4414 46.6001 36.783 46.5312C37.1247 46.4623 37.4441 46.3103 37.713 46.0887C37.982 45.8671 38.1923 45.5827 38.3253 45.2606L39.9343 41.4553L44.6083 46.1293C44.8009 46.3442 45.0352 46.5175 45.2971 46.6388C45.5589 46.76 45.8427 46.8266 46.1311 46.8345C46.4195 46.8424 46.7066 46.7914 46.9746 46.6846C47.2427 46.5778 47.4862 46.4175 47.6902 46.2135C47.8942 46.0095 48.0545 45.766 48.1613 45.4979C48.2681 45.2299 48.3191 44.9429 48.3112 44.6544C48.3033 44.366 48.2367 44.0822 48.1154 43.8204C47.9942 43.5585 47.8209 43.3242 47.606 43.1316L40.699 36.2491C40.4531 36.0044 40.151 35.8237 39.8192 35.7228C39.4873 35.622 39.1357 35.6039 38.7953 35.6703C38.4548 35.7367 38.1358 35.8855 37.8662 36.1037C37.5966 36.322 37.3845 36.6029 37.2486 36.922L35.6396 40.7334L30.9717 36.0839C30.7819 35.8628 30.5485 35.6832 30.2862 35.5562C30.0239 35.4293 29.7383 35.3577 29.4471 35.3459C29.156 35.3341 28.8655 35.3824 28.5938 35.4877C28.3221 35.5931 28.075 35.7533 27.8679 35.9583C27.6608 36.1633 27.4981 36.4087 27.3899 36.6793C27.2818 36.9499 27.2306 37.2399 27.2394 37.5312C27.2482 37.8225 27.3169 38.1088 27.4412 38.3724C27.5654 38.636 27.7427 38.8712 27.9618 39.0633L34.8688 45.958Z"/>
<path class="icon-fill" d="M124.568 26.5524V16.7639C124.583 16.476 124.54 16.1879 124.44 15.9172C124.341 15.6466 124.187 15.399 123.989 15.1897C123.79 14.9804 123.551 14.8137 123.287 14.6998C123.022 14.5859 122.736 14.5271 122.448 14.5271C122.16 14.5271 121.874 14.5859 121.609 14.6998C121.344 14.8137 121.105 14.9804 120.907 15.1897C120.709 15.399 120.555 15.6466 120.456 15.9172C120.356 16.1879 120.313 16.476 120.328 16.7639V23.3711L116.498 21.8172C116.177 21.6871 115.828 21.638 115.482 21.6741C115.137 21.7102 114.806 21.8304 114.518 22.0243C114.23 22.2181 113.994 22.4796 113.83 22.7859C113.667 23.0922 113.581 23.4338 113.58 23.781V33.5695C113.565 33.8574 113.608 34.1455 113.708 34.4162C113.807 34.6868 113.961 34.9343 114.159 35.1437C114.358 35.353 114.596 35.5197 114.861 35.6336C115.126 35.7475 115.412 35.8063 115.7 35.8063C115.988 35.8063 116.274 35.7475 116.539 35.6336C116.804 35.5197 117.043 35.353 117.241 35.1437C117.439 34.9343 117.593 34.6868 117.692 34.4162C117.792 34.1455 117.835 33.8574 117.82 33.5695V26.9561L121.65 28.5101C121.971 28.6399 122.319 28.6891 122.664 28.6533C123.009 28.6175 123.34 28.4979 123.628 28.3047C123.915 28.1116 124.152 27.8509 124.316 27.5455C124.479 27.24 124.566 26.899 124.568 26.5524Z"/>
<path class="icon-fill" d="M137.66 39.0632C138.022 38.6589 138.216 38.1311 138.201 37.5884C138.186 37.0456 137.964 36.5292 137.58 36.1452C137.196 35.7613 136.68 35.5391 136.137 35.5243C135.594 35.5094 135.066 35.7031 134.662 36.0655L129.988 40.7395L128.379 36.9342C128.243 36.6151 128.031 36.3342 127.761 36.1159C127.492 35.8977 127.173 35.7489 126.832 35.6825C126.492 35.6161 126.14 35.6342 125.808 35.735C125.477 35.8359 125.175 36.0166 124.929 36.2613L118.028 43.1499C117.813 43.3425 117.64 43.5769 117.518 43.8387C117.397 44.1005 117.33 44.3843 117.323 44.6728C117.315 44.9612 117.366 45.2482 117.472 45.5163C117.579 45.7843 117.74 46.0278 117.944 46.2318C118.148 46.4359 118.391 46.5962 118.659 46.7029C118.927 46.8097 119.214 46.8607 119.503 46.8528C119.791 46.8449 120.075 46.7783 120.337 46.6571C120.599 46.5358 120.833 46.3625 121.025 46.1476L125.699 41.4736L127.308 45.2605C127.444 45.5797 127.656 45.8606 127.926 46.0788C128.196 46.2971 128.515 46.4459 128.855 46.5123C129.196 46.5787 129.547 46.5606 129.879 46.4597C130.211 46.3588 130.513 46.1782 130.759 45.9335L137.66 39.0632Z"/>
<defs>
<clipPath id="clip0">
<rect x="54.4767" y="18.1589" width="59.0165" height="96.2422" fill="white"/>
</clipPath>
</defs>
</svg>